{"glyphs":{"0":{"ha":847,"x_min":118,"x_max":729,"o":"m 424 -8 q 297 15 354 -8 q 201 92 240 39 q 140 231 161 146 q 118 438 118 315 l 118 535 q 140 742 118 657 q 201 879 161 826 q 298 956 242 932 q 424 981 354 981 q 551 957 494 981 q 647 880 607 933 q 708 742 686 826 q 729 535 729 657 l 729 438 q 708 231 729 315 q 647 92 686 146 q 550 15 607 39 q 424 -8 493 -8 m 424 53 q 522 72 478 53 q 598 135 567 90 q 646 254 629 181 q 663 438 663 328 l 663 535 q 645 717 663 643 q 597 836 628 792 q 522 900 565 881 q 424 919 478 919 q 325 900 369 919 q 249 836 281 881 q 201 718 218 792 q 185 535 185 644 l 185 438 q 201 255 185 329 q 249 136 218 181 q 325 72 281 92 q 424 53 369 53 z "},"1":{"ha":486,"x_min":56,"x_max":333,"o":"m 269 900 l 56 756 l 56 828 l 269 972 l 333 972 l 333 0 l 269 0 l 269 900 z "},"2":{"ha":764,"x_min":69,"x_max":681,"o":"m 69 61 l 429 419 q 508 502 475 465 q 563 574 542 539 q 596 642 585 608 q 607 715 607 676 q 590 793 607 757 q 543 857 574 829 q 469 901 513 885 q 375 917 426 917 q 281 901 324 917 q 208 857 239 885 q 160 793 178 829 q 143 715 143 757 l 76 715 q 98 818 76 769 q 159 903 119 867 q 253 960 199 939 q 375 981 308 981 q 497 960 442 981 q 591 903 551 939 q 652 818 631 867 q 674 715 674 769 q 660 630 674 669 q 622 551 647 590 q 560 469 597 511 q 476 381 524 428 l 154 61 l 681 61 l 681 0 l 69 0 l 69 61 z "},"3":{"ha":806,"x_min":90,"x_max":701,"o":"m 396 -8 q 179 71 260 -8 q 90 285 99 150 l 157 285 q 227 115 164 176 q 396 53 290 53 q 573 111 511 53 q 635 264 635 169 q 619 347 635 308 q 574 413 603 385 q 503 456 544 440 q 410 471 461 471 l 278 471 l 278 529 l 410 529 q 492 544 454 529 q 556 585 529 560 q 599 647 583 611 q 614 724 614 682 q 557 866 614 813 q 396 919 500 919 q 308 904 347 919 q 240 862 269 889 q 193 797 211 835 q 171 715 175 760 l 104 715 q 131 822 108 774 q 190 906 153 871 q 280 961 228 942 q 396 981 332 981 q 516 962 463 981 q 606 909 569 943 q 661 828 642 875 q 681 724 681 781 q 641 590 681 649 q 531 501 601 531 q 657 410 613 474 q 701 264 701 347 q 681 154 701 204 q 621 68 660 104 q 525 12 582 32 q 396 -8 468 -8 z "},"4":{"ha":785,"x_min":42,"x_max":736,"o":"m 42 307 l 522 972 l 594 972 l 594 307 l 736 307 l 736 249 l 594 249 l 594 0 l 531 0 l 531 249 l 42 249 l 42 307 m 531 307 l 531 890 l 114 307 l 531 307 z "},"5":{"ha":785,"x_min":90,"x_max":701,"o":"m 396 -8 q 201 46 283 -8 q 90 207 119 100 l 157 207 q 247 90 185 128 q 396 53 308 53 q 492 71 447 53 q 567 122 536 89 q 617 203 599 156 q 635 308 635 250 q 617 415 635 368 q 569 496 600 463 q 496 547 539 529 q 403 564 453 564 q 329 553 363 564 q 269 526 296 543 q 222 488 242 510 q 189 444 201 467 l 125 444 l 167 972 l 639 972 l 639 914 l 226 914 l 194 533 q 285 600 231 575 q 410 625 339 625 q 526 603 472 625 q 618 539 579 581 q 679 439 657 497 q 701 308 701 381 q 678 179 701 238 q 615 79 656 121 q 519 15 575 38 q 396 -8 463 -8 z "},"6":{"ha":826,"x_min":118,"x_max":715,"o":"m 424 -8 q 301 15 357 -8 q 203 86 244 38 q 140 211 163 135 q 118 396 118 288 l 118 493 q 143 728 118 635 q 211 878 168 822 q 311 958 254 935 q 431 981 368 981 q 599 923 535 981 q 688 778 664 865 l 621 778 q 553 879 600 839 q 431 919 507 919 q 338 901 382 919 q 260 837 294 883 q 205 711 226 790 q 181 510 183 632 q 280 611 217 575 q 424 647 343 647 q 542 626 489 647 q 635 565 596 604 q 694 468 674 525 q 715 340 715 411 l 715 299 q 692 173 715 229 q 630 76 669 117 q 538 14 590 36 q 424 -8 485 -8 m 185 313 q 203 201 185 250 q 252 120 221 153 q 327 70 283 88 q 424 53 371 53 q 513 70 472 53 q 585 119 554 88 q 632 197 615 151 q 649 299 649 242 l 649 340 q 632 442 649 397 q 585 519 615 488 q 513 569 554 551 q 424 586 472 586 q 326 569 369 586 q 251 521 282 551 q 202 448 219 490 q 185 354 185 406 l 185 313 z "},"7":{"ha":667,"x_min":35,"x_max":632,"o":"m 564 914 l 35 914 l 35 972 l 632 972 l 632 914 l 249 0 l 181 0 l 564 914 z "},"8":{"ha":819,"x_min":104,"x_max":715,"o":"m 410 -8 q 282 13 339 -8 q 185 69 225 33 q 125 154 146 106 q 104 260 104 203 q 156 415 104 350 q 296 508 208 479 q 176 593 221 536 q 132 731 132 650 q 153 828 132 782 q 210 908 174 874 q 298 961 247 942 q 410 981 349 981 q 523 961 472 981 q 610 908 574 942 q 667 829 647 875 q 688 731 688 783 q 643 594 688 651 q 524 508 599 536 q 663 415 611 479 q 715 260 715 351 q 694 156 715 204 q 633 70 672 107 q 537 13 593 33 q 410 -8 481 -8 m 410 533 q 491 552 453 538 q 558 592 529 567 q 604 651 588 617 q 621 731 621 686 q 606 802 621 768 q 563 863 590 836 q 496 904 535 889 q 410 919 457 919 q 324 904 363 919 q 257 863 285 889 q 214 802 229 836 q 199 731 199 768 q 216 653 199 688 q 263 593 233 618 q 330 553 292 568 q 410 533 368 538 m 410 53 q 508 69 464 53 q 583 114 551 86 q 631 180 614 142 q 649 260 649 218 q 631 346 649 307 q 581 414 613 385 q 505 460 549 443 q 410 481 461 476 q 313 460 357 476 q 238 415 269 443 q 189 347 207 386 q 171 260 171 308 q 188 179 171 217 q 235 113 204 142 q 311 69 267 85 q 410 53 356 53 z "},"9":{"ha":826,"x_min":111,"x_max":708,"o":"m 396 -8 q 227 49 292 -8 q 139 194 163 107 l 206 194 q 273 93 226 133 q 396 53 319 53 q 488 71 443 53 q 566 135 532 89 q 622 261 600 182 q 646 463 643 340 q 547 361 610 397 q 403 325 483 325 q 284 347 338 325 q 192 408 231 368 q 132 504 153 447 q 111 632 111 561 l 111 674 q 134 799 111 743 q 197 896 157 856 q 289 958 236 936 q 403 981 342 981 q 526 958 469 981 q 623 886 582 935 q 686 761 664 838 q 708 576 708 685 l 708 479 q 683 244 708 338 q 615 94 658 150 q 515 15 572 38 q 396 -8 458 -8 m 178 632 q 194 530 178 575 q 242 453 211 485 q 313 403 272 421 q 403 386 354 386 q 501 403 457 386 q 576 451 544 421 q 624 524 607 482 q 642 618 642 567 l 642 660 q 624 771 642 722 q 574 852 606 819 q 499 902 543 885 q 403 919 454 919 q 313 902 354 919 q 242 853 272 885 q 194 775 211 821 q 178 674 178 729 l 178 632 z "},"\u0000":{"ha":0,"x_min":0,"x_max":0,"o":""},"\r":{"ha":417,"x_min":0,"x_max":0,"o":""}," ":{"ha":347,"x_min":0,"x_max":0,"o":""},"!":{"ha":417,"x_min":153,"x_max":264,"o":"m 176 972 l 240 972 l 240 278 l 176 278 l 176 972 m 208 -8 q 169 8 185 -8 q 153 47 153 24 q 169 87 153 71 q 208 103 185 103 q 248 87 232 103 q 264 47 264 71 q 248 8 264 24 q 208 -8 232 -8 z "},"\"":{"ha":556,"x_min":107,"x_max":449,"o":"m 385 972 l 449 972 l 449 653 l 385 653 l 385 972 m 107 972 l 171 972 l 171 653 l 107 653 l 107 972 z "},"#":{"ha":819,"x_min":49,"x_max":771,"o":"m 197 306 l 49 306 l 60 361 l 207 361 l 257 639 l 108 639 l 118 694 l 267 694 l 317 972 l 378 972 l 328 694 l 565 694 l 615 972 l 676 972 l 626 694 l 771 694 l 761 639 l 617 639 l 567 361 l 711 361 l 701 306 l 557 306 l 503 0 l 442 0 l 496 306 l 258 306 l 204 0 l 143 0 l 197 306 m 506 361 l 556 639 l 318 639 l 268 361 l 506 361 z "},"$":{"ha":847,"x_min":97,"x_max":750,"o":"m 393 -7 q 181 75 256 0 q 97 285 107 150 l 167 285 q 393 54 186 69 l 393 476 q 290 510 340 492 q 199 558 239 529 q 135 631 160 588 q 111 736 111 674 q 129 828 111 786 q 183 903 147 871 q 271 956 218 936 q 393 979 324 975 l 393 1111 l 454 1111 l 454 979 q 657 902 588 972 q 736 715 726 832 l 667 715 q 605 858 656 806 q 454 918 554 911 l 454 525 q 562 489 508 508 q 657 439 615 469 q 724 363 699 408 q 750 250 750 318 q 678 70 750 140 q 454 -7 606 0 l 454 -139 l 393 -139 l 393 -7 m 178 736 q 195 663 178 693 q 242 610 213 632 q 311 572 272 588 q 393 543 350 557 l 393 918 q 231 860 283 911 q 178 736 178 810 m 683 250 q 665 331 683 297 q 615 388 646 364 q 542 428 583 411 q 454 458 500 444 l 454 54 q 628 115 572 61 q 683 250 683 168 z "},"%":{"ha":1250,"x_min":83,"x_max":1167,"o":"m 299 478 q 212 494 251 478 q 144 539 172 510 q 99 610 115 568 q 83 701 83 651 l 83 757 q 99 849 83 807 q 144 919 115 890 q 212 965 172 949 q 299 981 251 981 q 385 965 346 981 q 453 919 425 949 q 498 849 482 890 q 514 757 514 807 l 514 701 q 498 610 514 651 q 453 539 482 568 q 385 494 425 510 q 299 478 346 478 m 299 536 q 410 581 367 536 q 453 701 453 625 l 453 757 q 410 878 453 833 q 299 922 367 922 q 188 878 231 922 q 144 757 144 833 l 144 701 q 188 581 144 625 q 299 536 231 536 m 951 -8 q 865 8 904 -8 q 797 53 825 24 q 752 124 768 82 q 736 215 736 165 l 736 271 q 752 363 736 321 q 797 433 768 404 q 865 478 825 463 q 951 494 904 494 q 1038 478 999 494 q 1106 433 1078 463 q 1151 363 1135 404 q 1167 271 1167 321 l 1167 215 q 1151 124 1167 165 q 1106 53 1135 82 q 1038 8 1078 24 q 951 -8 999 -8 m 951 50 q 1063 94 1019 50 q 1106 215 1106 139 l 1106 271 q 1063 392 1106 347 q 951 436 1019 436 q 840 392 883 436 q 797 271 797 347 l 797 215 q 840 94 797 139 q 951 50 883 50 m 878 972 l 944 972 l 372 0 l 306 0 l 878 972 z "},"&":{"ha":889,"x_min":97,"x_max":875,"o":"m 671 125 q 544 26 618 60 q 382 -8 469 -8 q 266 11 318 -8 q 176 65 214 31 q 118 146 139 99 q 97 250 97 193 q 106 323 97 289 q 135 390 114 357 q 190 456 156 424 q 278 526 225 489 q 208 606 235 571 q 165 670 181 640 q 144 727 150 700 q 139 785 139 754 q 153 863 139 828 q 197 925 168 899 q 265 966 225 951 q 354 981 304 981 q 506 926 450 981 q 563 785 563 871 q 556 726 563 756 q 528 665 549 697 q 469 597 507 633 q 371 518 432 561 l 660 221 q 700 328 686 269 q 714 458 714 388 l 778 458 q 759 301 778 372 q 706 174 740 231 l 875 0 l 794 0 l 671 125 m 203 785 q 208 735 203 758 q 226 688 213 713 q 265 633 240 663 q 329 561 290 603 q 420 632 386 601 q 472 688 454 663 q 494 737 489 714 q 499 785 499 760 q 459 883 499 844 q 354 922 419 922 q 243 883 283 922 q 203 785 203 844 m 161 250 q 177 171 161 207 q 222 108 193 135 q 292 65 251 81 q 382 50 333 50 q 517 81 454 50 q 626 171 581 113 l 319 483 q 240 421 271 450 q 192 365 210 392 q 167 309 174 338 q 161 250 161 281 z "},"'":{"ha":278,"x_min":107,"x_max":171,"o":"m 107 972 l 171 972 l 171 653 l 107 653 l 107 972 z "},"(":{"ha":556,"x_min":139,"x_max":486,"o":"m 139 347 q 408 972 139 703 l 486 972 q 359 824 413 899 q 271 673 306 750 q 219 515 236 596 q 203 347 203 435 q 271 21 203 172 q 486 -278 339 -131 l 406 -278 q 139 347 139 -10 z "},")":{"ha":556,"x_min":69,"x_max":417,"o":"m 417 347 q 150 -278 417 -10 l 69 -278 q 285 21 217 -131 q 353 347 353 172 q 336 515 353 435 q 285 673 319 596 q 197 824 250 750 q 69 972 143 899 l 147 972 q 417 347 417 703 z "},"*":{"ha":542,"x_min":49,"x_max":493,"o":"m 139 589 l 231 749 l 49 749 l 49 796 l 231 796 l 139 956 l 181 981 l 272 821 l 365 981 l 406 956 l 314 796 l 493 796 l 493 749 l 314 749 l 406 589 l 365 564 l 272 724 l 181 564 l 139 589 z "},"+":{"ha":819,"x_min":111,"x_max":708,"o":"m 378 471 l 111 471 l 111 529 l 378 529 l 378 799 l 442 799 l 442 529 l 708 529 l 708 471 l 442 471 l 442 201 l 378 201 l 378 471 z "},",":{"ha":417,"x_min":118,"x_max":271,"o":"m 193 90 l 271 90 l 174 -208 l 118 -208 l 193 90 z "},"-":{"ha":625,"x_min":69,"x_max":556,"o":"m 69 389 l 556 389 l 556 333 l 69 333 l 69 389 z "},".":{"ha":417,"x_min":149,"x_max":268,"o":"m 208 -8 q 165 8 182 -8 q 149 51 149 25 q 165 94 149 78 q 208 111 182 111 q 251 94 235 111 q 268 51 268 78 q 251 8 268 25 q 208 -8 235 -8 z "},"/":{"ha":625,"x_min":49,"x_max":576,"o":"m 518 972 l 576 972 l 107 -278 l 49 -278 l 518 972 z "},":":{"ha":417,"x_min":149,"x_max":268,"o":"m 208 583 q 165 600 182 583 q 149 643 149 617 q 165 686 149 669 q 208 703 182 703 q 251 686 235 703 q 268 643 268 669 q 251 600 268 617 q 208 583 235 583 m 208 -8 q 165 8 182 -8 q 149 51 149 25 q 165 94 149 78 q 208 111 182 111 q 251 94 235 111 q 268 51 268 78 q 251 8 268 25 q 208 -8 235 -8 z "},";":{"ha":417,"x_min":97,"x_max":268,"o":"m 172 90 l 250 90 l 153 -208 l 97 -208 l 172 90 m 208 592 q 165 608 182 592 q 149 651 149 625 q 165 694 149 678 q 208 711 182 711 q 251 694 235 711 q 268 651 268 678 q 251 608 268 625 q 208 592 235 592 z "},"<":{"ha":819,"x_min":111,"x_max":708,"o":"m 111 465 l 111 535 l 708 806 l 708 739 l 179 501 l 708 264 l 708 194 l 111 465 z "},"=":{"ha":819,"x_min":111,"x_max":708,"o":"m 111 668 l 708 668 l 708 610 l 111 610 l 111 668 m 111 390 l 708 390 l 708 332 l 111 332 l 111 390 z "},">":{"ha":819,"x_min":111,"x_max":708,"o":"m 111 194 l 111 264 l 640 501 l 111 739 l 111 806 l 708 535 l 708 465 l 111 194 z "},"?":{"ha":694,"x_min":49,"x_max":632,"o":"m 308 242 q 327 377 308 324 q 375 467 346 431 q 437 528 404 503 q 499 580 469 553 q 547 641 528 607 q 565 729 565 675 q 509 865 565 813 q 340 917 453 917 q 178 862 236 917 q 115 715 121 807 l 49 715 q 130 908 54 836 q 340 981 206 981 q 465 963 411 981 q 557 911 519 944 q 613 831 594 878 q 632 729 632 785 q 613 626 632 667 q 565 557 593 586 q 502 502 536 528 q 440 444 468 476 q 392 363 411 411 q 372 242 372 315 l 308 242 m 340 -8 q 301 8 317 -8 q 285 47 285 24 q 301 87 285 71 q 340 103 317 103 q 380 87 364 103 q 396 47 396 71 q 380 8 396 24 q 340 -8 364 -8 z "},"@":{"ha":1458,"x_min":90,"x_max":1368,"o":"m 635 26 q 482 86 540 26 q 424 253 424 146 q 428 303 424 276 q 442 382 433 331 q 480 497 453 444 q 547 588 507 550 q 636 647 586 626 q 743 668 686 668 q 864 637 814 668 q 936 543 914 606 l 957 660 l 1018 660 l 944 247 q 940 201 940 224 q 969 114 940 143 q 1053 85 999 85 q 1145 107 1100 85 q 1226 172 1190 129 q 1283 276 1261 215 q 1304 417 1304 338 q 1263 615 1304 522 q 1147 776 1222 707 q 966 884 1072 844 q 729 924 860 924 q 503 879 608 924 q 321 757 399 835 q 199 574 243 679 q 154 347 154 468 q 198 119 154 225 q 319 -63 242 14 q 501 -184 396 -140 q 729 -228 606 -228 q 897 -214 814 -228 q 1049 -171 979 -200 l 1049 -235 q 903 -272 988 -258 q 729 -286 818 -286 q 478 -237 594 -286 q 275 -103 361 -189 q 140 98 189 -18 q 90 347 90 214 q 140 594 90 479 q 276 796 189 710 q 479 931 363 882 q 729 981 596 981 q 992 936 874 981 q 1193 815 1110 892 q 1322 635 1276 738 q 1368 417 1368 533 q 1342 251 1368 324 q 1274 129 1317 179 q 1174 53 1231 79 q 1053 26 1117 26 q 932 63 976 26 q 881 167 888 100 q 777 63 840 100 q 635 26 714 26 m 651 85 q 810 147 746 85 q 894 313 875 208 q 908 394 904 365 q 913 442 913 422 q 865 565 913 519 q 742 610 818 610 q 588 548 651 610 q 506 382 524 486 q 491 299 494 326 q 488 253 488 272 q 530 129 488 174 q 651 85 572 85 z "},"A":{"ha":917,"x_min":56,"x_max":861,"o":"m 417 972 l 500 972 l 861 0 l 792 0 l 683 297 l 232 297 l 122 0 l 56 0 l 417 972 m 661 356 l 460 908 l 457 908 l 253 356 l 661 356 z "},"B":{"ha":861,"x_min":139,"x_max":764,"o":"m 139 972 l 431 972 q 662 905 588 972 q 736 721 736 838 q 699 588 736 643 q 590 506 661 533 l 590 503 q 719 418 675 479 q 764 265 764 357 q 690 69 764 139 q 458 0 615 0 l 139 0 l 139 972 m 203 914 l 203 529 l 424 529 q 611 581 553 529 q 669 721 669 633 q 611 862 669 810 q 424 914 553 914 l 203 914 m 203 471 l 203 58 l 451 58 q 639 112 581 58 q 697 265 697 165 q 639 417 697 364 q 451 471 581 471 l 203 471 z "},"C":{"ha":931,"x_min":104,"x_max":840,"o":"m 486 -8 q 333 22 403 -8 q 213 110 264 51 q 133 253 161 168 q 104 451 104 339 l 104 535 q 133 724 104 640 q 213 864 161 807 q 334 951 264 921 q 486 981 404 981 q 622 959 561 981 q 728 900 683 938 q 801 813 774 863 q 840 708 829 764 l 776 708 q 742 790 765 751 q 683 858 719 829 q 597 905 646 888 q 486 922 549 922 q 360 897 418 922 q 260 823 303 872 q 194 701 218 774 q 171 535 171 629 l 171 451 q 194 276 171 351 q 260 151 218 201 q 360 76 303 101 q 486 50 418 50 q 597 67 549 50 q 683 115 646 85 q 742 188 719 146 q 776 278 765 229 l 840 278 q 801 165 829 217 q 728 74 774 113 q 622 14 683 36 q 486 -8 561 -8 z "},"D":{"ha":944,"x_min":139,"x_max":840,"o":"m 139 972 l 424 972 q 731 860 622 972 q 840 533 840 749 l 840 453 q 731 115 840 229 q 424 0 621 0 l 139 0 l 139 972 m 417 58 q 682 155 590 58 q 774 453 774 251 l 774 533 q 681 819 774 724 q 417 914 589 914 l 203 914 l 203 58 l 417 58 z "},"E":{"ha":778,"x_min":139,"x_max":701,"o":"m 139 972 l 701 972 l 701 914 l 203 914 l 203 529 l 618 529 l 618 471 l 203 471 l 203 58 l 701 58 l 701 0 l 139 0 l 139 972 z "},"F":{"ha":750,"x_min":139,"x_max":701,"o":"m 139 972 l 701 972 l 701 914 l 203 914 l 203 529 l 618 529 l 618 471 l 203 471 l 203 0 l 139 0 l 139 972 z "},"G":{"ha":958,"x_min":104,"x_max":854,"o":"m 486 -8 q 333 22 403 -8 q 213 110 264 51 q 133 253 161 168 q 104 451 104 339 l 104 535 q 133 724 104 640 q 213 864 161 807 q 334 951 264 921 q 486 981 404 981 q 622 958 561 981 q 728 899 683 936 q 801 812 772 861 q 840 708 829 763 l 771 708 q 737 790 760 751 q 678 858 714 829 q 594 905 642 888 q 486 922 546 922 q 360 897 418 922 q 260 823 303 872 q 194 701 218 774 q 171 535 171 629 l 171 451 q 194 276 171 351 q 260 151 218 201 q 360 76 303 101 q 486 50 418 50 q 608 71 553 50 q 702 137 663 92 q 765 251 742 182 q 790 415 788 319 l 486 415 l 486 474 l 854 474 l 854 458 q 828 250 854 338 q 753 105 801 163 q 638 19 706 47 q 486 -8 569 -8 z "},"H":{"ha":986,"x_min":139,"x_max":847,"o":"m 139 972 l 203 972 l 203 529 l 783 529 l 783 972 l 847 972 l 847 0 l 783 0 l 783 471 l 203 471 l 203 0 l 139 0 l 139 972 z "},"I":{"ha":375,"x_min":156,"x_max":219,"o":"m 156 972 l 219 972 l 219 0 l 156 0 l 156 972 z "},"J":{"ha":743,"x_min":56,"x_max":611,"o":"m 333 -8 q 140 66 213 -8 q 56 278 67 140 l 119 278 q 333 50 140 50 q 422 66 386 50 q 483 107 458 82 q 519 165 507 132 q 538 230 532 197 q 546 294 544 263 q 547 347 547 325 l 547 972 l 611 972 l 611 340 q 610 288 611 321 q 600 216 608 254 q 575 138 592 178 q 528 65 558 97 q 449 13 497 33 q 333 -8 401 -8 z "},"K":{"ha":882,"x_min":139,"x_max":819,"o":"m 139 972 l 203 972 l 203 400 l 711 972 l 792 972 l 413 542 l 819 0 l 736 0 l 367 494 l 203 310 l 203 0 l 139 0 l 139 972 z "},"L":{"ha":715,"x_min":139,"x_max":674,"o":"m 139 972 l 203 972 l 203 58 l 674 58 l 674 0 l 139 0 l 139 972 z "},"M":{"ha":1125,"x_min":139,"x_max":986,"o":"m 139 972 l 231 972 l 563 367 l 565 367 l 897 972 l 986 972 l 986 0 l 922 0 l 922 889 l 919 889 l 599 299 l 529 299 l 206 889 l 203 889 l 203 0 l 139 0 l 139 972 z "},"N":{"ha":986,"x_min":139,"x_max":847,"o":"m 139 972 l 239 972 l 781 78 l 783 78 l 783 972 l 847 972 l 847 0 l 753 0 l 206 903 l 203 903 l 203 0 l 139 0 l 139 972 z "},"O":{"ha":986,"x_min":104,"x_max":882,"o":"m 493 -8 q 336 22 407 -8 q 213 110 265 51 q 133 253 161 168 q 104 451 104 339 l 104 535 q 133 724 104 640 q 214 864 163 807 q 337 951 265 921 q 493 981 408 981 q 649 951 578 981 q 773 864 721 921 q 853 724 825 807 q 882 535 882 642 l 882 451 q 853 254 882 340 q 772 110 824 168 q 649 22 721 51 q 493 -8 578 -8 m 493 53 q 622 78 563 53 q 724 154 681 104 q 791 278 767 204 q 815 451 815 353 l 815 535 q 791 699 815 628 q 724 820 767 771 q 622 894 681 869 q 493 919 563 919 q 365 894 424 919 q 263 820 306 869 q 195 699 219 771 q 171 535 171 628 l 171 451 q 195 278 171 353 q 263 154 219 204 q 365 78 306 104 q 493 53 424 53 z "},"P":{"ha":833,"x_min":139,"x_max":764,"o":"m 139 972 l 438 972 q 683 895 601 972 q 764 678 764 818 q 682 461 764 539 q 438 383 600 383 l 203 383 l 203 0 l 139 0 l 139 972 m 203 914 l 203 442 l 431 442 q 634 501 571 442 q 697 678 697 560 q 633 853 697 793 q 431 914 569 914 l 203 914 z "},"Q":{"ha":986,"x_min":104,"x_max":882,"o":"m 706 51 q 493 -8 617 -8 q 336 22 407 -8 q 213 110 265 51 q 133 253 161 168 q 104 451 104 339 l 104 535 q 133 724 104 640 q 214 864 163 807 q 337 951 265 921 q 493 981 408 981 q 649 951 578 981 q 773 864 721 921 q 853 724 825 807 q 882 535 882 642 l 882 451 q 848 238 882 329 q 751 89 814 147 l 882 -69 l 806 -69 l 706 51 m 493 53 q 664 101 590 53 l 507 292 l 583 292 l 710 139 q 787 267 758 189 q 815 451 815 344 l 815 535 q 791 699 815 628 q 724 820 767 771 q 622 894 681 869 q 493 919 563 919 q 365 894 424 919 q 263 820 306 869 q 195 699 219 771 q 171 535 171 628 l 171 451 q 195 278 171 353 q 263 154 219 204 q 365 78 306 104 q 493 53 424 53 z "},"R":{"ha":861,"x_min":139,"x_max":792,"o":"m 139 972 l 438 972 q 683 897 601 972 q 764 693 764 822 q 714 525 764 593 q 564 429 664 457 l 792 0 l 717 0 l 499 417 q 468 414 483 414 q 438 414 453 414 l 203 414 l 203 0 l 139 0 l 139 972 m 431 472 q 634 530 571 472 q 697 693 697 588 q 633 856 697 797 q 431 914 569 914 l 203 914 l 203 472 l 431 472 z "},"S":{"ha":847,"x_min":97,"x_max":750,"o":"m 438 -8 q 192 69 276 -8 q 97 278 108 147 l 164 278 q 241 111 175 172 q 438 50 307 50 q 625 103 567 50 q 683 250 683 157 q 641 358 683 319 q 535 422 599 397 q 397 466 471 447 q 260 515 324 485 q 153 594 196 544 q 111 729 111 643 q 131 829 111 783 q 190 908 151 875 q 286 961 229 942 q 417 981 343 981 q 651 906 571 981 q 743 708 732 832 l 676 708 q 603 865 665 808 q 417 922 540 922 q 236 869 294 922 q 178 729 178 817 q 202 640 178 675 q 267 583 226 606 q 358 544 307 560 q 464 514 410 529 q 569 481 518 499 q 661 433 621 463 q 726 360 701 404 q 750 250 750 317 q 731 145 750 193 q 672 63 711 97 q 574 10 632 29 q 438 -8 515 -8 z "},"T":{"ha":806,"x_min":42,"x_max":764,"o":"m 371 914 l 42 914 l 42 972 l 764 972 l 764 914 l 435 914 l 435 0 l 371 0 l 371 914 z "},"U":{"ha":958,"x_min":132,"x_max":826,"o":"m 479 -8 q 225 88 318 -8 q 132 368 132 185 l 132 972 l 196 972 l 196 375 q 272 131 196 211 q 479 50 347 50 q 688 131 613 50 q 763 375 763 211 l 763 972 l 826 972 l 826 368 q 733 89 826 186 q 479 -8 639 -8 z "},"V":{"ha":917,"x_min":56,"x_max":861,"o":"m 56 972 l 125 972 l 471 69 l 474 69 l 794 972 l 861 972 l 514 0 l 431 0 l 56 972 z "},"W":{"ha":1347,"x_min":69,"x_max":1278,"o":"m 69 972 l 136 972 l 389 69 l 392 69 l 629 972 l 718 972 l 971 69 l 974 69 l 1214 972 l 1278 972 l 1017 0 l 928 0 l 675 903 l 672 903 l 433 0 l 344 0 l 69 972 z "},"X":{"ha":903,"x_min":63,"x_max":840,"o":"m 408 511 l 90 972 l 168 972 l 453 557 l 735 972 l 813 972 l 494 508 l 840 0 l 760 0 l 450 457 l 143 0 l 63 0 l 408 511 z "},"Y":{"ha":903,"x_min":56,"x_max":847,"o":"m 433 368 l 56 972 l 131 972 l 465 433 l 775 972 l 847 972 l 497 368 l 497 0 l 433 0 l 433 368 z "},"Z":{"ha":813,"x_min":76,"x_max":743,"o":"m 76 58 l 668 911 l 668 914 l 90 914 l 90 972 l 743 972 l 743 914 l 151 61 l 151 58 l 743 58 l 743 0 l 76 0 l 76 58 z "},"[":{"ha":556,"x_min":181,"x_max":472,"o":"m 181 972 l 472 972 l 472 917 l 242 917 l 242 -222 l 472 -222 l 472 -278 l 181 -278 l 181 972 z "},"\\":{"ha":625,"x_min":49,"x_max":576,"o":"m 49 972 l 110 972 l 576 -278 l 515 -278 l 49 972 z "},"]":{"ha":556,"x_min":83,"x_max":375,"o":"m 375 -278 l 83 -278 l 83 -222 l 314 -222 l 314 917 l 83 917 l 83 972 l 375 972 l 375 -278 z "},"^":{"ha":819,"x_min":125,"x_max":694,"o":"m 368 972 l 438 972 l 694 556 l 622 556 l 404 918 l 194 556 l 125 556 l 368 972 z "},"_":{"ha":819,"x_min":0,"x_max":819,"o":"m 0 -110 l 819 -110 l 819 -168 l 0 -168 l 0 -110 z "},"`":{"ha":347,"x_min":49,"x_max":299,"o":"m 49 993 l 138 993 l 299 785 l 226 785 l 49 993 z "},"a":{"ha":736,"x_min":83,"x_max":611,"o":"m 306 -8 q 139 44 194 -8 q 83 186 83 96 q 148 339 83 282 q 354 396 213 396 l 550 396 l 550 458 q 505 599 550 554 q 361 644 460 644 q 232 611 276 644 q 182 528 188 578 l 118 528 q 137 592 121 561 q 183 649 153 624 q 258 688 214 674 q 361 703 303 703 q 549 643 488 703 q 611 465 611 583 l 611 0 l 561 0 l 551 132 l 549 132 q 448 28 513 65 q 306 -8 383 -8 m 306 50 q 406 67 361 50 q 483 117 451 85 q 533 193 515 149 q 550 292 550 238 l 550 340 l 361 340 q 197 299 246 340 q 147 186 147 257 q 187 87 147 124 q 306 50 226 50 z "},"b":{"ha":792,"x_min":132,"x_max":701,"o":"m 132 972 l 193 972 l 193 583 l 196 583 q 429 703 272 703 q 538 681 488 703 q 624 618 588 660 q 681 515 660 576 q 701 375 701 454 l 701 319 q 681 181 701 242 q 623 78 660 119 q 536 14 586 36 q 429 -8 486 -8 q 290 24 350 -8 q 193 118 231 56 l 190 118 l 182 0 l 132 0 l 132 972 m 415 47 q 576 114 515 47 q 638 319 638 181 l 638 375 q 576 579 638 511 q 415 647 514 647 q 254 581 315 647 q 193 375 193 514 l 193 319 q 255 115 193 183 q 415 47 317 47 z "},"c":{"ha":701,"x_min":90,"x_max":632,"o":"m 375 -8 q 258 13 311 -8 q 168 76 206 35 q 110 181 131 118 q 90 326 90 243 l 90 382 q 111 518 90 458 q 169 619 132 578 q 260 681 207 660 q 375 703 313 703 q 474 688 431 703 q 551 646 518 672 q 603 585 583 619 q 632 514 624 551 l 568 514 q 506 608 553 568 q 375 647 458 647 q 288 630 328 647 q 217 578 247 613 q 171 495 188 544 q 154 382 154 446 l 154 326 q 171 205 154 257 q 217 118 188 153 q 288 65 247 83 q 375 47 328 47 q 506 88 458 47 q 568 194 553 129 l 632 194 q 603 115 624 151 q 551 51 583 78 q 474 8 518 24 q 375 -8 431 -8 z "},"d":{"ha":792,"x_min":90,"x_max":660,"o":"m 660 972 l 660 0 l 610 0 q 608 25 610 8 q 606 60 607 42 q 603 95 604 79 q 601 118 601 111 l 599 118 q 501 24 561 56 q 363 -8 442 -8 q 255 13 304 -8 q 169 76 206 35 q 111 179 132 118 q 90 319 90 240 l 90 375 q 111 514 90 453 q 169 617 132 575 q 256 681 206 658 q 363 703 306 703 q 596 583 519 703 l 599 583 l 599 972 l 660 972 m 376 644 q 216 576 278 644 q 154 375 154 508 l 154 319 q 217 118 154 186 q 376 50 279 50 q 538 117 476 50 q 599 319 599 183 l 599 375 q 582 492 599 442 q 536 576 565 543 q 466 627 507 610 q 376 644 425 644 z "},"e":{"ha":750,"x_min":90,"x_max":660,"o":"m 382 -8 q 263 13 317 -8 q 170 76 208 35 q 111 179 132 118 q 90 319 90 240 l 90 375 q 111 515 90 454 q 170 618 132 576 q 260 681 208 660 q 375 703 313 703 q 490 681 438 703 q 581 617 543 660 q 639 513 618 575 q 660 368 660 450 l 660 333 l 154 333 q 210 121 154 194 q 375 47 267 47 q 512 81 458 47 q 589 181 565 115 l 653 181 q 556 41 626 90 q 382 -8 486 -8 m 375 647 q 217 582 278 647 q 154 389 157 517 l 596 389 q 533 583 593 519 q 375 647 474 647 z "},"f":{"ha":465,"x_min":56,"x_max":444,"o":"m 181 639 l 56 639 l 56 694 l 181 694 l 181 806 q 347 972 181 972 l 444 972 l 444 917 l 354 917 q 269 889 296 917 q 242 799 242 861 l 242 694 l 417 694 l 417 639 l 242 639 l 242 0 l 181 0 l 181 639 z "},"g":{"ha":792,"x_min":90,"x_max":660,"o":"m 360 19 q 253 41 303 19 q 168 103 204 63 q 111 201 132 143 q 90 333 90 260 l 90 389 q 111 519 90 461 q 169 619 132 578 q 256 681 206 660 q 363 703 306 703 q 501 671 442 703 q 599 576 561 639 l 601 576 l 610 694 l 660 694 l 660 -7 q 590 -212 660 -137 q 393 -286 519 -286 q 210 -231 271 -286 q 139 -83 150 -176 l 203 -83 q 258 -192 214 -154 q 393 -231 303 -231 q 599 0 599 -231 l 599 139 l 596 139 q 360 19 519 19 m 376 75 q 538 140 476 75 q 599 333 599 206 l 599 389 q 537 581 599 515 q 376 647 475 647 q 215 582 276 647 q 154 389 154 517 l 154 333 q 216 141 154 207 q 376 75 278 75 z "},"h":{"ha":799,"x_min":132,"x_max":674,"o":"m 132 972 l 193 972 l 193 576 l 196 576 q 287 669 229 636 q 415 703 344 703 q 606 633 538 703 q 674 424 674 563 l 674 0 l 613 0 l 613 424 q 560 592 613 538 q 410 647 508 647 q 322 631 361 647 q 253 586 282 615 q 209 515 225 557 q 193 424 193 474 l 193 0 l 132 0 l 132 972 z "},"i":{"ha":356,"x_min":128,"x_max":228,"o":"m 147 694 l 208 694 l 208 0 l 147 0 l 147 694 m 178 832 q 142 846 156 832 q 128 882 128 860 q 142 918 128 904 q 178 932 156 932 q 214 918 200 932 q 228 882 228 904 q 214 846 228 860 q 178 832 200 832 z "},"j":{"ha":356,"x_min":0,"x_max":228,"o":"m 0 -222 l 36 -222 q 100 -206 78 -222 q 133 -167 122 -190 q 145 -119 143 -144 q 147 -76 147 -94 l 147 694 l 208 694 l 208 -83 q 206 -137 208 -104 q 186 -202 203 -171 q 135 -256 169 -233 q 36 -278 100 -278 l 0 -278 l 0 -222 m 178 832 q 142 846 156 832 q 128 882 128 860 q 142 918 128 904 q 178 932 156 932 q 214 918 200 932 q 228 882 228 904 q 214 846 228 860 q 178 832 200 832 z "},"k":{"ha":708,"x_min":132,"x_max":660,"o":"m 132 972 l 193 972 l 193 278 l 557 694 l 632 694 l 364 390 l 660 0 l 582 0 l 324 343 l 193 199 l 193 0 l 132 0 l 132 972 z "},"l":{"ha":403,"x_min":132,"x_max":340,"o":"m 290 0 q 199 21 232 0 q 152 70 167 42 q 135 126 138 99 q 132 165 132 153 l 132 972 l 193 972 l 193 172 q 219 83 193 110 q 297 56 244 56 l 340 56 l 340 0 l 290 0 l 290 0 z "},"m":{"ha":1215,"x_min":132,"x_max":1090,"o":"m 132 694 l 182 694 l 190 576 l 193 576 q 283 670 228 638 q 407 703 339 703 q 540 665 483 703 q 622 551 596 626 q 714 663 653 622 q 856 703 775 703 q 1025 633 960 703 q 1090 424 1090 563 l 1090 0 l 1029 0 l 1029 424 q 978 592 1029 536 q 842 647 928 647 q 765 631 801 647 q 701 584 729 614 q 658 513 674 554 q 642 424 642 472 l 642 0 l 581 0 l 581 424 q 530 592 581 536 q 393 647 479 647 q 317 631 353 647 q 253 584 281 614 q 209 513 225 554 q 193 424 193 472 l 193 0 l 132 0 l 132 694 z "},"n":{"ha":799,"x_min":132,"x_max":674,"o":"m 132 694 l 182 694 l 190 576 l 193 576 q 287 670 229 638 q 415 703 344 703 q 606 633 538 703 q 674 431 674 564 l 674 0 l 613 0 l 613 424 q 560 592 613 538 q 410 647 508 647 q 322 631 361 647 q 253 586 282 615 q 209 515 225 557 q 193 424 193 474 l 193 0 l 132 0 l 132 694 z "},"o":{"ha":764,"x_min":90,"x_max":674,"o":"m 382 -8 q 263 13 317 -8 q 170 76 208 35 q 111 179 132 118 q 90 319 90 240 l 90 375 q 111 515 90 454 q 171 618 132 576 q 263 681 210 660 q 382 703 317 703 q 501 681 447 703 q 594 618 556 660 q 653 515 632 576 q 674 375 674 454 l 674 319 q 653 179 674 240 q 593 76 632 118 q 501 13 554 35 q 382 -8 447 -8 m 382 47 q 547 116 483 47 q 610 319 610 185 l 610 375 q 546 578 610 510 q 382 647 482 647 q 217 578 281 647 q 154 375 154 510 l 154 319 q 218 116 154 185 q 382 47 282 47 z "},"p":{"ha":792,"x_min":132,"x_max":701,"o":"m 132 694 l 182 694 l 190 576 l 193 576 q 290 671 231 639 q 429 703 350 703 q 538 681 488 703 q 624 618 588 660 q 681 515 660 576 q 701 375 701 454 l 701 319 q 681 181 701 242 q 623 78 660 119 q 536 14 586 36 q 429 -8 486 -8 q 196 111 272 -8 l 193 111 l 193 -278 l 132 -278 l 132 694 m 415 47 q 576 114 515 47 q 638 319 638 181 l 638 375 q 576 579 638 511 q 415 647 514 647 q 254 581 315 647 q 193 375 193 514 l 193 319 q 255 115 193 183 q 415 47 317 47 z "},"q":{"ha":792,"x_min":90,"x_max":660,"o":"m 363 -8 q 254 13 304 -8 q 168 76 204 35 q 111 179 132 118 q 90 319 90 240 l 90 375 q 111 514 90 453 q 169 617 132 575 q 256 681 206 658 q 363 703 306 703 q 501 671 442 703 q 599 576 561 639 l 601 576 l 610 694 l 660 694 l 660 -278 l 599 -278 l 599 111 l 596 111 q 363 -8 519 -8 m 376 47 q 538 114 476 47 q 599 319 599 181 l 599 375 q 537 579 599 511 q 376 647 475 647 q 215 581 276 647 q 154 375 154 514 l 154 319 q 216 115 154 183 q 376 47 278 47 z "},"r":{"ha":521,"x_min":132,"x_max":486,"o":"m 132 694 l 182 694 l 190 576 l 193 576 q 283 670 225 638 q 415 703 342 703 l 486 703 l 486 647 l 424 647 q 253 588 314 647 q 193 424 193 528 l 193 0 l 132 0 l 132 694 z "},"s":{"ha":681,"x_min":90,"x_max":590,"o":"m 347 -8 q 162 45 224 -8 q 90 181 100 99 l 154 181 q 208 83 165 118 q 347 47 251 47 q 485 83 443 47 q 526 179 526 119 q 495 257 526 229 q 417 303 464 285 q 315 335 369 321 q 214 370 261 349 q 135 426 167 392 q 104 522 104 461 q 163 651 104 599 q 333 703 221 703 q 438 689 393 703 q 513 651 482 675 q 560 596 543 628 q 583 528 578 564 l 517 528 q 465 614 506 581 q 333 647 424 647 q 208 612 249 647 q 168 522 168 576 q 199 449 168 475 q 278 407 231 424 q 379 376 325 390 q 481 340 433 363 q 559 281 528 318 q 590 179 590 243 q 529 46 590 100 q 347 -8 468 -8 z "},"t":{"ha":500,"x_min":49,"x_max":438,"o":"m 340 0 q 244 20 278 0 q 195 67 211 40 q 176 122 179 94 q 174 165 174 150 l 174 639 l 49 639 l 49 694 l 174 694 l 174 889 l 235 889 l 235 694 l 424 694 l 424 639 l 235 639 l 235 172 q 261 83 235 110 q 346 56 288 56 l 438 56 l 438 0 l 340 0 l 340 0 z "},"u":{"ha":785,"x_min":125,"x_max":653,"o":"m 368 -8 q 191 61 257 -8 q 125 264 125 131 l 125 694 l 186 694 l 186 271 q 237 102 186 157 q 375 47 288 47 q 463 63 422 47 q 531 108 503 79 q 576 179 560 138 q 592 271 592 221 l 592 694 l 653 694 l 653 0 l 603 0 l 594 118 l 592 118 q 499 24 557 57 q 368 -8 442 -8 z "},"v":{"ha":708,"x_min":49,"x_max":660,"o":"m 49 694 l 115 694 l 361 69 l 364 69 l 596 694 l 660 694 l 399 0 l 324 0 l 49 694 z "},"w":{"ha":1069,"x_min":63,"x_max":1007,"o":"m 63 694 l 126 694 l 313 69 l 315 69 l 496 694 l 576 694 l 769 69 l 772 69 l 946 694 l 1007 694 l 811 0 l 731 0 l 538 619 l 535 619 l 353 0 l 272 0 l 63 694 z "},"x":{"ha":694,"x_min":49,"x_max":646,"o":"m 311 361 l 71 694 l 143 694 l 347 410 l 554 694 l 624 694 l 383 363 l 646 0 l 571 0 l 347 313 l 121 0 l 49 0 l 311 361 z "},"y":{"ha":722,"x_min":49,"x_max":674,"o":"m 342 0 l 49 694 l 115 694 l 372 76 l 375 76 l 610 694 l 674 694 l 299 -278 l 235 -278 l 342 0 z "},"z":{"ha":632,"x_min":63,"x_max":576,"o":"m 63 56 l 504 636 l 504 639 l 76 639 l 76 694 l 576 694 l 576 639 l 135 58 l 135 56 l 576 56 l 576 0 l 63 0 l 63 56 z "},"{":{"ha":556,"x_min":83,"x_max":486,"o":"m 417 -278 q 251 -221 308 -278 q 194 -56 194 -164 l 194 167 q 162 276 194 240 q 83 318 129 311 l 83 376 q 162 419 129 383 q 194 528 194 454 l 194 750 q 251 915 194 858 q 417 972 308 972 l 486 972 l 486 917 l 417 917 q 297 875 338 917 q 256 750 256 833 l 256 528 q 233 419 256 465 q 153 349 211 372 l 153 346 q 233 277 211 322 q 256 167 256 232 l 256 -56 q 297 -181 256 -139 q 417 -222 338 -222 l 486 -222 l 486 -278 l 417 -278 z "},"|":{"ha":417,"x_min":178,"x_max":239,"o":"m 178 972 l 239 972 l 239 -278 l 178 -278 l 178 972 z "},"}":{"ha":556,"x_min":69,"x_max":472,"o":"m 139 972 q 304 915 247 972 q 361 750 361 858 l 361 528 q 394 419 361 454 q 472 376 426 383 l 472 318 q 394 276 426 311 q 361 167 361 240 l 361 -56 q 304 -221 361 -164 q 139 -278 247 -278 l 69 -278 l 69 -222 l 139 -222 q 259 -181 218 -222 q 300 -56 300 -139 l 300 167 q 322 276 300 229 q 403 346 344 322 l 403 349 q 322 417 344 372 q 300 528 300 463 l 300 750 q 259 875 300 833 q 139 917 218 917 l 69 917 l 69 972 l 139 972 z "},"~":{"ha":819,"x_min":76,"x_max":743,"o":"m 563 382 q 468 409 507 382 q 397 469 429 436 q 332 530 364 503 q 257 557 300 557 q 172 525 204 557 q 140 438 140 493 l 76 438 q 126 569 76 519 q 257 618 175 618 q 351 591 313 618 q 423 531 390 564 q 488 470 456 497 q 563 443 519 443 q 647 475 615 443 q 679 563 679 507 l 743 563 q 694 431 743 481 q 563 382 644 382 z "}," ":{"ha":347,"x_min":0,"x_max":0,"o":""},"¡":{"ha":417,"x_min":153,"x_max":264,"o":"m 240 -278 l 176 -278 l 176 417 l 240 417 l 240 -278 m 208 703 q 248 687 232 703 q 264 647 264 671 q 248 608 264 624 q 208 592 232 592 q 169 608 185 592 q 153 647 153 624 q 169 687 153 671 q 208 703 185 703 z "},"¢":{"ha":701,"x_min":90,"x_max":632,"o":"m 347 -7 q 160 85 229 1 q 90 326 90 169 l 90 382 q 161 610 90 528 q 347 701 232 692 l 347 833 l 403 833 l 403 701 q 491 681 451 697 q 559 638 531 664 q 606 581 588 613 q 632 514 625 549 l 568 514 q 506 608 553 568 q 375 647 458 647 q 288 630 328 647 q 217 578 247 613 q 171 495 188 544 q 154 382 154 446 l 154 326 q 171 205 154 257 q 217 118 188 153 q 288 65 247 83 q 375 47 328 47 q 506 88 458 47 q 568 194 553 129 l 632 194 q 606 119 625 154 q 559 58 588 85 q 491 14 531 31 q 403 -7 451 -3 l 403 -139 l 347 -139 l 347 -7 z "},"£":{"ha":806,"x_min":90,"x_max":729,"o":"m 90 58 q 144 101 121 79 q 183 153 167 122 q 207 225 199 183 q 215 325 215 267 l 215 431 l 90 431 l 90 486 l 215 486 l 215 715 q 235 821 215 772 q 290 905 256 869 q 371 960 324 940 q 472 981 418 981 q 574 961 528 981 q 655 907 621 942 q 708 823 689 872 q 729 715 728 774 l 665 715 q 609 865 663 810 q 472 919 556 919 q 396 905 431 919 q 335 863 361 890 q 294 799 308 836 q 279 715 279 761 l 279 486 l 542 486 l 542 431 l 279 431 l 279 325 q 273 230 279 271 q 254 158 267 189 q 222 103 242 126 q 175 58 203 79 l 715 58 l 715 0 l 90 0 l 90 58 z "},"¤":{"ha":819,"x_min":90,"x_max":729,"o":"m 90 222 l 208 340 q 167 413 182 372 q 153 500 153 454 q 167 585 153 544 q 208 658 182 626 l 90 776 l 133 819 l 251 701 q 324 742 283 728 q 410 757 365 757 q 495 742 454 757 q 569 701 536 728 l 688 819 l 729 778 l 611 660 q 652 585 638 626 q 667 500 667 544 q 652 415 667 456 q 613 340 638 374 l 729 224 l 686 181 l 569 297 q 495 258 536 272 q 410 243 454 243 q 324 258 365 243 q 250 299 283 272 l 132 181 l 90 222 m 410 301 q 484 317 449 301 q 546 359 519 332 q 588 422 572 386 q 603 500 603 458 q 588 576 603 540 q 546 640 572 613 q 484 682 519 667 q 410 697 449 697 q 334 682 369 697 q 272 640 299 667 q 231 576 246 613 q 215 500 215 540 q 231 422 215 458 q 272 359 246 386 q 334 317 299 332 q 410 301 369 301 z "},"¥":{"ha":903,"x_min":56,"x_max":847,"o":"m 146 257 l 426 257 l 426 389 l 146 389 l 146 444 l 385 444 l 56 972 l 131 972 l 458 444 l 775 972 l 847 972 l 531 444 l 771 444 l 771 389 l 490 389 l 490 257 l 771 257 l 771 201 l 490 201 l 490 0 l 426 0 l 426 201 l 146 201 l 146 257 z "},"¦":{"ha":417,"x_min":178,"x_max":239,"o":"m 178 972 l 239 972 l 239 458 l 178 458 l 178 972 m 178 236 l 239 236 l 239 -278 l 178 -278 l 178 236 z "},"§":{"ha":667,"x_min":83,"x_max":583,"o":"m 333 -286 q 171 -231 233 -286 q 97 -83 108 -175 l 165 -83 q 217 -186 172 -149 q 333 -224 261 -224 q 459 -183 415 -224 q 503 -79 503 -143 q 472 1 503 -32 q 394 62 440 35 q 293 115 347 89 q 192 174 239 140 q 115 251 146 207 q 83 361 83 296 q 124 485 83 432 q 242 583 164 539 q 149 665 188 618 q 111 785 111 711 q 126 863 111 826 q 171 924 142 899 q 241 965 200 950 q 333 981 282 981 q 486 928 429 981 q 554 792 543 875 l 488 792 q 441 883 479 849 q 333 918 403 918 q 218 881 258 918 q 178 785 178 843 q 208 696 178 732 q 283 631 238 660 q 381 576 328 603 q 478 517 433 550 q 553 441 524 485 q 583 333 583 397 q 544 210 583 263 q 431 114 506 158 q 528 36 489 81 q 568 -79 568 -8 q 507 -228 568 -171 q 333 -286 446 -286 m 150 361 q 169 288 150 319 q 220 232 189 257 q 292 187 251 207 q 372 146 332 167 q 482 229 446 188 q 518 333 518 271 q 499 406 518 375 q 448 461 479 436 q 377 507 417 486 q 297 550 338 528 q 187 466 224 508 q 150 361 150 424 z "},"¨":{"ha":472,"x_min":49,"x_max":424,"o":"m 97 833 q 63 847 76 833 q 49 882 49 861 q 63 917 49 903 q 97 931 76 931 q 132 917 118 931 q 146 882 146 903 q 132 847 146 861 q 97 833 118 833 m 375 833 q 340 847 354 833 q 326 882 326 861 q 340 917 326 903 q 375 931 354 931 q 410 917 396 931 q 424 882 424 903 q 410 847 424 861 q 375 833 396 833 z "},"©":{"ha":1181,"x_min":93,"x_max":1088,"o":"m 590 -8 q 396 31 486 -8 q 238 136 306 69 q 132 293 171 203 q 93 486 93 383 q 132 678 93 588 q 238 835 171 768 q 397 942 306 903 q 590 981 488 981 q 785 942 694 981 q 943 836 876 903 q 1049 679 1010 769 q 1088 486 1088 589 q 1049 294 1088 383 q 942 137 1010 204 q 785 31 875 69 q 590 -8 694 -8 m 590 49 q 762 83 682 49 q 901 176 842 117 q 995 315 961 235 q 1029 486 1029 394 q 995 658 1029 578 q 901 797 961 738 q 762 890 842 856 q 590 924 682 924 q 419 890 499 924 q 281 797 340 856 q 187 658 221 738 q 153 486 153 578 q 187 315 153 394 q 281 176 221 235 q 419 83 340 117 q 590 49 499 49 m 590 200 q 425 267 489 200 q 361 458 361 335 l 361 514 q 378 623 361 575 q 426 704 396 671 q 498 755 456 738 q 590 772 540 772 q 673 759 636 772 q 737 725 710 746 q 781 676 764 704 q 804 619 797 649 l 744 619 q 692 687 731 656 q 590 718 654 718 q 467 666 515 718 q 419 514 419 614 l 419 458 q 468 307 419 360 q 590 254 517 254 q 695 287 657 254 q 747 368 733 319 l 804 368 q 780 303 797 333 q 735 249 763 272 q 672 213 708 226 q 590 200 635 200 z "},"ª":{"ha":486,"x_min":56,"x_max":417,"o":"m 201 519 q 92 553 129 519 q 56 646 56 588 q 101 752 56 714 q 257 790 146 790 l 358 790 l 358 819 q 333 899 358 874 q 250 925 307 925 q 174 906 197 925 q 144 854 150 886 l 83 854 q 129 945 89 910 q 250 981 169 981 q 417 819 417 981 l 417 528 l 372 528 l 364 608 q 297 543 339 567 q 201 519 254 519 m 201 575 q 264 587 235 575 q 314 619 293 599 q 347 665 335 639 q 358 722 358 692 l 358 738 l 257 738 q 148 713 178 738 q 118 646 118 689 q 140 594 118 614 q 201 575 161 575 z "},"«":{"ha":701,"x_min":76,"x_max":597,"o":"m 531 639 l 597 639 l 429 363 l 597 83 l 528 83 l 361 360 l 531 639 m 246 639 l 313 639 l 144 363 l 313 83 l 243 83 l 76 360 l 246 639 z "},"¬":{"ha":819,"x_min":111,"x_max":708,"o":"m 111 529 l 708 529 l 708 210 l 644 210 l 644 471 l 111 471 l 111 529 z "},"­":{"ha":625,"x_min":69,"x_max":556,"o":"m 69 389 l 556 389 l 556 333 l 69 333 l 69 389 z "},"®":{"ha":903,"x_min":58,"x_max":844,"o":"m 451 200 q 298 231 369 200 q 173 315 226 261 q 89 439 119 368 q 58 590 58 510 q 89 742 58 671 q 173 866 119 813 q 298 950 226 919 q 451 981 369 981 q 605 950 533 981 q 730 866 676 919 q 814 742 783 813 q 844 590 844 671 q 814 439 844 510 q 730 315 783 368 q 605 231 676 261 q 451 200 533 200 m 451 249 q 585 276 522 249 q 693 349 647 303 q 766 457 739 394 q 793 590 793 519 q 766 724 793 661 q 693 832 739 786 q 585 905 647 878 q 451 932 522 932 q 319 905 381 932 q 210 832 257 878 q 137 724 164 786 q 110 590 110 661 q 137 457 110 519 q 210 349 164 394 q 319 276 257 303 q 451 249 381 249 m 331 799 l 461 799 q 577 765 540 799 q 614 671 614 732 q 525 550 614 574 l 611 382 l 558 382 l 479 543 l 381 543 l 381 382 l 331 382 l 331 799 m 381 753 l 381 589 l 461 589 q 539 610 515 589 q 563 671 563 632 q 539 731 563 710 q 461 753 515 753 l 381 753 z "},"¯":{"ha":417,"x_min":28,"x_max":389,"o":"m 28 910 l 389 910 l 389 854 l 28 854 l 28 910 z "},"°":{"ha":500,"x_min":49,"x_max":451,"o":"m 250 576 q 172 592 208 576 q 108 635 135 608 q 65 699 81 663 q 49 778 49 736 q 65 857 49 819 q 108 922 81 894 q 172 965 135 949 q 250 981 208 981 q 328 965 292 981 q 392 922 365 949 q 435 857 419 894 q 451 778 451 819 q 435 699 451 736 q 392 635 419 663 q 328 592 365 608 q 250 576 292 576 m 250 631 q 306 642 279 631 q 352 674 332 654 q 383 721 372 694 q 394 778 394 747 q 383 835 394 808 q 352 883 372 863 q 306 915 332 903 q 250 926 279 926 q 194 915 221 926 q 149 883 168 903 q 117 835 129 863 q 106 778 106 808 q 117 721 106 747 q 149 674 129 694 q 194 642 168 654 q 250 631 221 631 z "},"±":{"ha":819,"x_min":111,"x_max":708,"o":"m 378 532 l 111 532 l 111 592 l 378 592 l 378 860 l 442 860 l 442 592 l 708 592 l 708 532 l 442 532 l 442 333 l 378 333 l 378 532 m 111 200 l 708 200 l 708 140 l 111 140 l 111 200 z "},"²":{"ha":493,"x_min":42,"x_max":438,"o":"m 42 581 l 267 801 q 322 861 301 835 q 355 909 343 888 q 371 950 367 931 q 375 990 375 969 q 339 1072 375 1039 q 240 1106 303 1106 q 142 1072 178 1106 q 106 990 106 1039 l 46 990 q 60 1056 46 1025 q 99 1110 74 1088 q 160 1147 124 1133 q 242 1161 196 1161 q 319 1147 283 1161 q 381 1110 356 1133 q 419 1056 406 1088 q 433 990 433 1025 q 427 938 433 963 q 406 886 421 913 q 367 830 392 860 q 306 764 343 800 l 118 581 l 438 581 l 438 528 l 42 528 l 42 581 z "},"³":{"ha":514,"x_min":42,"x_max":458,"o":"m 251 519 q 100 569 151 519 q 42 711 49 619 l 101 711 q 144 610 108 646 q 251 575 181 575 q 363 610 325 575 q 400 701 400 644 q 360 786 400 750 q 256 822 321 822 l 176 822 l 176 874 l 256 874 q 353 908 317 874 q 389 990 389 942 q 354 1074 389 1042 q 251 1106 319 1106 q 151 1073 185 1106 q 110 986 117 1040 l 51 986 q 108 1113 57 1064 q 251 1161 160 1161 q 397 1114 346 1161 q 449 996 449 1067 q 422 908 449 946 q 346 851 396 869 q 428 790 399 831 q 458 699 458 749 q 406 569 458 618 q 251 519 354 519 z "},"´":{"ha":347,"x_min":49,"x_max":299,"o":"m 213 993 l 299 993 l 118 785 l 49 785 l 213 993 z "},"µ":{"ha":792,"x_min":132,"x_max":660,"o":"m 132 694 l 193 694 l 193 271 q 244 105 193 160 q 383 50 296 50 q 469 67 429 50 q 538 113 508 83 q 583 182 567 142 q 599 271 599 222 l 599 694 l 660 694 l 660 0 l 610 0 l 603 122 q 511 26 571 60 q 375 -8 451 -8 q 271 13 317 -8 q 193 78 225 35 l 193 -278 l 132 -278 l 132 694 z "},"μ":{"ha":792,"x_min":132,"x_max":660,"o":"m 132 694 l 193 694 l 193 271 q 244 105 193 160 q 383 50 296 50 q 469 67 429 50 q 538 113 508 83 q 583 182 567 142 q 599 271 599 222 l 599 694 l 660 694 l 660 0 l 610 0 l 603 122 q 511 26 571 60 q 375 -8 451 -8 q 271 13 317 -8 q 193 78 225 35 l 193 -278 l 132 -278 l 132 694 z "},"¶":{"ha":917,"x_min":90,"x_max":868,"o":"m 365 363 q 257 394 307 368 q 170 461 207 421 q 112 554 133 501 q 90 667 90 607 q 115 785 90 729 q 181 882 139 840 q 278 948 222 924 q 396 972 333 972 l 868 972 l 868 913 l 744 913 l 744 -278 l 682 -278 l 682 913 l 428 913 l 428 -278 l 365 -278 l 365 363 z "},"·":{"ha":417,"x_min":149,"x_max":268,"o":"m 208 301 q 165 318 182 301 q 149 361 149 335 q 165 404 149 388 q 208 421 182 421 q 251 404 235 421 q 268 361 268 388 q 251 318 268 335 q 208 301 235 301 z "},"¸":{"ha":264,"x_min":28,"x_max":236,"o":"m 28 -225 l 104 -225 q 158 -210 142 -225 q 175 -164 175 -194 q 158 -118 175 -133 q 104 -103 142 -103 l 75 -103 l 107 14 l 163 14 l 144 -56 q 213 -90 189 -62 q 236 -161 236 -117 q 205 -246 236 -214 q 111 -278 174 -278 l 28 -278 l 28 -225 z "},"¹":{"ha":361,"x_min":42,"x_max":264,"o":"m 207 1089 l 42 982 l 42 1046 l 207 1153 l 264 1153 l 264 528 l 207 528 l 207 1089 z "},"º":{"ha":500,"x_min":49,"x_max":451,"o":"m 250 519 q 169 534 206 519 q 105 576 132 549 q 63 641 78 603 q 49 725 49 679 l 49 775 q 63 858 49 821 q 105 923 78 896 q 169 965 132 950 q 250 981 206 981 q 331 965 294 981 q 395 923 368 950 q 437 858 422 896 q 451 775 451 821 l 451 725 q 437 641 451 679 q 395 576 422 603 q 331 534 368 549 q 250 519 294 519 m 250 575 q 351 615 311 575 q 390 725 390 656 l 390 775 q 351 885 390 844 q 250 925 311 925 q 149 885 189 925 q 110 775 110 844 l 110 725 q 149 615 110 656 q 250 575 189 575 z "},"»":{"ha":701,"x_min":104,"x_max":625,"o":"m 171 83 l 104 83 l 272 360 l 104 639 l 174 639 l 340 363 l 171 83 m 456 83 l 389 83 l 557 360 l 389 639 l 458 639 l 625 363 l 456 83 z "},"¼":{"ha":1181,"x_min":83,"x_max":1097,"o":"m 843 972 l 910 972 l 338 0 l 271 0 l 843 972 m 236 910 l 83 813 l 83 876 l 236 972 l 292 972 l 292 417 l 236 417 l 236 910 m 963 136 l 681 136 l 681 186 l 940 557 l 1017 557 l 1017 186 l 1097 186 l 1097 136 l 1017 136 l 1017 1 l 963 1 l 963 136 m 963 186 l 963 503 l 742 186 l 963 186 z "},"½":{"ha":1222,"x_min":83,"x_max":1139,"o":"m 843 972 l 910 972 l 338 0 l 271 0 l 843 972 m 236 910 l 83 813 l 83 876 l 236 972 l 292 972 l 292 417 l 236 417 l 236 910 m 764 53 l 965 235 q 1023 290 1000 265 q 1059 333 1046 314 q 1077 371 1072 353 q 1082 408 1082 389 q 1049 482 1082 453 q 951 511 1015 511 q 854 482 886 511 q 822 408 822 453 l 764 408 q 811 522 764 478 q 951 565 858 565 q 1091 522 1043 565 q 1139 408 1139 478 q 1132 358 1139 382 q 1110 310 1125 335 q 1068 257 1094 285 q 1004 196 1042 229 l 842 53 l 1139 53 l 1139 1 l 764 1 l 764 53 z "},"¾":{"ha":1250,"x_min":83,"x_max":1167,"o":"m 913 972 l 979 972 l 407 0 l 340 0 l 913 972 m 1032 136 l 750 136 l 750 186 l 1010 557 l 1086 557 l 1086 186 l 1167 186 l 1167 136 l 1086 136 l 1086 1 l 1032 1 l 1032 136 m 1032 186 l 1032 503 l 811 186 l 1032 186 m 278 408 q 138 454 186 408 q 83 579 90 500 l 142 579 q 181 494 149 525 q 278 463 214 463 q 381 492 347 463 q 414 571 414 522 q 381 646 414 615 q 282 676 349 676 l 204 676 l 204 728 l 282 728 q 374 756 344 728 q 404 829 404 785 q 373 899 404 871 q 278 926 342 926 q 188 898 218 926 q 150 824 157 869 l 93 824 q 144 937 99 893 q 278 981 190 981 q 415 938 368 981 q 463 832 463 894 q 440 756 463 789 q 374 706 418 724 q 447 651 422 688 q 472 567 472 615 q 424 452 472 496 q 278 408 375 408 z "},"¿":{"ha":694,"x_min":63,"x_max":646,"o":"m 386 453 q 367 317 386 371 q 319 228 349 264 q 258 167 290 192 q 196 115 225 142 q 148 54 167 88 q 129 -35 129 19 q 185 -170 129 -118 q 354 -222 242 -222 q 516 -167 458 -222 q 579 -21 574 -112 l 646 -21 q 565 -214 640 -142 q 354 -286 489 -286 q 229 -268 283 -286 q 138 -217 175 -250 q 81 -137 100 -183 q 63 -35 63 -90 q 82 68 63 28 q 130 138 101 108 q 192 192 158 167 q 255 251 226 218 q 303 331 283 283 q 322 453 322 379 l 386 453 m 354 703 q 394 687 378 703 q 410 647 410 671 q 394 608 410 624 q 354 592 378 592 q 315 608 331 592 q 299 647 299 624 q 315 687 299 671 q 354 703 331 703 z "},"À":{"ha":917,"x_min":56,"x_max":861,"o":"m 417 972 l 500 972 l 861 0 l 792 0 l 683 297 l 232 297 l 122 0 l 56 0 l 417 972 m 661 356 l 460 908 l 457 908 l 253 356 l 661 356 m 250 1271 l 342 1271 l 514 1063 l 439 1063 l 250 1271 z "},"Á":{"ha":917,"x_min":56,"x_max":861,"o":"m 417 972 l 500 972 l 861 0 l 792 0 l 683 297 l 232 297 l 122 0 l 56 0 l 417 972 m 661 356 l 460 908 l 457 908 l 253 356 l 661 356 m 583 1271 l 672 1271 l 481 1063 l 408 1063 l 583 1271 z "},"Â":{"ha":917,"x_min":56,"x_max":861,"o":"m 417 972 l 500 972 l 861 0 l 792 0 l 683 297 l 232 297 l 122 0 l 56 0 l 417 972 m 661 356 l 460 908 l 457 908 l 253 356 l 661 356 m 424 1271 l 493 1271 l 667 1063 l 594 1063 l 458 1208 l 322 1063 l 250 1063 l 424 1271 z "},"Ã":{"ha":917,"x_min":56,"x_max":861,"o":"m 417 972 l 500 972 l 861 0 l 792 0 l 683 297 l 232 297 l 122 0 l 56 0 l 417 972 m 661 356 l 460 908 l 457 908 l 253 356 l 661 356 m 544 1083 q 482 1098 508 1083 q 435 1131 456 1113 q 394 1163 414 1149 q 350 1178 374 1178 q 281 1097 281 1178 l 225 1097 q 258 1201 225 1167 q 350 1236 292 1236 q 413 1222 386 1236 q 460 1189 439 1207 q 501 1156 481 1171 q 544 1142 521 1142 q 614 1222 614 1142 l 669 1222 q 636 1118 669 1153 q 544 1083 603 1083 z "},"Ä":{"ha":917,"x_min":56,"x_max":861,"o":"m 417 972 l 500 972 l 861 0 l 792 0 l 683 297 l 232 297 l 122 0 l 56 0 l 417 972 m 661 356 l 460 908 l 457 908 l 253 356 l 661 356 m 307 1110 q 271 1124 285 1110 q 257 1160 257 1138 q 271 1196 257 1182 q 307 1210 285 1210 q 343 1196 329 1210 q 357 1160 357 1182 q 343 1124 357 1138 q 307 1110 329 1110 m 610 1110 q 574 1124 588 1110 q 560 1160 560 1138 q 574 1196 560 1182 q 610 1210 588 1210 q 646 1196 632 1210 q 660 1160 660 1182 q 646 1124 660 1138 q 610 1110 632 1110 z "},"Å":{"ha":917,"x_min":56,"x_max":861,"o":"m 417 972 l 500 972 l 861 0 l 792 0 l 683 297 l 232 297 l 122 0 l 56 0 l 417 972 m 661 356 l 460 908 l 457 908 l 253 356 l 661 356 m 458 1024 q 359 1063 399 1024 q 319 1160 319 1101 q 359 1257 319 1218 q 458 1296 399 1296 q 558 1257 518 1296 q 597 1160 597 1218 q 558 1063 597 1101 q 458 1024 518 1024 m 458 1082 q 517 1104 494 1082 q 539 1160 539 1126 q 517 1215 539 1193 q 458 1238 494 1238 q 400 1215 422 1238 q 378 1160 378 1193 q 400 1104 378 1126 q 458 1082 422 1082 z "},"Æ":{"ha":1292,"x_min":42,"x_max":1215,"o":"m 625 972 l 1215 972 l 1215 914 l 717 914 l 717 529 l 1132 529 l 1132 471 l 717 471 l 717 58 l 1215 58 l 1215 0 l 653 0 l 653 297 l 292 297 l 114 0 l 42 0 l 625 972 m 653 356 l 653 903 l 326 356 l 653 356 z "},"Ç":{"ha":931,"x_min":104,"x_max":840,"o":"m 382 -222 l 458 -222 q 526 -164 526 -222 q 458 -106 526 -106 l 429 -106 l 454 -7 q 313 31 378 -1 q 202 122 249 64 q 130 262 156 179 q 104 451 104 344 l 104 535 q 133 724 104 640 q 213 864 161 807 q 334 951 264 921 q 486 981 404 981 q 622 959 561 981 q 728 900 683 938 q 801 813 774 863 q 840 708 829 764 l 776 708 q 742 790 765 751 q 683 858 719 829 q 597 905 646 888 q 486 922 549 922 q 360 897 418 922 q 260 823 303 872 q 194 701 218 774 q 171 535 171 629 l 171 451 q 194 276 171 351 q 260 151 218 201 q 360 76 303 101 q 486 50 418 50 q 597 67 549 50 q 683 115 646 85 q 742 188 719 146 q 776 278 765 229 l 840 278 q 804 169 831 219 q 736 82 778 119 q 638 21 694 44 q 513 -7 582 -3 l 500 -56 q 590 -161 590 -68 q 559 -246 590 -214 q 465 -278 528 -278 l 382 -278 l 382 -222 z "},"È":{"ha":778,"x_min":139,"x_max":701,"o":"m 139 972 l 701 972 l 701 914 l 203 914 l 203 529 l 618 529 l 618 471 l 203 471 l 203 58 l 701 58 l 701 0 l 139 0 l 139 972 m 213 1271 l 304 1271 l 476 1063 l 401 1063 l 213 1271 z "},"É":{"ha":778,"x_min":139,"x_max":701,"o":"m 139 972 l 701 972 l 701 914 l 203 914 l 203 529 l 618 529 l 618 471 l 203 471 l 203 58 l 701 58 l 701 0 l 139 0 l 139 972 m 546 1271 l 635 1271 l 443 1063 l 371 1063 l 546 1271 z "},"Ê":{"ha":778,"x_min":139,"x_max":701,"o":"m 139 972 l 701 972 l 701 914 l 203 914 l 203 529 l 618 529 l 618 471 l 203 471 l 203 58 l 701 58 l 701 0 l 139 0 l 139 972 m 386 1271 l 456 1271 l 629 1063 l 557 1063 l 421 1208 l 285 1063 l 213 1063 l 386 1271 z "},"Ë":{"ha":778,"x_min":139,"x_max":701,"o":"m 139 972 l 701 972 l 701 914 l 203 914 l 203 529 l 618 529 l 618 471 l 203 471 l 203 58 l 701 58 l 701 0 l 139 0 l 139 972 m 269 1110 q 233 1124 247 1110 q 219 1160 219 1138 q 233 1196 219 1182 q 269 1210 247 1210 q 306 1196 292 1210 q 319 1160 319 1182 q 306 1124 319 1138 q 269 1110 292 1110 m 572 1110 q 536 1124 550 1110 q 522 1160 522 1138 q 536 1196 522 1182 q 572 1210 550 1210 q 608 1196 594 1210 q 622 1160 622 1182 q 608 1124 622 1138 q 572 1110 594 1110 z "},"Ì":{"ha":375,"x_min":-19,"x_max":244,"o":"m 156 972 l 219 972 l 219 0 l 156 0 l 156 972 m -19 1271 l 72 1271 l 244 1063 l 169 1063 l -19 1271 z "},"Í":{"ha":375,"x_min":138,"x_max":401,"o":"m 156 972 l 219 972 l 219 0 l 156 0 l 156 972 m 313 1271 l 401 1271 l 210 1063 l 138 1063 l 313 1271 z "},"Î":{"ha":375,"x_min":-19,"x_max":397,"o":"m 156 972 l 219 972 l 219 0 l 156 0 l 156 972 m 154 1271 l 224 1271 l 397 1063 l 325 1063 l 189 1208 l 53 1063 l -19 1063 l 154 1271 z "},"Ï":{"ha":375,"x_min":-12,"x_max":390,"o":"m 156 972 l 219 972 l 219 0 l 156 0 l 156 972 m 38 1110 q 1 1124 15 1110 q -12 1160 -12 1138 q 1 1196 -12 1182 q 38 1210 15 1210 q 74 1196 60 1210 q 88 1160 88 1182 q 74 1124 88 1138 q 38 1110 60 1110 m 340 1110 q 304 1124 318 1110 q 290 1160 290 1138 q 304 1196 290 1182 q 340 1210 318 1210 q 376 1196 363 1210 q 390 1160 390 1182 q 376 1124 390 1138 q 340 1110 363 1110 z "},"Ð":{"ha":972,"x_min":42,"x_max":868,"o":"m 167 458 l 42 458 l 42 514 l 167 514 l 167 972 l 451 972 q 759 860 650 972 q 868 533 868 749 l 868 453 q 758 115 868 229 q 451 0 649 0 l 167 0 l 167 458 m 444 58 q 710 155 618 58 q 801 453 801 251 l 801 533 q 709 819 801 724 q 444 914 617 914 l 231 914 l 231 514 l 514 514 l 514 458 l 231 458 l 231 58 l 444 58 z "},"Ñ":{"ha":986,"x_min":139,"x_max":847,"o":"m 139 972 l 239 972 l 781 78 l 783 78 l 783 972 l 847 972 l 847 0 l 753 0 l 206 903 l 203 903 l 203 0 l 139 0 l 139 972 m 579 1083 q 517 1098 543 1083 q 469 1131 490 1113 q 428 1163 449 1149 q 385 1178 408 1178 q 315 1097 315 1178 l 260 1097 q 293 1201 260 1167 q 385 1236 326 1236 q 447 1222 421 1236 q 494 1189 474 1207 q 535 1156 515 1171 q 579 1142 556 1142 q 649 1222 649 1142 l 704 1222 q 671 1118 704 1153 q 579 1083 638 1083 z "},"Ò":{"ha":986,"x_min":104,"x_max":882,"o":"m 493 -8 q 336 22 407 -8 q 213 110 265 51 q 133 253 161 168 q 104 451 104 339 l 104 535 q 133 724 104 640 q 214 864 163 807 q 337 951 265 921 q 493 981 408 981 q 649 951 578 981 q 773 864 721 921 q 853 724 825 807 q 882 535 882 642 l 882 451 q 853 254 882 340 q 772 110 824 168 q 649 22 721 51 q 493 -8 578 -8 m 493 53 q 622 78 563 53 q 724 154 681 104 q 791 278 767 204 q 815 451 815 353 l 815 535 q 791 699 815 628 q 724 820 767 771 q 622 894 681 869 q 493 919 563 919 q 365 894 424 919 q 263 820 306 869 q 195 699 219 771 q 171 535 171 628 l 171 451 q 195 278 171 353 q 263 154 219 204 q 365 78 306 104 q 493 53 424 53 m 285 1271 l 376 1271 l 549 1063 l 474 1063 l 285 1271 z "},"Ó":{"ha":986,"x_min":104,"x_max":882,"o":"m 493 -8 q 336 22 407 -8 q 213 110 265 51 q 133 253 161 168 q 104 451 104 339 l 104 535 q 133 724 104 640 q 214 864 163 807 q 337 951 265 921 q 493 981 408 981 q 649 951 578 981 q 773 864 721 921 q 853 724 825 807 q 882 535 882 642 l 882 451 q 853 254 882 340 q 772 110 824 168 q 649 22 721 51 q 493 -8 578 -8 m 493 53 q 622 78 563 53 q 724 154 681 104 q 791 278 767 204 q 815 451 815 353 l 815 535 q 791 699 815 628 q 724 820 767 771 q 622 894 681 869 q 493 919 563 919 q 365 894 424 919 q 263 820 306 869 q 195 699 219 771 q 171 535 171 628 l 171 451 q 195 278 171 353 q 263 154 219 204 q 365 78 306 104 q 493 53 424 53 m 618 1271 l 707 1271 l 515 1063 l 443 1063 l 618 1271 z "},"Ô":{"ha":986,"x_min":104,"x_max":882,"o":"m 493 -8 q 336 22 407 -8 q 213 110 265 51 q 133 253 161 168 q 104 451 104 339 l 104 535 q 133 724 104 640 q 214 864 163 807 q 337 951 265 921 q 493 981 408 981 q 649 951 578 981 q 773 864 721 921 q 853 724 825 807 q 882 535 882 642 l 882 451 q 853 254 882 340 q 772 110 824 168 q 649 22 721 51 q 493 -8 578 -8 m 493 53 q 622 78 563 53 q 724 154 681 104 q 791 278 767 204 q 815 451 815 353 l 815 535 q 791 699 815 628 q 724 820 767 771 q 622 894 681 869 q 493 919 563 919 q 365 894 424 919 q 263 820 306 869 q 195 699 219 771 q 171 535 171 628 l 171 451 q 195 278 171 353 q 263 154 219 204 q 365 78 306 104 q 493 53 424 53 m 458 1271 l 528 1271 l 701 1063 l 629 1063 l 493 1208 l 357 1063 l 285 1063 l 458 1271 z "},"Õ":{"ha":986,"x_min":104,"x_max":882,"o":"m 493 -8 q 336 22 407 -8 q 213 110 265 51 q 133 253 161 168 q 104 451 104 339 l 104 535 q 133 724 104 640 q 214 864 163 807 q 337 951 265 921 q 493 981 408 981 q 649 951 578 981 q 773 864 721 921 q 853 724 825 807 q 882 535 882 642 l 882 451 q 853 254 882 340 q 772 110 824 168 q 649 22 721 51 q 493 -8 578 -8 m 493 53 q 622 78 563 53 q 724 154 681 104 q 791 278 767 204 q 815 451 815 353 l 815 535 q 791 699 815 628 q 724 820 767 771 q 622 894 681 869 q 493 919 563 919 q 365 894 424 919 q 263 820 306 869 q 195 699 219 771 q 171 535 171 628 l 171 451 q 195 278 171 353 q 263 154 219 204 q 365 78 306 104 q 493 53 424 53 m 579 1083 q 517 1098 543 1083 q 469 1131 490 1113 q 428 1163 449 1149 q 385 1178 408 1178 q 315 1097 315 1178 l 260 1097 q 293 1201 260 1167 q 385 1236 326 1236 q 447 1222 421 1236 q 494 1189 474 1207 q 535 1156 515 1171 q 579 1142 556 1142 q 649 1222 649 1142 l 704 1222 q 671 1118 704 1153 q 579 1083 638 1083 z "},"Ö":{"ha":986,"x_min":104,"x_max":882,"o":"m 493 -8 q 336 22 407 -8 q 213 110 265 51 q 133 253 161 168 q 104 451 104 339 l 104 535 q 133 724 104 640 q 214 864 163 807 q 337 951 265 921 q 493 981 408 981 q 649 951 578 981 q 773 864 721 921 q 853 724 825 807 q 882 535 882 642 l 882 451 q 853 254 882 340 q 772 110 824 168 q 649 22 721 51 q 493 -8 578 -8 m 493 53 q 622 78 563 53 q 724 154 681 104 q 791 278 767 204 q 815 451 815 353 l 815 535 q 791 699 815 628 q 724 820 767 771 q 622 894 681 869 q 493 919 563 919 q 365 894 424 919 q 263 820 306 869 q 195 699 219 771 q 171 535 171 628 l 171 451 q 195 278 171 353 q 263 154 219 204 q 365 78 306 104 q 493 53 424 53 m 342 1110 q 306 1124 319 1110 q 292 1160 292 1138 q 306 1196 292 1182 q 342 1210 319 1210 q 378 1196 364 1210 q 392 1160 392 1182 q 378 1124 392 1138 q 342 1110 364 1110 m 644 1110 q 608 1124 622 1110 q 594 1160 594 1138 q 608 1196 594 1182 q 644 1210 622 1210 q 681 1196 667 1210 q 694 1160 694 1182 q 681 1124 694 1138 q 644 1110 667 1110 z "},"×":{"ha":819,"x_min":174,"x_max":646,"o":"m 174 307 l 367 500 l 174 693 l 217 736 l 410 543 l 603 736 l 646 693 l 453 500 l 646 307 l 603 264 l 410 457 l 217 264 l 174 307 z "},"Ø":{"ha":986,"x_min":104,"x_max":882,"o":"m 493 -8 q 226 94 329 -8 l 147 -8 l 104 26 l 190 139 q 127 274 150 197 q 104 451 104 351 l 104 535 q 133 724 104 640 q 214 864 163 807 q 337 951 265 921 q 493 981 408 981 q 641 954 574 981 q 760 878 708 928 l 839 981 l 882 946 l 797 835 q 860 704 838 779 q 882 535 882 629 l 882 451 q 853 254 882 340 q 772 110 824 168 q 649 22 721 51 q 493 -8 578 -8 m 719 825 q 619 896 676 872 q 493 919 561 919 q 365 894 424 919 q 263 820 306 869 q 195 699 219 771 q 171 535 171 628 l 171 451 q 188 307 171 371 q 233 194 204 243 l 719 825 m 493 53 q 622 78 563 53 q 724 154 681 104 q 791 278 767 204 q 815 451 815 353 l 815 535 q 799 671 815 610 q 754 779 783 732 l 268 149 q 493 53 356 53 z "},"Ù":{"ha":958,"x_min":132,"x_max":826,"o":"m 479 -8 q 225 88 318 -8 q 132 368 132 185 l 132 972 l 196 972 l 196 375 q 272 131 196 211 q 479 50 347 50 q 688 131 613 50 q 763 375 763 211 l 763 972 l 826 972 l 826 368 q 733 89 826 186 q 479 -8 639 -8 m 271 1271 l 363 1271 l 535 1063 l 460 1063 l 271 1271 z "},"Ú":{"ha":958,"x_min":132,"x_max":826,"o":"m 479 -8 q 225 88 318 -8 q 132 368 132 185 l 132 972 l 196 972 l 196 375 q 272 131 196 211 q 479 50 347 50 q 688 131 613 50 q 763 375 763 211 l 763 972 l 826 972 l 826 368 q 733 89 826 186 q 479 -8 639 -8 m 604 1271 l 693 1271 l 501 1063 l 429 1063 l 604 1271 z "},"Û":{"ha":958,"x_min":132,"x_max":826,"o":"m 479 -8 q 225 88 318 -8 q 132 368 132 185 l 132 972 l 196 972 l 196 375 q 272 131 196 211 q 479 50 347 50 q 688 131 613 50 q 763 375 763 211 l 763 972 l 826 972 l 826 368 q 733 89 826 186 q 479 -8 639 -8 m 444 1271 l 514 1271 l 688 1063 l 615 1063 l 479 1208 l 343 1063 l 271 1063 l 444 1271 z "},"Ü":{"ha":958,"x_min":132,"x_max":826,"o":"m 479 -8 q 225 88 318 -8 q 132 368 132 185 l 132 972 l 196 972 l 196 375 q 272 131 196 211 q 479 50 347 50 q 688 131 613 50 q 763 375 763 211 l 763 972 l 826 972 l 826 368 q 733 89 826 186 q 479 -8 639 -8 m 328 1110 q 292 1124 306 1110 q 278 1160 278 1138 q 292 1196 278 1182 q 328 1210 306 1210 q 364 1196 350 1210 q 378 1160 378 1182 q 364 1124 378 1138 q 328 1110 350 1110 m 631 1110 q 594 1124 608 1110 q 581 1160 581 1138 q 594 1196 581 1182 q 631 1210 608 1210 q 667 1196 653 1210 q 681 1160 681 1182 q 667 1124 681 1138 q 631 1110 653 1110 z "},"Ý":{"ha":903,"x_min":56,"x_max":847,"o":"m 433 368 l 56 972 l 131 972 l 465 433 l 775 972 l 847 972 l 497 368 l 497 0 l 433 0 l 433 368 m 578 1271 l 667 1271 l 475 1063 l 403 1063 l 578 1271 z "},"Þ":{"ha":833,"x_min":139,"x_max":764,"o":"m 139 972 l 203 972 l 203 794 l 438 794 q 683 717 601 794 q 764 500 764 640 q 682 283 764 361 q 438 206 600 206 l 203 206 l 203 0 l 139 0 l 139 972 m 203 736 l 203 264 l 431 264 q 634 323 571 264 q 697 500 697 382 q 633 676 697 615 q 431 736 569 736 l 203 736 z "},"ß":{"ha":778,"x_min":132,"x_max":688,"o":"m 132 701 q 152 816 132 764 q 208 904 172 868 q 294 960 244 940 q 403 981 343 981 q 510 963 463 981 q 590 914 557 946 q 642 838 624 882 q 660 739 660 793 q 528 521 660 583 l 528 518 q 649 439 611 494 q 688 292 688 383 l 688 250 q 621 65 688 129 q 424 0 554 0 l 326 0 l 326 56 l 417 56 q 572 106 521 56 q 624 250 624 156 l 624 292 q 572 436 624 386 q 417 486 521 486 l 326 486 l 326 542 l 403 542 q 544 593 492 542 q 596 732 596 644 q 544 873 596 821 q 403 925 492 925 q 251 864 310 925 q 193 694 193 803 l 193 0 l 132 0 l 132 701 z "},"à":{"ha":736,"x_min":83,"x_max":611,"o":"m 306 -8 q 139 44 194 -8 q 83 186 83 96 q 148 339 83 282 q 354 396 213 396 l 550 396 l 550 458 q 505 599 550 554 q 361 644 460 644 q 232 611 276 644 q 182 528 188 578 l 118 528 q 137 592 121 561 q 183 649 153 624 q 258 688 214 674 q 361 703 303 703 q 549 643 488 703 q 611 465 611 583 l 611 0 l 561 0 l 551 132 l 549 132 q 448 28 513 65 q 306 -8 383 -8 m 306 50 q 406 67 361 50 q 483 117 451 85 q 533 193 515 149 q 550 292 550 238 l 550 340 l 361 340 q 197 299 246 340 q 147 186 147 257 q 187 87 147 124 q 306 50 226 50 m 160 993 l 249 993 l 410 785 l 338 785 l 160 993 z "},"á":{"ha":736,"x_min":83,"x_max":611,"o":"m 306 -8 q 139 44 194 -8 q 83 186 83 96 q 148 339 83 282 q 354 396 213 396 l 550 396 l 550 458 q 505 599 550 554 q 361 644 460 644 q 232 611 276 644 q 182 528 188 578 l 118 528 q 137 592 121 561 q 183 649 153 624 q 258 688 214 674 q 361 703 303 703 q 549 643 488 703 q 611 465 611 583 l 611 0 l 561 0 l 551 132 l 549 132 q 448 28 513 65 q 306 -8 383 -8 m 306 50 q 406 67 361 50 q 483 117 451 85 q 533 193 515 149 q 550 292 550 238 l 550 340 l 361 340 q 197 299 246 340 q 147 186 147 257 q 187 87 147 124 q 306 50 226 50 m 476 993 l 563 993 l 382 785 l 313 785 l 476 993 z "},"â":{"ha":736,"x_min":83,"x_max":611,"o":"m 306 -8 q 139 44 194 -8 q 83 186 83 96 q 148 339 83 282 q 354 396 213 396 l 550 396 l 550 458 q 505 599 550 554 q 361 644 460 644 q 232 611 276 644 q 182 528 188 578 l 118 528 q 137 592 121 561 q 183 649 153 624 q 258 688 214 674 q 361 703 303 703 q 549 643 488 703 q 611 465 611 583 l 611 0 l 561 0 l 551 132 l 549 132 q 448 28 513 65 q 306 -8 383 -8 m 306 50 q 406 67 361 50 q 483 117 451 85 q 533 193 515 149 q 550 292 550 238 l 550 340 l 361 340 q 197 299 246 340 q 147 186 147 257 q 187 87 147 124 q 306 50 226 50 m 324 993 l 399 993 l 563 785 l 493 785 l 361 938 l 229 785 l 160 785 l 324 993 z "},"ã":{"ha":736,"x_min":83,"x_max":611,"o":"m 306 -8 q 139 44 194 -8 q 83 186 83 96 q 148 339 83 282 q 354 396 213 396 l 550 396 l 550 458 q 505 599 550 554 q 361 644 460 644 q 232 611 276 644 q 182 528 188 578 l 118 528 q 137 592 121 561 q 183 649 153 624 q 258 688 214 674 q 361 703 303 703 q 549 643 488 703 q 611 465 611 583 l 611 0 l 561 0 l 551 132 l 549 132 q 448 28 513 65 q 306 -8 383 -8 m 306 50 q 406 67 361 50 q 483 117 451 85 q 533 193 515 149 q 550 292 550 238 l 550 340 l 361 340 q 197 299 246 340 q 147 186 147 257 q 187 87 147 124 q 306 50 226 50 m 451 806 q 393 821 418 806 q 349 854 368 836 q 310 888 329 872 q 271 903 292 903 q 224 883 242 903 q 206 819 206 863 l 153 819 q 185 924 153 889 q 271 958 218 958 q 328 943 304 958 q 372 910 353 928 q 410 876 392 892 q 451 861 429 861 q 499 881 481 861 q 517 944 517 901 l 569 944 q 537 840 569 875 q 451 806 504 806 z "},"ä":{"ha":736,"x_min":83,"x_max":611,"o":"m 306 -8 q 139 44 194 -8 q 83 186 83 96 q 148 339 83 282 q 354 396 213 396 l 550 396 l 550 458 q 505 599 550 554 q 361 644 460 644 q 232 611 276 644 q 182 528 188 578 l 118 528 q 137 592 121 561 q 183 649 153 624 q 258 688 214 674 q 361 703 303 703 q 549 643 488 703 q 611 465 611 583 l 611 0 l 561 0 l 551 132 l 549 132 q 448 28 513 65 q 306 -8 383 -8 m 306 50 q 406 67 361 50 q 483 117 451 85 q 533 193 515 149 q 550 292 550 238 l 550 340 l 361 340 q 197 299 246 340 q 147 186 147 257 q 187 87 147 124 q 306 50 226 50 m 222 833 q 188 847 201 833 q 174 882 174 861 q 188 917 174 903 q 222 931 201 931 q 257 917 243 931 q 271 882 271 903 q 257 847 271 861 q 222 833 243 833 m 500 833 q 465 847 479 833 q 451 882 451 861 q 465 917 451 903 q 500 931 479 931 q 535 917 521 931 q 549 882 549 903 q 535 847 549 861 q 500 833 521 833 z "},"å":{"ha":736,"x_min":83,"x_max":611,"o":"m 306 -8 q 139 44 194 -8 q 83 186 83 96 q 148 339 83 282 q 354 396 213 396 l 550 396 l 550 458 q 505 599 550 554 q 361 644 460 644 q 232 611 276 644 q 182 528 188 578 l 118 528 q 137 592 121 561 q 183 649 153 624 q 258 688 214 674 q 361 703 303 703 q 549 643 488 703 q 611 465 611 583 l 611 0 l 561 0 l 551 132 l 549 132 q 448 28 513 65 q 306 -8 383 -8 m 306 50 q 406 67 361 50 q 483 117 451 85 q 533 193 515 149 q 550 292 550 238 l 550 340 l 361 340 q 197 299 246 340 q 147 186 147 257 q 187 87 147 124 q 306 50 226 50 m 361 746 q 262 785 301 746 q 222 882 222 824 q 262 979 222 940 q 361 1018 301 1018 q 460 979 421 1018 q 500 882 500 940 q 460 785 500 824 q 361 746 421 746 m 361 801 q 422 824 399 801 q 444 882 444 846 q 422 940 444 918 q 361 963 399 963 q 301 940 324 963 q 278 882 278 918 q 301 824 278 846 q 361 801 324 801 z "},"æ":{"ha":1188,"x_min":83,"x_max":1097,"o":"m 292 -8 q 138 44 192 -8 q 83 186 83 96 q 149 334 83 279 q 369 389 215 389 l 536 389 l 536 472 q 494 603 536 561 q 361 644 453 644 q 233 609 274 644 q 186 514 192 574 l 125 514 q 188 651 131 599 q 361 703 246 703 q 583 569 539 703 q 680 668 619 633 q 815 703 740 703 q 930 681 878 703 q 1019 619 982 660 q 1076 519 1056 579 q 1097 382 1097 458 l 1097 333 l 597 333 q 615 211 597 264 q 661 122 632 158 q 730 68 690 86 q 815 50 769 50 q 955 88 908 50 q 1022 194 1001 126 l 1086 194 q 1000 48 1065 104 q 815 -8 935 -8 q 660 40 728 -8 q 561 174 593 88 q 457 41 529 90 q 292 -8 385 -8 m 815 644 q 728 627 768 644 q 658 577 688 610 q 613 497 629 544 q 597 389 597 449 l 1033 389 q 970 580 1031 515 q 815 644 910 644 m 292 50 q 379 67 338 50 q 454 113 421 83 q 509 183 488 142 q 536 272 531 224 l 536 333 l 369 333 q 267 322 308 333 q 198 292 225 311 q 159 245 171 272 q 147 186 147 218 q 185 87 147 124 q 292 50 222 50 z "},"ç":{"ha":701,"x_min":90,"x_max":632,"o":"m 271 -225 l 347 -225 q 401 -210 385 -225 q 418 -164 418 -194 q 401 -118 418 -133 q 347 -103 385 -103 l 318 -103 l 344 -7 q 159 87 228 3 q 90 326 90 171 l 90 382 q 111 518 90 458 q 169 619 132 578 q 260 681 207 660 q 375 703 313 703 q 474 688 431 703 q 551 646 518 672 q 603 585 583 619 q 632 514 624 551 l 568 514 q 506 608 553 568 q 375 647 458 647 q 288 630 328 647 q 217 578 247 613 q 171 495 188 544 q 154 382 154 446 l 154 326 q 171 205 154 257 q 217 118 188 153 q 288 65 247 83 q 375 47 328 47 q 506 88 458 47 q 568 194 553 129 l 632 194 q 606 119 625 154 q 558 58 588 85 q 490 14 529 31 q 400 -7 450 -3 l 388 -56 q 456 -90 432 -62 q 479 -161 479 -117 q 448 -246 479 -214 q 354 -278 417 -278 l 271 -278 l 271 -225 z "},"è":{"ha":750,"x_min":90,"x_max":660,"o":"m 382 -8 q 263 13 317 -8 q 170 76 208 35 q 111 179 132 118 q 90 319 90 240 l 90 375 q 111 515 90 454 q 170 618 132 576 q 260 681 208 660 q 375 703 313 703 q 490 681 438 703 q 581 617 543 660 q 639 513 618 575 q 660 368 660 450 l 660 333 l 154 333 q 210 121 154 194 q 375 47 267 47 q 512 81 458 47 q 589 181 565 115 l 653 181 q 556 41 626 90 q 382 -8 486 -8 m 375 647 q 217 582 278 647 q 154 389 157 517 l 596 389 q 533 583 593 519 q 375 647 474 647 m 174 993 l 263 993 l 424 785 l 351 785 l 174 993 z "},"é":{"ha":750,"x_min":90,"x_max":660,"o":"m 382 -8 q 263 13 317 -8 q 170 76 208 35 q 111 179 132 118 q 90 319 90 240 l 90 375 q 111 515 90 454 q 170 618 132 576 q 260 681 208 660 q 375 703 313 703 q 490 681 438 703 q 581 617 543 660 q 639 513 618 575 q 660 368 660 450 l 660 333 l 154 333 q 210 121 154 194 q 375 47 267 47 q 512 81 458 47 q 589 181 565 115 l 653 181 q 556 41 626 90 q 382 -8 486 -8 m 375 647 q 217 582 278 647 q 154 389 157 517 l 596 389 q 533 583 593 519 q 375 647 474 647 m 490 993 l 576 993 l 396 785 l 326 785 l 490 993 z "},"ê":{"ha":750,"x_min":90,"x_max":660,"o":"m 382 -8 q 263 13 317 -8 q 170 76 208 35 q 111 179 132 118 q 90 319 90 240 l 90 375 q 111 515 90 454 q 170 618 132 576 q 260 681 208 660 q 375 703 313 703 q 490 681 438 703 q 581 617 543 660 q 639 513 618 575 q 660 368 660 450 l 660 333 l 154 333 q 210 121 154 194 q 375 47 267 47 q 512 81 458 47 q 589 181 565 115 l 653 181 q 556 41 626 90 q 382 -8 486 -8 m 375 647 q 217 582 278 647 q 154 389 157 517 l 596 389 q 533 583 593 519 q 375 647 474 647 m 338 993 l 413 993 l 576 785 l 507 785 l 375 938 l 243 785 l 174 785 l 338 993 z "},"ë":{"ha":750,"x_min":90,"x_max":660,"o":"m 382 -8 q 263 13 317 -8 q 170 76 208 35 q 111 179 132 118 q 90 319 90 240 l 90 375 q 111 515 90 454 q 170 618 132 576 q 260 681 208 660 q 375 703 313 703 q 490 681 438 703 q 581 617 543 660 q 639 513 618 575 q 660 368 660 450 l 660 333 l 154 333 q 210 121 154 194 q 375 47 267 47 q 512 81 458 47 q 589 181 565 115 l 653 181 q 556 41 626 90 q 382 -8 486 -8 m 375 647 q 217 582 278 647 q 154 389 157 517 l 596 389 q 533 583 593 519 q 375 647 474 647 m 236 833 q 201 847 215 833 q 188 882 188 861 q 201 917 188 903 q 236 931 215 931 q 271 917 257 931 q 285 882 285 903 q 271 847 285 861 q 236 833 257 833 m 514 833 q 479 847 493 833 q 465 882 465 861 q 479 917 465 903 q 514 931 493 931 q 549 917 535 931 q 563 882 563 903 q 549 847 563 861 q 514 833 535 833 z "},"ì":{"ha":356,"x_min":-22,"x_max":228,"o":"m 147 694 l 208 694 l 208 0 l 147 0 l 147 694 m -22 993 l 67 993 l 228 785 l 156 785 l -22 993 z "},"í":{"ha":356,"x_min":129,"x_max":379,"o":"m 147 694 l 208 694 l 208 0 l 147 0 l 147 694 m 293 993 l 379 993 l 199 785 l 129 785 l 293 993 z "},"î":{"ha":356,"x_min":-22,"x_max":381,"o":"m 147 694 l 208 694 l 208 0 l 147 0 l 147 694 m 142 993 l 217 993 l 381 785 l 311 785 l 179 938 l 47 785 l -22 785 l 142 993 z "},"ï":{"ha":356,"x_min":-8,"x_max":367,"o":"m 147 694 l 208 694 l 208 0 l 147 0 l 147 694 m 40 833 q 6 847 19 833 q -8 882 -8 861 q 6 917 -8 903 q 40 931 19 931 q 75 917 61 931 q 89 882 89 903 q 75 847 89 861 q 40 833 61 833 m 318 833 q 283 847 297 833 q 269 882 269 861 q 283 917 269 903 q 318 931 297 931 q 353 917 339 931 q 367 882 367 903 q 353 847 367 861 q 318 833 339 833 z "},"ð":{"ha":757,"x_min":90,"x_max":660,"o":"m 375 -8 q 263 14 315 -8 q 173 76 211 36 q 113 173 135 117 q 90 299 90 229 l 90 368 q 112 492 90 436 q 171 590 133 549 q 258 653 208 631 q 365 675 308 675 q 469 654 422 675 q 553 594 517 633 q 477 716 522 657 q 378 831 432 775 l 243 758 l 243 807 l 347 863 q 285 919 317 892 q 222 972 254 946 l 306 972 q 351 933 329 953 q 397 890 374 913 l 521 956 l 521 908 l 429 858 q 517 756 475 810 q 591 640 560 701 q 641 510 622 578 q 660 368 660 443 l 660 299 q 638 174 660 231 q 577 77 615 118 q 487 14 539 36 q 375 -8 435 -8 m 154 299 q 172 196 154 242 q 219 117 189 150 q 289 67 249 85 q 375 50 329 50 q 461 67 421 50 q 531 117 501 85 q 578 195 561 149 q 596 299 596 242 l 596 368 q 578 469 596 424 q 531 546 561 514 q 461 595 501 578 q 375 613 421 613 q 289 595 329 613 q 219 546 249 578 q 172 469 189 514 q 154 368 154 424 l 154 299 z "},"ñ":{"ha":799,"x_min":132,"x_max":674,"o":"m 132 694 l 182 694 l 190 576 l 193 576 q 287 670 229 638 q 415 703 344 703 q 606 633 538 703 q 674 431 674 564 l 674 0 l 613 0 l 613 424 q 560 592 613 538 q 410 647 508 647 q 322 631 361 647 q 253 586 282 615 q 209 515 225 557 q 193 424 193 474 l 193 0 l 132 0 l 132 694 m 493 806 q 435 821 460 806 q 390 854 410 836 q 352 888 371 872 q 313 903 333 903 q 265 883 283 903 q 247 819 247 863 l 194 819 q 227 924 194 889 q 313 958 260 958 q 370 943 346 958 q 414 910 394 928 q 452 876 433 892 q 493 861 471 861 q 540 881 522 861 q 558 944 558 901 l 611 944 q 578 840 611 875 q 493 806 546 806 z "},"ò":{"ha":764,"x_min":90,"x_max":674,"o":"m 382 -8 q 263 13 317 -8 q 170 76 208 35 q 111 179 132 118 q 90 319 90 240 l 90 375 q 111 515 90 454 q 171 618 132 576 q 263 681 210 660 q 382 703 317 703 q 501 681 447 703 q 594 618 556 660 q 653 515 632 576 q 674 375 674 454 l 674 319 q 653 179 674 240 q 593 76 632 118 q 501 13 554 35 q 382 -8 447 -8 m 382 47 q 547 116 483 47 q 610 319 610 185 l 610 375 q 546 578 610 510 q 382 647 482 647 q 217 578 281 647 q 154 375 154 510 l 154 319 q 218 116 154 185 q 382 47 282 47 m 181 993 l 269 993 l 431 785 l 358 785 l 181 993 z "},"ó":{"ha":764,"x_min":90,"x_max":674,"o":"m 382 -8 q 263 13 317 -8 q 170 76 208 35 q 111 179 132 118 q 90 319 90 240 l 90 375 q 111 515 90 454 q 171 618 132 576 q 263 681 210 660 q 382 703 317 703 q 501 681 447 703 q 594 618 556 660 q 653 515 632 576 q 674 375 674 454 l 674 319 q 653 179 674 240 q 593 76 632 118 q 501 13 554 35 q 382 -8 447 -8 m 382 47 q 547 116 483 47 q 610 319 610 185 l 610 375 q 546 578 610 510 q 382 647 482 647 q 217 578 281 647 q 154 375 154 510 l 154 319 q 218 116 154 185 q 382 47 282 47 m 497 993 l 583 993 l 403 785 l 333 785 l 497 993 z "},"ô":{"ha":764,"x_min":90,"x_max":674,"o":"m 382 -8 q 263 13 317 -8 q 170 76 208 35 q 111 179 132 118 q 90 319 90 240 l 90 375 q 111 515 90 454 q 171 618 132 576 q 263 681 210 660 q 382 703 317 703 q 501 681 447 703 q 594 618 556 660 q 653 515 632 576 q 674 375 674 454 l 674 319 q 653 179 674 240 q 593 76 632 118 q 501 13 554 35 q 382 -8 447 -8 m 382 47 q 547 116 483 47 q 610 319 610 185 l 610 375 q 546 578 610 510 q 382 647 482 647 q 217 578 281 647 q 154 375 154 510 l 154 319 q 218 116 154 185 q 382 47 282 47 m 344 993 l 419 993 l 583 785 l 514 785 l 382 938 l 250 785 l 181 785 l 344 993 z "},"õ":{"ha":764,"x_min":90,"x_max":674,"o":"m 382 -8 q 263 13 317 -8 q 170 76 208 35 q 111 179 132 118 q 90 319 90 240 l 90 375 q 111 515 90 454 q 171 618 132 576 q 263 681 210 660 q 382 703 317 703 q 501 681 447 703 q 594 618 556 660 q 653 515 632 576 q 674 375 674 454 l 674 319 q 653 179 674 240 q 593 76 632 118 q 501 13 554 35 q 382 -8 447 -8 m 382 47 q 547 116 483 47 q 610 319 610 185 l 610 375 q 546 578 610 510 q 382 647 482 647 q 217 578 281 647 q 154 375 154 510 l 154 319 q 218 116 154 185 q 382 47 282 47 m 472 806 q 414 821 439 806 q 369 854 389 836 q 331 888 350 872 q 292 903 313 903 q 244 883 263 903 q 226 819 226 863 l 174 819 q 206 924 174 889 q 292 958 239 958 q 349 943 325 958 q 393 910 374 928 q 431 876 413 892 q 472 861 450 861 q 519 881 501 861 q 538 944 538 901 l 590 944 q 558 840 590 875 q 472 806 525 806 z "},"ö":{"ha":764,"x_min":90,"x_max":674,"o":"m 382 -8 q 263 13 317 -8 q 170 76 208 35 q 111 179 132 118 q 90 319 90 240 l 90 375 q 111 515 90 454 q 171 618 132 576 q 263 681 210 660 q 382 703 317 703 q 501 681 447 703 q 594 618 556 660 q 653 515 632 576 q 674 375 674 454 l 674 319 q 653 179 674 240 q 593 76 632 118 q 501 13 554 35 q 382 -8 447 -8 m 382 47 q 547 116 483 47 q 610 319 610 185 l 610 375 q 546 578 610 510 q 382 647 482 647 q 217 578 281 647 q 154 375 154 510 l 154 319 q 218 116 154 185 q 382 47 282 47 m 243 833 q 208 847 222 833 q 194 882 194 861 q 208 917 194 903 q 243 931 222 931 q 278 917 264 931 q 292 882 292 903 q 278 847 292 861 q 243 833 264 833 m 521 833 q 486 847 500 833 q 472 882 472 861 q 486 917 472 903 q 521 931 500 931 q 556 917 542 931 q 569 882 569 903 q 556 847 569 861 q 521 833 542 833 z "},"÷":{"ha":819,"x_min":111,"x_max":708,"o":"m 111 529 l 708 529 l 708 471 l 111 471 l 111 529 m 410 681 q 367 697 383 681 q 350 740 350 714 q 367 783 350 767 q 410 800 383 800 q 453 783 436 800 q 469 740 469 767 q 453 697 469 714 q 410 681 436 681 m 410 208 q 367 225 383 208 q 350 268 350 242 q 367 311 350 294 q 410 328 383 328 q 453 311 436 328 q 469 268 469 294 q 453 225 469 242 q 410 208 436 208 z "},"ø":{"ha":764,"x_min":90,"x_max":674,"o":"m 382 -8 q 186 61 263 -8 l 131 -8 l 90 26 l 150 101 q 90 319 90 185 l 90 375 q 111 515 90 454 q 171 618 132 576 q 263 681 210 660 q 382 703 317 703 q 578 633 501 703 l 633 703 l 674 668 l 614 593 q 674 375 674 510 l 674 319 q 653 179 674 240 q 593 76 632 118 q 501 13 554 35 q 382 -8 447 -8 m 539 585 q 382 647 476 647 q 217 578 281 647 q 154 375 154 510 l 154 319 q 164 226 154 268 q 192 153 174 185 l 539 585 m 382 47 q 547 116 483 47 q 610 319 610 185 l 610 375 q 600 468 610 426 q 572 542 590 510 l 225 110 q 382 47 288 47 z "},"ù":{"ha":785,"x_min":125,"x_max":653,"o":"m 368 -8 q 191 61 257 -8 q 125 264 125 131 l 125 694 l 186 694 l 186 271 q 237 102 186 157 q 375 47 288 47 q 463 63 422 47 q 531 108 503 79 q 576 179 560 138 q 592 271 592 221 l 592 694 l 653 694 l 653 0 l 603 0 l 594 118 l 592 118 q 499 24 557 57 q 368 -8 442 -8 m 188 993 l 276 993 l 438 785 l 365 785 l 188 993 z "},"ú":{"ha":785,"x_min":125,"x_max":653,"o":"m 368 -8 q 191 61 257 -8 q 125 264 125 131 l 125 694 l 186 694 l 186 271 q 237 102 186 157 q 375 47 288 47 q 463 63 422 47 q 531 108 503 79 q 576 179 560 138 q 592 271 592 221 l 592 694 l 653 694 l 653 0 l 603 0 l 594 118 l 592 118 q 499 24 557 57 q 368 -8 442 -8 m 504 993 l 590 993 l 410 785 l 340 785 l 504 993 z "},"û":{"ha":785,"x_min":125,"x_max":653,"o":"m 368 -8 q 191 61 257 -8 q 125 264 125 131 l 125 694 l 186 694 l 186 271 q 237 102 186 157 q 375 47 288 47 q 463 63 422 47 q 531 108 503 79 q 576 179 560 138 q 592 271 592 221 l 592 694 l 653 694 l 653 0 l 603 0 l 594 118 l 592 118 q 499 24 557 57 q 368 -8 442 -8 m 351 993 l 426 993 l 590 785 l 521 785 l 389 938 l 257 785 l 188 785 l 351 993 z "},"ü":{"ha":785,"x_min":125,"x_max":653,"o":"m 368 -8 q 191 61 257 -8 q 125 264 125 131 l 125 694 l 186 694 l 186 271 q 237 102 186 157 q 375 47 288 47 q 463 63 422 47 q 531 108 503 79 q 576 179 560 138 q 592 271 592 221 l 592 694 l 653 694 l 653 0 l 603 0 l 594 118 l 592 118 q 499 24 557 57 q 368 -8 442 -8 m 250 833 q 215 847 229 833 q 201 882 201 861 q 215 917 201 903 q 250 931 229 931 q 285 917 271 931 q 299 882 299 903 q 285 847 299 861 q 250 833 271 833 m 528 833 q 493 847 507 833 q 479 882 479 861 q 493 917 479 903 q 528 931 507 931 q 563 917 549 931 q 576 882 576 903 q 563 847 576 861 q 528 833 549 833 z "},"ý":{"ha":722,"x_min":49,"x_max":674,"o":"m 342 0 l 49 694 l 115 694 l 372 76 l 375 76 l 610 694 l 674 694 l 299 -278 l 235 -278 l 342 0 m 478 993 l 564 993 l 383 785 l 314 785 l 478 993 z "},"þ":{"ha":792,"x_min":132,"x_max":701,"o":"m 132 972 l 193 972 l 193 583 l 196 583 q 429 703 272 703 q 538 681 488 703 q 624 618 588 660 q 681 515 660 576 q 701 375 701 454 l 701 319 q 681 181 701 242 q 623 78 660 119 q 536 14 586 36 q 429 -8 486 -8 q 196 111 272 -8 l 193 111 l 193 -278 l 132 -278 l 132 972 m 415 47 q 576 114 515 47 q 638 319 638 181 l 638 375 q 576 579 638 511 q 415 647 514 647 q 254 581 315 647 q 193 375 193 514 l 193 319 q 255 115 193 183 q 415 47 317 47 z "},"ÿ":{"ha":722,"x_min":49,"x_max":674,"o":"m 342 0 l 49 694 l 115 694 l 372 76 l 375 76 l 610 694 l 674 694 l 299 -278 l 235 -278 l 342 0 m 224 833 q 189 847 203 833 q 175 882 175 861 q 189 917 175 903 q 224 931 203 931 q 258 917 244 931 q 272 882 272 903 q 258 847 272 861 q 224 833 244 833 m 501 833 q 467 847 481 833 q 453 882 453 861 q 467 917 453 903 q 501 931 481 931 q 536 917 522 931 q 550 882 550 903 q 536 847 550 861 q 501 833 522 833 z "},"Ā":{"ha":917,"x_min":56,"x_max":861,"o":"m 417 972 l 500 972 l 861 0 l 792 0 l 683 297 l 232 297 l 122 0 l 56 0 l 417 972 m 661 356 l 460 908 l 457 908 l 253 356 l 661 356 m 264 1189 l 653 1189 l 653 1131 l 264 1131 l 264 1189 z "},"ā":{"ha":736,"x_min":83,"x_max":611,"o":"m 306 -8 q 139 44 194 -8 q 83 186 83 96 q 148 339 83 282 q 354 396 213 396 l 550 396 l 550 458 q 505 599 550 554 q 361 644 460 644 q 232 611 276 644 q 182 528 188 578 l 118 528 q 137 592 121 561 q 183 649 153 624 q 258 688 214 674 q 361 703 303 703 q 549 643 488 703 q 611 465 611 583 l 611 0 l 561 0 l 551 132 l 549 132 q 448 28 513 65 q 306 -8 383 -8 m 306 50 q 406 67 361 50 q 483 117 451 85 q 533 193 515 149 q 550 292 550 238 l 550 340 l 361 340 q 197 299 246 340 q 147 186 147 257 q 187 87 147 124 q 306 50 226 50 m 181 910 l 542 910 l 542 854 l 181 854 l 181 910 z "},"Ă":{"ha":917,"x_min":56,"x_max":861,"o":"m 417 972 l 500 972 l 861 0 l 792 0 l 683 297 l 232 297 l 122 0 l 56 0 l 417 972 m 661 356 l 460 908 l 457 908 l 253 356 l 661 356 m 458 1061 q 316 1113 368 1061 q 264 1250 264 1164 l 319 1250 q 356 1152 319 1188 q 458 1117 392 1117 q 561 1152 525 1117 q 597 1250 597 1188 l 653 1250 q 601 1113 653 1164 q 458 1061 549 1061 z "},"ă":{"ha":736,"x_min":83,"x_max":611,"o":"m 306 -8 q 139 44 194 -8 q 83 186 83 96 q 148 339 83 282 q 354 396 213 396 l 550 396 l 550 458 q 505 599 550 554 q 361 644 460 644 q 232 611 276 644 q 182 528 188 578 l 118 528 q 137 592 121 561 q 183 649 153 624 q 258 688 214 674 q 361 703 303 703 q 549 643 488 703 q 611 465 611 583 l 611 0 l 561 0 l 551 132 l 549 132 q 448 28 513 65 q 306 -8 383 -8 m 306 50 q 406 67 361 50 q 483 117 451 85 q 533 193 515 149 q 550 292 550 238 l 550 340 l 361 340 q 197 299 246 340 q 147 186 147 257 q 187 87 147 124 q 306 50 226 50 m 361 783 q 231 835 282 783 q 181 972 181 886 l 233 972 q 268 872 233 908 q 361 836 303 836 q 454 872 419 836 q 489 972 489 908 l 542 972 q 491 835 542 886 q 361 783 440 783 z "},"Ą":{"ha":917,"x_min":56,"x_max":861,"o":"m 417 972 l 500 972 l 861 0 q 799 -56 824 -32 q 758 -100 774 -81 q 737 -136 743 -119 q 731 -169 731 -153 q 745 -208 731 -193 q 785 -222 760 -222 l 861 -222 l 861 -278 l 778 -278 q 696 -250 725 -278 q 667 -174 667 -222 q 692 -90 667 -131 q 788 11 718 -50 l 683 297 l 232 297 l 122 0 l 56 0 l 417 972 m 661 356 l 460 908 l 457 908 l 253 356 l 661 356 z "},"ą":{"ha":736,"x_min":83,"x_max":611,"o":"m 306 -8 q 139 44 194 -8 q 83 186 83 96 q 148 339 83 282 q 354 396 213 396 l 550 396 l 550 458 q 505 599 550 554 q 361 644 460 644 q 232 611 276 644 q 182 528 188 578 l 118 528 q 137 592 121 561 q 183 649 153 624 q 258 688 214 674 q 361 703 303 703 q 549 643 488 703 q 611 465 611 583 l 611 0 l 604 0 q 540 -58 565 -33 q 499 -101 514 -82 q 477 -137 483 -121 q 471 -169 471 -153 q 528 -225 471 -225 l 604 -225 l 604 -278 l 521 -278 q 439 -250 468 -278 q 410 -174 410 -222 q 417 -131 410 -151 q 440 -86 424 -110 q 485 -35 457 -62 q 558 31 514 -7 l 551 132 l 549 132 q 448 28 513 65 q 306 -8 383 -8 m 306 50 q 406 67 361 50 q 483 117 451 85 q 533 193 515 149 q 550 292 550 238 l 550 340 l 361 340 q 197 299 246 340 q 147 186 147 257 q 187 87 147 124 q 306 50 226 50 z "},"Ć":{"ha":931,"x_min":104,"x_max":840,"o":"m 486 -8 q 333 22 403 -8 q 213 110 264 51 q 133 253 161 168 q 104 451 104 339 l 104 535 q 133 724 104 640 q 213 864 161 807 q 334 951 264 921 q 486 981 404 981 q 622 959 561 981 q 728 900 683 938 q 801 813 774 863 q 840 708 829 764 l 776 708 q 742 790 765 751 q 683 858 719 829 q 597 905 646 888 q 486 922 549 922 q 360 897 418 922 q 260 823 303 872 q 194 701 218 774 q 171 535 171 629 l 171 451 q 194 276 171 351 q 260 151 218 201 q 360 76 303 101 q 486 50 418 50 q 597 67 549 50 q 683 115 646 85 q 742 188 719 146 q 776 278 765 229 l 840 278 q 801 165 829 217 q 728 74 774 113 q 622 14 683 36 q 486 -8 561 -8 m 611 1271 l 700 1271 l 508 1063 l 436 1063 l 611 1271 z "},"ć":{"ha":701,"x_min":90,"x_max":632,"o":"m 375 -8 q 258 13 311 -8 q 168 76 206 35 q 110 181 131 118 q 90 326 90 243 l 90 382 q 111 518 90 458 q 169 619 132 578 q 260 681 207 660 q 375 703 313 703 q 474 688 431 703 q 551 646 518 672 q 603 585 583 619 q 632 514 624 551 l 568 514 q 506 608 553 568 q 375 647 458 647 q 288 630 328 647 q 217 578 247 613 q 171 495 188 544 q 154 382 154 446 l 154 326 q 171 205 154 257 q 217 118 188 153 q 288 65 247 83 q 375 47 328 47 q 506 88 458 47 q 568 194 553 129 l 632 194 q 603 115 624 151 q 551 51 583 78 q 474 8 518 24 q 375 -8 431 -8 m 490 993 l 576 993 l 396 785 l 326 785 l 490 993 z "},"Ĉ":{"ha":931,"x_min":104,"x_max":840,"o":"m 486 -8 q 333 22 403 -8 q 213 110 264 51 q 133 253 161 168 q 104 451 104 339 l 104 535 q 133 724 104 640 q 213 864 161 807 q 334 951 264 921 q 486 981 404 981 q 622 959 561 981 q 728 900 683 938 q 801 813 774 863 q 840 708 829 764 l 776 708 q 742 790 765 751 q 683 858 719 829 q 597 905 646 888 q 486 922 549 922 q 360 897 418 922 q 260 823 303 872 q 194 701 218 774 q 171 535 171 629 l 171 451 q 194 276 171 351 q 260 151 218 201 q 360 76 303 101 q 486 50 418 50 q 597 67 549 50 q 683 115 646 85 q 742 188 719 146 q 776 278 765 229 l 840 278 q 801 165 829 217 q 728 74 774 113 q 622 14 683 36 q 486 -8 561 -8 m 451 1271 l 521 1271 l 694 1063 l 622 1063 l 486 1208 l 350 1063 l 278 1063 l 451 1271 z "},"ĉ":{"ha":701,"x_min":90,"x_max":632,"o":"m 375 -8 q 258 13 311 -8 q 168 76 206 35 q 110 181 131 118 q 90 326 90 243 l 90 382 q 111 518 90 458 q 169 619 132 578 q 260 681 207 660 q 375 703 313 703 q 474 688 431 703 q 551 646 518 672 q 603 585 583 619 q 632 514 624 551 l 568 514 q 506 608 553 568 q 375 647 458 647 q 288 630 328 647 q 217 578 247 613 q 171 495 188 544 q 154 382 154 446 l 154 326 q 171 205 154 257 q 217 118 188 153 q 288 65 247 83 q 375 47 328 47 q 506 88 458 47 q 568 194 553 129 l 632 194 q 603 115 624 151 q 551 51 583 78 q 474 8 518 24 q 375 -8 431 -8 m 338 993 l 413 993 l 576 785 l 507 785 l 375 938 l 243 785 l 174 785 l 338 993 z "},"Ċ":{"ha":931,"x_min":104,"x_max":840,"o":"m 486 -8 q 333 22 403 -8 q 213 110 264 51 q 133 253 161 168 q 104 451 104 339 l 104 535 q 133 724 104 640 q 213 864 161 807 q 334 951 264 921 q 486 981 404 981 q 622 959 561 981 q 728 900 683 938 q 801 813 774 863 q 840 708 829 764 l 776 708 q 742 790 765 751 q 683 858 719 829 q 597 905 646 888 q 486 922 549 922 q 360 897 418 922 q 260 823 303 872 q 194 701 218 774 q 171 535 171 629 l 171 451 q 194 276 171 351 q 260 151 218 201 q 360 76 303 101 q 486 50 418 50 q 597 67 549 50 q 683 115 646 85 q 742 188 719 146 q 776 278 765 229 l 840 278 q 801 165 829 217 q 728 74 774 113 q 622 14 683 36 q 486 -8 561 -8 m 486 1108 q 449 1122 463 1108 q 435 1160 435 1136 q 449 1197 435 1183 q 486 1211 463 1211 q 524 1197 510 1211 q 538 1160 538 1183 q 524 1122 538 1136 q 486 1108 510 1108 z "},"ċ":{"ha":701,"x_min":90,"x_max":632,"o":"m 375 -8 q 258 13 311 -8 q 168 76 206 35 q 110 181 131 118 q 90 326 90 243 l 90 382 q 111 518 90 458 q 169 619 132 578 q 260 681 207 660 q 375 703 313 703 q 474 688 431 703 q 551 646 518 672 q 603 585 583 619 q 632 514 624 551 l 568 514 q 506 608 553 568 q 375 647 458 647 q 288 630 328 647 q 217 578 247 613 q 171 495 188 544 q 154 382 154 446 l 154 326 q 171 205 154 257 q 217 118 188 153 q 288 65 247 83 q 375 47 328 47 q 506 88 458 47 q 568 194 553 129 l 632 194 q 603 115 624 151 q 551 51 583 78 q 474 8 518 24 q 375 -8 431 -8 m 375 832 q 339 846 353 832 q 325 882 325 860 q 339 918 325 904 q 375 932 353 932 q 411 918 397 932 q 425 882 425 904 q 411 846 425 860 q 375 832 397 832 z "},"Č":{"ha":931,"x_min":104,"x_max":840,"o":"m 486 -8 q 333 22 403 -8 q 213 110 264 51 q 133 253 161 168 q 104 451 104 339 l 104 535 q 133 724 104 640 q 213 864 161 807 q 334 951 264 921 q 486 981 404 981 q 622 959 561 981 q 728 900 683 938 q 801 813 774 863 q 840 708 829 764 l 776 708 q 742 790 765 751 q 683 858 719 829 q 597 905 646 888 q 486 922 549 922 q 360 897 418 922 q 260 823 303 872 q 194 701 218 774 q 171 535 171 629 l 171 451 q 194 276 171 351 q 260 151 218 201 q 360 76 303 101 q 486 50 418 50 q 597 67 549 50 q 683 115 646 85 q 742 188 719 146 q 776 278 765 229 l 840 278 q 801 165 829 217 q 728 74 774 113 q 622 14 683 36 q 486 -8 561 -8 m 278 1271 l 350 1271 l 486 1125 l 622 1271 l 694 1271 l 521 1063 l 451 1063 l 278 1271 z "},"č":{"ha":701,"x_min":90,"x_max":632,"o":"m 375 -8 q 258 13 311 -8 q 168 76 206 35 q 110 181 131 118 q 90 326 90 243 l 90 382 q 111 518 90 458 q 169 619 132 578 q 260 681 207 660 q 375 703 313 703 q 474 688 431 703 q 551 646 518 672 q 603 585 583 619 q 632 514 624 551 l 568 514 q 506 608 553 568 q 375 647 458 647 q 288 630 328 647 q 217 578 247 613 q 171 495 188 544 q 154 382 154 446 l 154 326 q 171 205 154 257 q 217 118 188 153 q 288 65 247 83 q 375 47 328 47 q 506 88 458 47 q 568 194 553 129 l 632 194 q 603 115 624 151 q 551 51 583 78 q 474 8 518 24 q 375 -8 431 -8 m 174 993 l 243 993 l 375 840 l 507 993 l 576 993 l 413 785 l 338 785 l 174 993 z "},"Ď":{"ha":944,"x_min":139,"x_max":840,"o":"m 139 972 l 424 972 q 731 860 622 972 q 840 533 840 749 l 840 453 q 731 115 840 229 q 424 0 621 0 l 139 0 l 139 972 m 417 58 q 682 155 590 58 q 774 453 774 251 l 774 533 q 681 819 774 724 q 417 914 589 914 l 203 914 l 203 58 l 417 58 m 236 1271 l 308 1271 l 444 1125 l 581 1271 l 653 1271 l 479 1063 l 410 1063 l 236 1271 z "},"ď":{"ha":792,"x_min":90,"x_max":813,"o":"m 660 972 l 660 0 l 610 0 q 608 25 610 8 q 606 60 607 42 q 603 95 604 79 q 601 118 601 111 l 599 118 q 501 24 561 56 q 363 -8 442 -8 q 255 13 304 -8 q 169 76 206 35 q 111 179 132 118 q 90 319 90 240 l 90 375 q 111 514 90 453 q 169 617 132 575 q 256 681 206 658 q 363 703 306 703 q 596 583 519 703 l 599 583 l 599 972 l 660 972 m 376 644 q 216 576 278 644 q 154 375 154 508 l 154 319 q 217 118 154 186 q 376 50 279 50 q 538 117 476 50 q 599 319 599 183 l 599 375 q 582 492 599 442 q 536 576 565 543 q 466 627 507 610 q 376 644 425 644 m 743 972 l 813 972 l 793 778 l 743 778 l 743 972 z "},"Đ":{"ha":972,"x_min":42,"x_max":868,"o":"m 167 458 l 42 458 l 42 514 l 167 514 l 167 972 l 451 972 q 759 860 650 972 q 868 533 868 749 l 868 453 q 758 115 868 229 q 451 0 649 0 l 167 0 l 167 458 m 444 58 q 710 155 618 58 q 801 453 801 251 l 801 533 q 709 819 801 724 q 444 914 617 914 l 231 914 l 231 514 l 514 514 l 514 458 l 231 458 l 231 58 l 444 58 z "},"đ":{"ha":792,"x_min":90,"x_max":771,"o":"m 363 -8 q 255 15 304 -8 q 169 79 206 38 q 111 180 132 121 q 90 313 90 239 l 90 368 q 111 503 90 443 q 169 604 132 563 q 256 667 206 646 q 363 689 306 689 q 596 569 519 689 l 599 569 l 599 767 l 299 767 l 299 817 l 599 817 l 599 972 l 660 972 l 660 817 l 771 817 l 771 767 l 660 767 l 660 0 l 610 0 l 601 118 l 599 118 q 501 24 561 56 q 363 -8 442 -8 m 376 50 q 538 118 476 50 q 599 313 599 186 l 599 368 q 537 564 599 497 q 376 631 475 631 q 216 564 278 631 q 154 368 154 497 l 154 313 q 171 203 154 251 q 217 120 188 154 q 287 68 246 86 q 376 50 328 50 z "},"Ē":{"ha":778,"x_min":139,"x_max":701,"o":"m 139 972 l 701 972 l 701 914 l 203 914 l 203 529 l 618 529 l 618 471 l 203 471 l 203 58 l 701 58 l 701 0 l 139 0 l 139 972 m 226 1189 l 615 1189 l 615 1131 l 226 1131 l 226 1189 z "},"ē":{"ha":750,"x_min":90,"x_max":660,"o":"m 382 -8 q 263 13 317 -8 q 170 76 208 35 q 111 179 132 118 q 90 319 90 240 l 90 375 q 111 515 90 454 q 170 618 132 576 q 260 681 208 660 q 375 703 313 703 q 490 681 438 703 q 581 617 543 660 q 639 513 618 575 q 660 368 660 450 l 660 333 l 154 333 q 210 121 154 194 q 375 47 267 47 q 512 81 458 47 q 589 181 565 115 l 653 181 q 556 41 626 90 q 382 -8 486 -8 m 375 647 q 217 582 278 647 q 154 389 157 517 l 596 389 q 533 583 593 519 q 375 647 474 647 m 194 910 l 556 910 l 556 854 l 194 854 l 194 910 z "},"Ĕ":{"ha":778,"x_min":139,"x_max":701,"o":"m 139 972 l 701 972 l 701 914 l 203 914 l 203 529 l 618 529 l 618 471 l 203 471 l 203 58 l 701 58 l 701 0 l 139 0 l 139 972 m 421 1061 q 278 1113 331 1061 q 226 1250 226 1164 l 282 1250 q 318 1152 282 1188 q 421 1117 354 1117 q 524 1152 488 1117 q 560 1250 560 1188 l 615 1250 q 563 1113 615 1164 q 421 1061 511 1061 z "},"ĕ":{"ha":750,"x_min":90,"x_max":660,"o":"m 382 -8 q 263 13 317 -8 q 170 76 208 35 q 111 179 132 118 q 90 319 90 240 l 90 375 q 111 515 90 454 q 170 618 132 576 q 260 681 208 660 q 375 703 313 703 q 490 681 438 703 q 581 617 543 660 q 639 513 618 575 q 660 368 660 450 l 660 333 l 154 333 q 210 121 154 194 q 375 47 267 47 q 512 81 458 47 q 589 181 565 115 l 653 181 q 556 41 626 90 q 382 -8 486 -8 m 375 647 q 217 582 278 647 q 154 389 157 517 l 596 389 q 533 583 593 519 q 375 647 474 647 m 375 783 q 245 835 296 783 q 194 972 194 886 l 247 972 q 282 872 247 908 q 375 836 317 836 q 468 872 433 836 q 503 972 503 908 l 556 972 q 505 835 556 886 q 375 783 454 783 z "},"Ė":{"ha":778,"x_min":139,"x_max":701,"o":"m 139 972 l 701 972 l 701 914 l 203 914 l 203 529 l 618 529 l 618 471 l 203 471 l 203 58 l 701 58 l 701 0 l 139 0 l 139 972 m 421 1108 q 383 1122 397 1108 q 369 1160 369 1136 q 383 1197 369 1183 q 421 1211 397 1211 q 458 1197 444 1211 q 472 1160 472 1183 q 458 1122 472 1136 q 421 1108 444 1108 z "},"ė":{"ha":750,"x_min":90,"x_max":660,"o":"m 382 -8 q 263 13 317 -8 q 170 76 208 35 q 111 179 132 118 q 90 319 90 240 l 90 375 q 111 515 90 454 q 170 618 132 576 q 260 681 208 660 q 375 703 313 703 q 490 681 438 703 q 581 617 543 660 q 639 513 618 575 q 660 368 660 450 l 660 333 l 154 333 q 210 121 154 194 q 375 47 267 47 q 512 81 458 47 q 589 181 565 115 l 653 181 q 556 41 626 90 q 382 -8 486 -8 m 375 647 q 217 582 278 647 q 154 389 157 517 l 596 389 q 533 583 593 519 q 375 647 474 647 m 375 832 q 339 846 353 832 q 325 882 325 860 q 339 918 325 904 q 375 932 353 932 q 411 918 397 932 q 425 882 425 904 q 411 846 425 860 q 375 832 397 832 z "},"Ę":{"ha":778,"x_min":139,"x_max":701,"o":"m 139 972 l 701 972 l 701 914 l 203 914 l 203 529 l 618 529 l 618 471 l 203 471 l 203 58 l 701 58 l 701 0 q 639 -56 664 -32 q 599 -100 614 -81 q 577 -136 583 -119 q 571 -169 571 -153 q 585 -208 571 -193 q 625 -222 600 -222 l 701 -222 l 701 -278 l 618 -278 q 536 -250 565 -278 q 507 -174 507 -222 q 531 -94 507 -132 q 615 0 554 -56 l 139 0 l 139 972 z "},"ę":{"ha":750,"x_min":90,"x_max":660,"o":"m 542 -278 q 453 -249 483 -278 q 424 -174 424 -221 q 426 -138 424 -156 q 438 -99 429 -121 q 463 -50 447 -78 q 504 17 479 -22 q 445 -3 479 3 q 375 -8 411 -8 q 259 13 311 -8 q 169 75 207 35 q 111 175 132 115 q 90 313 90 235 l 90 382 q 111 519 90 458 q 169 619 132 579 q 259 681 207 660 q 375 703 311 703 q 491 681 439 703 q 581 619 543 660 q 639 519 618 579 q 660 382 660 458 l 660 333 l 154 333 q 215 119 154 189 q 375 50 276 50 q 517 88 471 50 q 585 194 564 126 l 649 194 q 635 153 642 171 q 617 111 629 135 q 553 0 578 44 q 513 -75 528 -44 q 491 -127 497 -106 q 485 -167 485 -149 q 501 -209 485 -193 q 542 -225 517 -225 l 618 -225 l 618 -278 l 542 -278 m 375 644 q 215 579 276 644 q 154 389 154 514 l 596 389 q 533 580 593 515 q 375 644 472 644 z "},"Ě":{"ha":778,"x_min":139,"x_max":701,"o":"m 139 972 l 701 972 l 701 914 l 203 914 l 203 529 l 618 529 l 618 471 l 203 471 l 203 58 l 701 58 l 701 0 l 139 0 l 139 972 m 213 1271 l 285 1271 l 421 1125 l 557 1271 l 629 1271 l 456 1063 l 386 1063 l 213 1271 z "},"ě":{"ha":750,"x_min":90,"x_max":660,"o":"m 382 -8 q 263 13 317 -8 q 170 76 208 35 q 111 179 132 118 q 90 319 90 240 l 90 375 q 111 515 90 454 q 170 618 132 576 q 260 681 208 660 q 375 703 313 703 q 490 681 438 703 q 581 617 543 660 q 639 513 618 575 q 660 368 660 450 l 660 333 l 154 333 q 210 121 154 194 q 375 47 267 47 q 512 81 458 47 q 589 181 565 115 l 653 181 q 556 41 626 90 q 382 -8 486 -8 m 375 647 q 217 582 278 647 q 154 389 157 517 l 596 389 q 533 583 593 519 q 375 647 474 647 m 174 993 l 243 993 l 375 840 l 507 993 l 576 993 l 413 785 l 338 785 l 174 993 z "},"Ĝ":{"ha":958,"x_min":104,"x_max":854,"o":"m 486 -8 q 333 22 403 -8 q 213 110 264 51 q 133 253 161 168 q 104 451 104 339 l 104 535 q 133 724 104 640 q 213 864 161 807 q 334 951 264 921 q 486 981 404 981 q 622 958 561 981 q 728 899 683 936 q 801 812 772 861 q 840 708 829 763 l 771 708 q 737 790 760 751 q 678 858 714 829 q 594 905 642 888 q 486 922 546 922 q 360 897 418 922 q 260 823 303 872 q 194 701 218 774 q 171 535 171 629 l 171 451 q 194 276 171 351 q 260 151 218 201 q 360 76 303 101 q 486 50 418 50 q 608 71 553 50 q 702 137 663 92 q 765 251 742 182 q 790 415 788 319 l 486 415 l 486 474 l 854 474 l 854 458 q 828 250 854 338 q 753 105 801 163 q 638 19 706 47 q 486 -8 569 -8 m 451 1271 l 521 1271 l 694 1063 l 622 1063 l 486 1208 l 350 1063 l 278 1063 l 451 1271 z "},"ĝ":{"ha":792,"x_min":90,"x_max":660,"o":"m 360 19 q 253 41 303 19 q 168 103 204 63 q 111 201 132 143 q 90 333 90 260 l 90 389 q 111 519 90 461 q 169 619 132 578 q 256 681 206 660 q 363 703 306 703 q 501 671 442 703 q 599 576 561 639 l 601 576 l 610 694 l 660 694 l 660 -7 q 590 -212 660 -137 q 393 -286 519 -286 q 210 -231 271 -286 q 139 -83 150 -176 l 203 -83 q 258 -192 214 -154 q 393 -231 303 -231 q 599 0 599 -231 l 599 139 l 596 139 q 360 19 519 19 m 376 75 q 538 140 476 75 q 599 333 599 206 l 599 389 q 537 581 599 515 q 376 647 475 647 q 215 582 276 647 q 154 389 154 517 l 154 333 q 216 141 154 207 q 376 75 278 75 m 338 993 l 413 993 l 576 785 l 507 785 l 375 938 l 243 785 l 174 785 l 338 993 z "},"Ğ":{"ha":958,"x_min":104,"x_max":854,"o":"m 486 -8 q 333 22 403 -8 q 213 110 264 51 q 133 253 161 168 q 104 451 104 339 l 104 535 q 133 724 104 640 q 213 864 161 807 q 334 951 264 921 q 486 981 404 981 q 622 958 561 981 q 728 899 683 936 q 801 812 772 861 q 840 708 829 763 l 771 708 q 737 790 760 751 q 678 858 714 829 q 594 905 642 888 q 486 922 546 922 q 360 897 418 922 q 260 823 303 872 q 194 701 218 774 q 171 535 171 629 l 171 451 q 194 276 171 351 q 260 151 218 201 q 360 76 303 101 q 486 50 418 50 q 608 71 553 50 q 702 137 663 92 q 765 251 742 182 q 790 415 788 319 l 486 415 l 486 474 l 854 474 l 854 458 q 828 250 854 338 q 753 105 801 163 q 638 19 706 47 q 486 -8 569 -8 m 486 1061 q 344 1113 396 1061 q 292 1250 292 1164 l 347 1250 q 383 1152 347 1188 q 486 1117 419 1117 q 589 1152 553 1117 q 625 1250 625 1188 l 681 1250 q 628 1113 681 1164 q 486 1061 576 1061 z "},"ğ":{"ha":792,"x_min":90,"x_max":660,"o":"m 360 19 q 253 41 303 19 q 168 103 204 63 q 111 201 132 143 q 90 333 90 260 l 90 389 q 111 519 90 461 q 169 619 132 578 q 256 681 206 660 q 363 703 306 703 q 501 671 442 703 q 599 576 561 639 l 601 576 l 610 694 l 660 694 l 660 -7 q 590 -212 660 -137 q 393 -286 519 -286 q 210 -231 271 -286 q 139 -83 150 -176 l 203 -83 q 258 -192 214 -154 q 393 -231 303 -231 q 599 0 599 -231 l 599 139 l 596 139 q 360 19 519 19 m 376 75 q 538 140 476 75 q 599 333 599 206 l 599 389 q 537 581 599 515 q 376 647 475 647 q 215 582 276 647 q 154 389 154 517 l 154 333 q 216 141 154 207 q 376 75 278 75 m 375 783 q 245 835 296 783 q 194 972 194 886 l 247 972 q 282 872 247 908 q 375 836 317 836 q 468 872 433 836 q 503 972 503 908 l 556 972 q 505 835 556 886 q 375 783 454 783 z "},"Ġ":{"ha":958,"x_min":104,"x_max":854,"o":"m 486 -8 q 333 22 403 -8 q 213 110 264 51 q 133 253 161 168 q 104 451 104 339 l 104 535 q 133 724 104 640 q 213 864 161 807 q 334 951 264 921 q 486 981 404 981 q 622 958 561 981 q 728 899 683 936 q 801 812 772 861 q 840 708 829 763 l 771 708 q 737 790 760 751 q 678 858 714 829 q 594 905 642 888 q 486 922 546 922 q 360 897 418 922 q 260 823 303 872 q 194 701 218 774 q 171 535 171 629 l 171 451 q 194 276 171 351 q 260 151 218 201 q 360 76 303 101 q 486 50 418 50 q 608 71 553 50 q 702 137 663 92 q 765 251 742 182 q 790 415 788 319 l 486 415 l 486 474 l 854 474 l 854 458 q 828 250 854 338 q 753 105 801 163 q 638 19 706 47 q 486 -8 569 -8 m 486 1108 q 449 1122 463 1108 q 435 1160 435 1136 q 449 1197 435 1183 q 486 1211 463 1211 q 524 1197 510 1211 q 538 1160 538 1183 q 524 1122 538 1136 q 486 1108 510 1108 z "},"ġ":{"ha":792,"x_min":90,"x_max":660,"o":"m 360 19 q 253 41 303 19 q 168 103 204 63 q 111 201 132 143 q 90 333 90 260 l 90 389 q 111 519 90 461 q 169 619 132 578 q 256 681 206 660 q 363 703 306 703 q 501 671 442 703 q 599 576 561 639 l 601 576 l 610 694 l 660 694 l 660 -7 q 590 -212 660 -137 q 393 -286 519 -286 q 210 -231 271 -286 q 139 -83 150 -176 l 203 -83 q 258 -192 214 -154 q 393 -231 303 -231 q 599 0 599 -231 l 599 139 l 596 139 q 360 19 519 19 m 376 75 q 538 140 476 75 q 599 333 599 206 l 599 389 q 537 581 599 515 q 376 647 475 647 q 215 582 276 647 q 154 389 154 517 l 154 333 q 216 141 154 207 q 376 75 278 75 m 375 832 q 339 846 353 832 q 325 882 325 860 q 339 918 325 904 q 375 932 353 932 q 411 918 397 932 q 425 882 425 904 q 411 846 425 860 q 375 832 397 832 z "},"Ģ":{"ha":958,"x_min":104,"x_max":854,"o":"m 486 -8 q 333 22 403 -8 q 213 110 264 51 q 133 253 161 168 q 104 451 104 339 l 104 535 q 133 724 104 640 q 213 864 161 807 q 334 951 264 921 q 486 981 404 981 q 622 958 561 981 q 728 899 683 936 q 801 812 772 861 q 840 708 829 763 l 771 708 q 737 790 760 751 q 678 858 714 829 q 594 905 642 888 q 486 922 546 922 q 360 897 418 922 q 260 823 303 872 q 194 701 218 774 q 171 535 171 629 l 171 451 q 194 276 171 351 q 260 151 218 201 q 360 76 303 101 q 486 50 418 50 q 608 71 553 50 q 702 137 663 92 q 765 251 742 182 q 790 415 788 319 l 486 415 l 486 474 l 854 474 l 854 458 q 828 250 854 338 q 753 105 801 163 q 638 19 706 47 q 486 -8 569 -8 m 458 -69 l 539 -69 l 419 -278 l 358 -278 l 458 -69 z "},"ģ":{"ha":778,"x_min":90,"x_max":660,"o":"m 360 19 q 253 41 303 19 q 168 103 204 63 q 111 201 132 143 q 90 333 90 260 l 90 389 q 111 519 90 461 q 169 619 132 578 q 256 681 206 660 q 363 703 306 703 q 501 671 442 703 q 599 576 561 639 l 601 576 l 610 694 l 660 694 l 660 -7 q 590 -212 660 -137 q 393 -286 519 -286 q 210 -231 271 -286 q 139 -83 150 -176 l 203 -83 q 258 -192 214 -154 q 393 -231 303 -231 q 599 0 599 -231 l 599 139 l 596 139 q 360 19 519 19 m 376 75 q 538 140 476 75 q 599 333 599 206 l 599 389 q 537 581 599 515 q 376 647 475 647 q 215 582 276 647 q 154 389 154 517 l 154 333 q 216 141 154 207 q 376 75 278 75 m 399 764 l 324 764 l 446 972 l 504 972 l 399 764 z "},"Ĥ":{"ha":986,"x_min":139,"x_max":847,"o":"m 139 972 l 203 972 l 203 529 l 783 529 l 783 972 l 847 972 l 847 0 l 783 0 l 783 471 l 203 471 l 203 0 l 139 0 l 139 972 m 458 1271 l 528 1271 l 701 1063 l 629 1063 l 493 1208 l 357 1063 l 285 1063 l 458 1271 z "},"ĥ":{"ha":799,"x_min":-37,"x_max":674,"o":"m 132 972 l 193 972 l 193 576 l 196 576 q 287 669 229 636 q 415 703 344 703 q 606 633 538 703 q 674 424 674 563 l 674 0 l 613 0 l 613 424 q 560 592 613 538 q 410 647 508 647 q 322 631 361 647 q 253 586 282 615 q 209 515 225 557 q 193 424 193 474 l 193 0 l 132 0 l 132 972 m 126 1271 l 201 1271 l 365 1063 l 296 1063 l 164 1215 l 32 1063 l -37 1063 l 126 1271 z "},"Ħ":{"ha":1042,"x_min":42,"x_max":1000,"o":"m 167 751 l 42 751 l 42 804 l 167 804 l 167 972 l 231 972 l 231 804 l 811 804 l 811 972 l 875 972 l 875 804 l 1000 804 l 1000 751 l 875 751 l 875 0 l 811 0 l 811 471 l 231 471 l 231 0 l 167 0 l 167 751 m 811 529 l 811 751 l 231 751 l 231 529 l 811 529 z "},"ħ":{"ha":799,"x_min":21,"x_max":674,"o":"m 132 767 l 21 767 l 21 817 l 132 817 l 132 972 l 193 972 l 193 817 l 424 817 l 424 767 l 193 767 l 193 563 l 196 563 q 287 656 229 622 q 415 689 344 689 q 606 619 538 689 q 674 410 674 549 l 674 0 l 613 0 l 613 410 q 560 578 613 524 q 410 633 508 633 q 322 617 361 633 q 253 572 282 601 q 209 501 225 543 q 193 410 193 460 l 193 0 l 132 0 l 132 767 z "},"Ĩ":{"ha":375,"x_min":-44,"x_max":400,"o":"m 156 972 l 219 972 l 219 0 l 156 0 l 156 972 m 275 1083 q 213 1098 239 1083 q 165 1131 186 1113 q 124 1163 144 1149 q 81 1178 104 1178 q 11 1097 11 1178 l -44 1097 q -11 1201 -44 1167 q 81 1236 22 1236 q 143 1222 117 1236 q 190 1189 169 1207 q 231 1156 211 1171 q 275 1142 251 1142 q 344 1222 344 1142 l 400 1222 q 367 1118 400 1153 q 275 1083 333 1083 z "},"ĩ":{"ha":356,"x_min":-29,"x_max":388,"o":"m 147 694 l 208 694 l 208 0 l 147 0 l 147 694 m 269 806 q 211 821 236 806 q 167 854 186 836 q 128 888 147 872 q 89 903 110 903 q 42 883 60 903 q 24 819 24 863 l -29 819 q 3 924 -29 889 q 89 958 36 958 q 147 943 122 958 q 190 910 171 928 q 228 876 210 892 q 269 861 247 861 q 317 881 299 861 q 335 944 335 901 l 388 944 q 355 840 388 875 q 269 806 322 806 z "},"Ī":{"ha":375,"x_min":-6,"x_max":383,"o":"m 156 972 l 219 972 l 219 0 l 156 0 l 156 972 m -6 1189 l 383 1189 l 383 1131 l -6 1131 l -6 1189 z "},"ī":{"ha":356,"x_min":-1,"x_max":360,"o":"m 147 694 l 208 694 l 208 0 l 147 0 l 147 694 m -1 910 l 360 910 l 360 854 l -1 854 l -1 910 z "},"Ĭ":{"ha":375,"x_min":-6,"x_max":383,"o":"m 156 972 l 219 972 l 219 0 l 156 0 l 156 972 m 189 1061 q 47 1113 99 1061 q -6 1250 -6 1164 l 50 1250 q 86 1152 50 1188 q 189 1117 122 1117 q 292 1152 256 1117 q 328 1250 328 1188 l 383 1250 q 331 1113 383 1164 q 189 1061 279 1061 z "},"ĭ":{"ha":356,"x_min":-1,"x_max":360,"o":"m 147 694 l 208 694 l 208 0 l 147 0 l 147 694 m 179 783 q 49 835 100 783 q -1 972 -1 886 l 51 972 q 86 872 51 908 q 179 836 121 836 q 272 872 238 836 q 307 972 307 908 l 360 972 q 309 835 360 886 q 179 783 258 783 z "},"Į":{"ha":375,"x_min":25,"x_max":219,"o":"m 156 972 l 219 972 l 219 0 q 157 -56 182 -32 q 117 -100 132 -81 q 95 -136 101 -119 q 89 -169 89 -153 q 103 -208 89 -193 q 143 -222 118 -222 l 219 -222 l 219 -278 l 136 -278 q 54 -250 83 -278 q 25 -174 25 -222 q 31 -130 25 -151 q 53 -85 38 -108 q 93 -37 68 -62 q 156 21 118 -11 l 156 972 z "},"į":{"ha":356,"x_min":14,"x_max":228,"o":"m 178 832 q 142 846 156 832 q 128 882 128 860 q 142 918 128 904 q 178 932 156 932 q 214 918 200 932 q 228 882 228 904 q 214 846 228 860 q 178 832 200 832 m 147 694 l 208 694 l 208 0 q 144 -58 169 -33 q 103 -101 118 -82 q 81 -137 88 -121 q 75 -169 75 -153 q 132 -225 75 -225 l 208 -225 l 208 -278 l 125 -278 q 43 -250 72 -278 q 14 -174 14 -222 q 20 -132 14 -151 q 42 -90 26 -112 q 83 -42 57 -68 q 147 17 108 -17 l 147 694 z "},"İ":{"ha":375,"x_min":136,"x_max":239,"o":"m 156 972 l 219 972 l 219 0 l 156 0 l 156 972 m 188 1108 q 150 1122 164 1108 q 136 1160 136 1136 q 150 1197 136 1183 q 188 1211 164 1211 q 225 1197 211 1211 q 239 1160 239 1183 q 225 1122 239 1136 q 188 1108 211 1108 z "},"ı":{"ha":356,"x_min":147,"x_max":208,"o":"m 147 694 l 208 694 l 208 0 l 147 0 l 147 694 z "},"Ĳ":{"ha":1111,"x_min":156,"x_max":979,"o":"m 156 972 l 219 972 l 219 0 l 156 0 l 156 972 m 701 -8 q 508 66 581 -8 q 424 278 435 140 l 488 278 q 701 50 508 50 q 790 66 754 50 q 851 107 826 82 q 888 165 875 132 q 906 230 900 197 q 914 294 913 263 q 915 347 915 325 l 915 972 l 979 972 l 979 340 q 978 288 979 321 q 968 216 976 254 q 943 138 960 178 q 896 65 926 97 q 817 13 865 33 q 701 -8 769 -8 z "},"ĳ":{"ha":683,"x_min":128,"x_max":556,"o":"m 147 694 l 208 694 l 208 0 l 147 0 l 147 694 m 328 -222 l 364 -222 q 428 -206 406 -222 q 460 -167 450 -190 q 473 -119 471 -144 q 475 -76 475 -94 l 475 694 l 536 694 l 536 -83 q 533 -137 536 -104 q 514 -202 531 -171 q 463 -256 497 -233 q 364 -278 428 -278 l 328 -278 l 328 -222 m 506 832 q 469 846 483 832 q 456 882 456 860 q 469 918 456 904 q 506 932 483 932 q 542 918 528 932 q 556 882 556 904 q 542 846 556 860 q 506 832 528 832 m 178 832 q 142 846 156 832 q 128 882 128 860 q 142 918 128 904 q 178 932 156 932 q 214 918 200 932 q 228 882 228 904 q 214 846 228 860 q 178 832 200 832 z "},"Ĵ":{"ha":743,"x_min":56,"x_max":788,"o":"m 333 -8 q 140 66 213 -8 q 56 278 67 140 l 119 278 q 333 50 140 50 q 422 66 386 50 q 483 107 458 82 q 519 165 507 132 q 538 230 532 197 q 546 294 544 263 q 547 347 547 325 l 547 972 l 611 972 l 611 340 q 610 288 611 321 q 600 216 608 254 q 575 138 592 178 q 528 65 558 97 q 449 13 497 33 q 333 -8 401 -8 m 544 1271 l 614 1271 l 788 1063 l 715 1063 l 579 1208 l 443 1063 l 371 1063 l 544 1271 z "},"ĵ":{"ha":356,"x_min":-22,"x_max":381,"o":"m 0 -222 l 36 -222 q 100 -206 78 -222 q 133 -167 122 -190 q 145 -119 143 -144 q 147 -76 147 -94 l 147 694 l 208 694 l 208 -83 q 206 -137 208 -104 q 186 -202 203 -171 q 135 -256 169 -233 q 36 -278 100 -278 l 0 -278 l 0 -222 m 142 993 l 217 993 l 381 785 l 311 785 l 179 938 l 47 785 l -22 785 l 142 993 z "},"Ķ":{"ha":882,"x_min":139,"x_max":819,"o":"m 139 972 l 203 972 l 203 400 l 711 972 l 792 972 l 413 542 l 819 0 l 736 0 l 367 494 l 203 310 l 203 0 l 139 0 l 139 972 m 410 -69 l 490 -69 l 371 -278 l 310 -278 l 410 -69 z "},"ķ":{"ha":708,"x_min":132,"x_max":660,"o":"m 132 972 l 193 972 l 193 278 l 557 694 l 632 694 l 364 390 l 660 0 l 582 0 l 324 343 l 193 199 l 193 0 l 132 0 l 132 972 m 331 -69 l 406 -69 l 283 -278 l 225 -278 l 331 -69 z "},"ĸ":{"ha":708,"x_min":132,"x_max":660,"o":"m 132 694 l 193 694 l 193 278 l 560 694 l 632 694 l 364 390 l 660 0 l 582 0 l 322 344 l 193 200 l 193 0 l 132 0 l 132 694 z "},"Ĺ":{"ha":715,"x_min":121,"x_max":674,"o":"m 139 972 l 203 972 l 203 58 l 674 58 l 674 0 l 139 0 l 139 972 m 296 1271 l 385 1271 l 193 1063 l 121 1063 l 296 1271 z "},"ĺ":{"ha":403,"x_min":114,"x_max":364,"o":"m 290 0 q 199 21 232 0 q 152 70 167 42 q 135 126 138 99 q 132 165 132 153 l 132 972 l 193 972 l 193 172 q 219 83 193 110 q 297 56 244 56 l 340 56 l 340 0 l 290 0 l 290 0 m 278 1271 l 364 1271 l 183 1063 l 114 1063 l 278 1271 z "},"Ļ":{"ha":715,"x_min":139,"x_max":674,"o":"m 139 972 l 203 972 l 203 58 l 674 58 l 674 0 l 139 0 l 139 972 m 379 -69 l 460 -69 l 340 -278 l 279 -278 l 379 -69 z "},"ļ":{"ha":403,"x_min":121,"x_max":340,"o":"m 290 0 q 199 21 232 0 q 152 70 167 42 q 135 126 138 99 q 132 165 132 153 l 132 972 l 193 972 l 193 172 q 219 83 193 110 q 297 56 244 56 l 340 56 l 340 0 l 290 0 l 290 0 m 226 -69 l 301 -69 l 179 -278 l 121 -278 l 226 -69 z "},"Ľ":{"ha":715,"x_min":139,"x_max":674,"o":"m 139 972 l 203 972 l 203 58 l 674 58 l 674 0 l 139 0 l 139 972 m 411 972 l 481 972 l 461 764 l 411 764 l 411 972 z "},"ľ":{"ha":403,"x_min":132,"x_max":346,"o":"m 290 0 q 199 21 232 0 q 152 70 167 42 q 135 126 138 99 q 132 165 132 153 l 132 972 l 193 972 l 193 172 q 219 83 193 110 q 297 56 244 56 l 340 56 l 340 0 l 290 0 l 290 0 m 276 972 l 346 972 l 326 778 l 276 778 l 276 972 z "},"Ŀ":{"ha":715,"x_min":139,"x_max":674,"o":"m 139 972 l 203 972 l 203 58 l 674 58 l 674 0 l 139 0 l 139 972 m 528 485 q 490 499 504 485 q 476 536 476 513 q 490 574 476 560 q 528 588 504 588 q 565 574 551 588 q 579 536 579 560 q 565 499 579 513 q 528 485 551 485 z "},"ŀ":{"ha":451,"x_min":132,"x_max":438,"o":"m 290 0 q 199 21 232 0 q 152 70 167 42 q 135 126 138 99 q 132 165 132 153 l 132 972 l 193 972 l 193 172 q 219 83 193 110 q 297 56 244 56 l 340 56 l 340 0 l 290 0 l 290 0 m 388 465 q 351 479 365 465 q 338 515 338 493 q 351 551 338 538 q 388 565 365 565 q 424 551 410 565 q 438 515 438 538 q 424 479 438 493 q 388 465 410 465 z "},"Ł":{"ha":792,"x_min":49,"x_max":750,"o":"m 215 444 l 49 336 l 49 400 l 215 508 l 215 972 l 279 972 l 279 550 l 514 703 l 514 639 l 279 486 l 279 58 l 750 58 l 750 0 l 215 0 l 215 444 z "},"ł":{"ha":431,"x_min":42,"x_max":361,"o":"m 311 0 q 220 21 253 0 q 173 70 188 42 q 156 126 158 99 q 153 165 153 153 l 153 507 l 42 435 l 42 496 l 153 568 l 153 972 l 214 972 l 214 607 l 361 703 l 361 642 l 214 546 l 214 172 q 240 83 214 110 q 318 56 265 56 l 361 56 l 361 0 l 311 0 l 311 0 z "},"Ń":{"ha":986,"x_min":139,"x_max":847,"o":"m 139 972 l 239 972 l 781 78 l 783 78 l 783 972 l 847 972 l 847 0 l 753 0 l 206 903 l 203 903 l 203 0 l 139 0 l 139 972 m 618 1271 l 707 1271 l 515 1063 l 443 1063 l 618 1271 z "},"ń":{"ha":799,"x_min":132,"x_max":674,"o":"m 132 694 l 182 694 l 190 576 l 193 576 q 287 670 229 638 q 415 703 344 703 q 606 633 538 703 q 674 431 674 564 l 674 0 l 613 0 l 613 424 q 560 592 613 538 q 410 647 508 647 q 322 631 361 647 q 253 586 282 615 q 209 515 225 557 q 193 424 193 474 l 193 0 l 132 0 l 132 694 m 518 993 l 604 993 l 424 785 l 354 785 l 518 993 z "},"Ņ":{"ha":986,"x_min":139,"x_max":847,"o":"m 139 972 l 239 972 l 781 78 l 783 78 l 783 972 l 847 972 l 847 0 l 753 0 l 206 903 l 203 903 l 203 0 l 139 0 l 139 972 m 465 -69 l 546 -69 l 426 -278 l 365 -278 l 465 -69 z "},"ņ":{"ha":799,"x_min":132,"x_max":674,"o":"m 132 694 l 182 694 l 190 576 l 193 576 q 287 670 229 638 q 415 703 344 703 q 606 633 538 703 q 674 431 674 564 l 674 0 l 613 0 l 613 424 q 560 592 613 538 q 410 647 508 647 q 322 631 361 647 q 253 586 282 615 q 209 515 225 557 q 193 424 193 474 l 193 0 l 132 0 l 132 694 m 379 -69 l 454 -69 l 332 -278 l 274 -278 l 379 -69 z "},"Ň":{"ha":986,"x_min":139,"x_max":847,"o":"m 139 972 l 239 972 l 781 78 l 783 78 l 783 972 l 847 972 l 847 0 l 753 0 l 206 903 l 203 903 l 203 0 l 139 0 l 139 972 m 285 1271 l 357 1271 l 493 1125 l 629 1271 l 701 1271 l 528 1063 l 458 1063 l 285 1271 z "},"ň":{"ha":799,"x_min":132,"x_max":674,"o":"m 132 694 l 182 694 l 190 576 l 193 576 q 287 670 229 638 q 415 703 344 703 q 606 633 538 703 q 674 431 674 564 l 674 0 l 613 0 l 613 424 q 560 592 613 538 q 410 647 508 647 q 322 631 361 647 q 253 586 282 615 q 209 515 225 557 q 193 424 193 474 l 193 0 l 132 0 l 132 694 m 201 993 l 271 993 l 403 840 l 535 993 l 604 993 l 440 785 l 365 785 l 201 993 z "},"ŉ":{"ha":917,"x_min":29,"x_max":792,"o":"m 250 694 l 300 694 l 308 576 l 311 576 q 405 670 347 638 q 533 703 463 703 q 724 633 656 703 q 792 431 792 564 l 792 0 l 731 0 l 731 424 q 678 592 731 538 q 528 647 626 647 q 440 631 479 647 q 372 586 400 615 q 327 515 343 557 q 311 424 311 474 l 311 0 l 250 0 l 250 694 m 132 972 l 196 972 l 88 653 l 29 653 l 132 972 z "},"Ŋ":{"ha":986,"x_min":139,"x_max":847,"o":"m 139 972 l 239 972 l 781 125 l 783 125 l 783 972 l 847 972 l 847 83 q 765 -190 847 -101 q 535 -278 682 -278 l 479 -278 l 479 -219 l 535 -219 q 702 -167 640 -219 q 779 7 764 -115 l 206 903 l 203 903 l 203 0 l 139 0 l 139 972 z "},"ŋ":{"ha":799,"x_min":132,"x_max":674,"o":"m 132 694 l 182 694 l 190 576 l 193 576 q 287 670 229 638 q 415 703 344 703 q 606 633 538 703 q 674 431 674 564 l 674 28 q 610 -206 674 -133 q 438 -278 547 -278 l 396 -278 l 396 -222 l 424 -222 q 507 -210 471 -222 q 566 -167 543 -197 q 601 -88 589 -137 q 613 35 613 -39 l 613 424 q 560 592 613 538 q 410 647 508 647 q 322 631 361 647 q 253 586 282 615 q 209 515 225 557 q 193 424 193 474 l 193 0 l 132 0 l 132 694 z "},"Ō":{"ha":986,"x_min":104,"x_max":882,"o":"m 493 -8 q 336 22 407 -8 q 213 110 265 51 q 133 253 161 168 q 104 451 104 339 l 104 535 q 133 724 104 640 q 214 864 163 807 q 337 951 265 921 q 493 981 408 981 q 649 951 578 981 q 773 864 721 921 q 853 724 825 807 q 882 535 882 642 l 882 451 q 853 254 882 340 q 772 110 824 168 q 649 22 721 51 q 493 -8 578 -8 m 493 53 q 622 78 563 53 q 724 154 681 104 q 791 278 767 204 q 815 451 815 353 l 815 535 q 791 699 815 628 q 724 820 767 771 q 622 894 681 869 q 493 919 563 919 q 365 894 424 919 q 263 820 306 869 q 195 699 219 771 q 171 535 171 628 l 171 451 q 195 278 171 353 q 263 154 219 204 q 365 78 306 104 q 493 53 424 53 m 299 1189 l 688 1189 l 688 1131 l 299 1131 l 299 1189 z "},"ō":{"ha":764,"x_min":90,"x_max":674,"o":"m 382 -8 q 263 13 317 -8 q 170 76 208 35 q 111 179 132 118 q 90 319 90 240 l 90 375 q 111 515 90 454 q 171 618 132 576 q 263 681 210 660 q 382 703 317 703 q 501 681 447 703 q 594 618 556 660 q 653 515 632 576 q 674 375 674 454 l 674 319 q 653 179 674 240 q 593 76 632 118 q 501 13 554 35 q 382 -8 447 -8 m 382 47 q 547 116 483 47 q 610 319 610 185 l 610 375 q 546 578 610 510 q 382 647 482 647 q 217 578 281 647 q 154 375 154 510 l 154 319 q 218 116 154 185 q 382 47 282 47 m 201 910 l 563 910 l 563 854 l 201 854 l 201 910 z "},"Ŏ":{"ha":986,"x_min":104,"x_max":882,"o":"m 493 -8 q 336 22 407 -8 q 213 110 265 51 q 133 253 161 168 q 104 451 104 339 l 104 535 q 133 724 104 640 q 214 864 163 807 q 337 951 265 921 q 493 981 408 981 q 649 951 578 981 q 773 864 721 921 q 853 724 825 807 q 882 535 882 642 l 882 451 q 853 254 882 340 q 772 110 824 168 q 649 22 721 51 q 493 -8 578 -8 m 493 53 q 622 78 563 53 q 724 154 681 104 q 791 278 767 204 q 815 451 815 353 l 815 535 q 791 699 815 628 q 724 820 767 771 q 622 894 681 869 q 493 919 563 919 q 365 894 424 919 q 263 820 306 869 q 195 699 219 771 q 171 535 171 628 l 171 451 q 195 278 171 353 q 263 154 219 204 q 365 78 306 104 q 493 53 424 53 m 493 1061 q 351 1113 403 1061 q 299 1250 299 1164 l 354 1250 q 390 1152 354 1188 q 493 1117 426 1117 q 596 1152 560 1117 q 632 1250 632 1188 l 688 1250 q 635 1113 688 1164 q 493 1061 583 1061 z "},"ŏ":{"ha":764,"x_min":90,"x_max":674,"o":"m 382 -8 q 263 13 317 -8 q 170 76 208 35 q 111 179 132 118 q 90 319 90 240 l 90 375 q 111 515 90 454 q 171 618 132 576 q 263 681 210 660 q 382 703 317 703 q 501 681 447 703 q 594 618 556 660 q 653 515 632 576 q 674 375 674 454 l 674 319 q 653 179 674 240 q 593 76 632 118 q 501 13 554 35 q 382 -8 447 -8 m 382 47 q 547 116 483 47 q 610 319 610 185 l 610 375 q 546 578 610 510 q 382 647 482 647 q 217 578 281 647 q 154 375 154 510 l 154 319 q 218 116 154 185 q 382 47 282 47 m 382 783 q 252 835 303 783 q 201 972 201 886 l 254 972 q 289 872 254 908 q 382 836 324 836 q 475 872 440 836 q 510 972 510 908 l 563 972 q 512 835 563 886 q 382 783 461 783 z "},"Ő":{"ha":986,"x_min":104,"x_max":882,"o":"m 493 -8 q 336 22 407 -8 q 213 110 265 51 q 133 253 161 168 q 104 451 104 339 l 104 535 q 133 724 104 640 q 214 864 163 807 q 337 951 265 921 q 493 981 408 981 q 649 951 578 981 q 773 864 721 921 q 853 724 825 807 q 882 535 882 642 l 882 451 q 853 254 882 340 q 772 110 824 168 q 649 22 721 51 q 493 -8 578 -8 m 493 53 q 622 78 563 53 q 724 154 681 104 q 791 278 767 204 q 815 451 815 353 l 815 535 q 791 699 815 628 q 724 820 767 771 q 622 894 681 869 q 493 919 563 919 q 365 894 424 919 q 263 820 306 869 q 195 699 219 771 q 171 535 171 628 l 171 451 q 195 278 171 353 q 263 154 219 204 q 365 78 306 104 q 493 53 424 53 m 504 1271 l 590 1271 l 415 1063 l 346 1063 l 504 1271 m 715 1271 l 804 1271 l 613 1063 l 540 1063 l 715 1271 z "},"ő":{"ha":764,"x_min":90,"x_max":681,"o":"m 382 -8 q 263 13 317 -8 q 170 76 208 35 q 111 179 132 118 q 90 319 90 240 l 90 375 q 111 515 90 454 q 171 618 132 576 q 263 681 210 660 q 382 703 317 703 q 501 681 447 703 q 594 618 556 660 q 653 515 632 576 q 674 375 674 454 l 674 319 q 653 179 674 240 q 593 76 632 118 q 501 13 554 35 q 382 -8 447 -8 m 382 47 q 547 116 483 47 q 610 319 610 185 l 610 375 q 546 578 610 510 q 382 647 482 647 q 217 578 281 647 q 154 375 154 510 l 154 319 q 218 116 154 185 q 382 47 282 47 m 383 993 l 467 993 l 303 785 l 236 785 l 383 993 m 594 993 l 681 993 l 500 785 l 431 785 l 594 993 z "},"Œ":{"ha":1333,"x_min":104,"x_max":1257,"o":"m 504 -8 q 344 22 417 -8 q 217 110 271 53 q 134 251 164 168 q 104 438 104 333 l 104 535 q 134 722 104 639 q 217 862 164 804 q 344 950 271 919 q 504 981 418 981 q 623 963 572 981 q 708 924 674 946 l 708 972 l 1257 972 l 1257 914 l 772 914 l 772 529 l 1174 529 l 1174 471 l 772 471 l 772 58 l 1257 58 l 1257 0 l 708 0 l 708 49 q 623 9 674 26 q 504 -8 572 -8 m 171 438 q 196 276 171 347 q 266 155 221 204 q 372 79 311 106 q 504 53 433 53 q 623 74 572 53 q 708 121 674 94 l 708 851 q 623 899 674 878 q 504 919 572 919 q 371 894 432 919 q 265 819 310 868 q 196 698 221 769 q 171 535 171 626 l 171 438 z "},"œ":{"ha":1264,"x_min":90,"x_max":1174,"o":"m 381 -8 q 262 13 315 -8 q 170 76 208 35 q 111 176 132 117 q 90 313 90 236 l 90 382 q 111 518 90 458 q 171 619 132 578 q 263 681 210 660 q 381 703 315 703 q 539 660 472 703 q 639 533 606 617 q 737 660 671 617 q 890 703 803 703 q 1005 681 953 703 q 1094 619 1057 660 q 1153 519 1132 579 q 1174 382 1174 458 l 1174 333 l 671 333 q 732 119 671 189 q 890 50 793 50 q 1031 88 985 50 q 1099 194 1078 126 l 1163 194 q 1076 48 1142 104 q 890 -8 1011 -8 q 737 35 803 -8 q 639 161 671 78 q 538 35 606 79 q 381 -8 471 -8 m 890 644 q 732 579 793 644 q 671 389 671 514 l 1110 389 q 1047 580 1107 515 q 890 644 986 644 m 381 50 q 544 117 481 50 q 607 313 607 185 l 607 382 q 590 494 607 444 q 543 576 574 543 q 472 627 513 610 q 381 644 431 644 q 217 577 281 644 q 154 382 154 510 l 154 313 q 171 201 154 250 q 218 118 188 151 q 290 67 249 85 q 381 50 331 50 z "},"Ŕ":{"ha":861,"x_min":139,"x_max":792,"o":"m 139 972 l 438 972 q 683 897 601 972 q 764 693 764 822 q 714 525 764 593 q 564 429 664 457 l 792 0 l 717 0 l 499 417 q 468 414 483 414 q 438 414 453 414 l 203 414 l 203 0 l 139 0 l 139 972 m 431 472 q 634 530 571 472 q 697 693 697 588 q 633 856 697 797 q 431 914 569 914 l 203 914 l 203 472 l 431 472 m 528 1271 l 617 1271 l 425 1063 l 353 1063 l 528 1271 z "},"ŕ":{"ha":521,"x_min":132,"x_max":511,"o":"m 132 694 l 182 694 l 190 576 l 193 576 q 283 670 225 638 q 415 703 342 703 l 486 703 l 486 647 l 424 647 q 253 588 314 647 q 193 424 193 528 l 193 0 l 132 0 l 132 694 m 425 993 l 511 993 l 331 785 l 261 785 l 425 993 z "},"Ŗ":{"ha":861,"x_min":139,"x_max":792,"o":"m 139 972 l 438 972 q 683 897 601 972 q 764 693 764 822 q 714 525 764 593 q 564 429 664 457 l 792 0 l 717 0 l 499 417 q 468 414 483 414 q 438 414 453 414 l 203 414 l 203 0 l 139 0 l 139 972 m 431 472 q 634 530 571 472 q 697 693 697 588 q 633 856 697 797 q 431 914 569 914 l 203 914 l 203 472 l 431 472 m 425 -69 l 506 -69 l 386 -278 l 325 -278 l 425 -69 z "},"ŗ":{"ha":521,"x_min":35,"x_max":486,"o":"m 132 694 l 182 694 l 190 576 l 193 576 q 283 670 225 638 q 415 703 342 703 l 486 703 l 486 647 l 424 647 q 253 588 314 647 q 193 424 193 528 l 193 0 l 132 0 l 132 694 m 140 -69 l 215 -69 l 93 -278 l 35 -278 l 140 -69 z "},"Ř":{"ha":861,"x_min":139,"x_max":792,"o":"m 139 972 l 438 972 q 683 897 601 972 q 764 693 764 822 q 714 525 764 593 q 564 429 664 457 l 792 0 l 717 0 l 499 417 q 468 414 483 414 q 438 414 453 414 l 203 414 l 203 0 l 139 0 l 139 972 m 431 472 q 634 530 571 472 q 697 693 697 588 q 633 856 697 797 q 431 914 569 914 l 203 914 l 203 472 l 431 472 m 194 1271 l 267 1271 l 403 1125 l 539 1271 l 611 1271 l 438 1063 l 368 1063 l 194 1271 z "},"ř":{"ha":521,"x_min":108,"x_max":511,"o":"m 132 694 l 182 694 l 190 576 l 193 576 q 283 670 225 638 q 415 703 342 703 l 486 703 l 486 647 l 424 647 q 253 588 314 647 q 193 424 193 528 l 193 0 l 132 0 l 132 694 m 108 993 l 178 993 l 310 840 l 442 993 l 511 993 l 347 785 l 272 785 l 108 993 z "},"Ś":{"ha":847,"x_min":97,"x_max":750,"o":"m 438 -8 q 192 69 276 -8 q 97 278 108 147 l 164 278 q 241 111 175 172 q 438 50 307 50 q 625 103 567 50 q 683 250 683 157 q 641 358 683 319 q 535 422 599 397 q 397 466 471 447 q 260 515 324 485 q 153 594 196 544 q 111 729 111 643 q 131 829 111 783 q 190 908 151 875 q 286 961 229 942 q 417 981 343 981 q 651 906 571 981 q 743 708 732 832 l 676 708 q 603 865 665 808 q 417 922 540 922 q 236 869 294 922 q 178 729 178 817 q 202 640 178 675 q 267 583 226 606 q 358 544 307 560 q 464 514 410 529 q 569 481 518 499 q 661 433 621 463 q 726 360 701 404 q 750 250 750 317 q 731 145 750 193 q 672 63 711 97 q 574 10 632 29 q 438 -8 515 -8 m 542 1271 l 631 1271 l 439 1063 l 367 1063 l 542 1271 z "},"ś":{"ha":681,"x_min":90,"x_max":590,"o":"m 347 -8 q 162 45 224 -8 q 90 181 100 99 l 154 181 q 208 83 165 118 q 347 47 251 47 q 485 83 443 47 q 526 179 526 119 q 495 257 526 229 q 417 303 464 285 q 315 335 369 321 q 214 370 261 349 q 135 426 167 392 q 104 522 104 461 q 163 651 104 599 q 333 703 221 703 q 438 689 393 703 q 513 651 482 675 q 560 596 543 628 q 583 528 578 564 l 517 528 q 465 614 506 581 q 333 647 424 647 q 208 612 249 647 q 168 522 168 576 q 199 449 168 475 q 278 407 231 424 q 379 376 325 390 q 481 340 433 363 q 559 281 528 318 q 590 179 590 243 q 529 46 590 100 q 347 -8 468 -8 m 456 993 l 542 993 l 361 785 l 292 785 l 456 993 z "},"Ŝ":{"ha":847,"x_min":97,"x_max":750,"o":"m 438 -8 q 192 69 276 -8 q 97 278 108 147 l 164 278 q 241 111 175 172 q 438 50 307 50 q 625 103 567 50 q 683 250 683 157 q 641 358 683 319 q 535 422 599 397 q 397 466 471 447 q 260 515 324 485 q 153 594 196 544 q 111 729 111 643 q 131 829 111 783 q 190 908 151 875 q 286 961 229 942 q 417 981 343 981 q 651 906 571 981 q 743 708 732 832 l 676 708 q 603 865 665 808 q 417 922 540 922 q 236 869 294 922 q 178 729 178 817 q 202 640 178 675 q 267 583 226 606 q 358 544 307 560 q 464 514 410 529 q 569 481 518 499 q 661 433 621 463 q 726 360 701 404 q 750 250 750 317 q 731 145 750 193 q 672 63 711 97 q 574 10 632 29 q 438 -8 515 -8 m 382 1271 l 451 1271 l 625 1063 l 553 1063 l 417 1208 l 281 1063 l 208 1063 l 382 1271 z "},"ŝ":{"ha":681,"x_min":90,"x_max":590,"o":"m 347 -8 q 162 45 224 -8 q 90 181 100 99 l 154 181 q 208 83 165 118 q 347 47 251 47 q 485 83 443 47 q 526 179 526 119 q 495 257 526 229 q 417 303 464 285 q 315 335 369 321 q 214 370 261 349 q 135 426 167 392 q 104 522 104 461 q 163 651 104 599 q 333 703 221 703 q 438 689 393 703 q 513 651 482 675 q 560 596 543 628 q 583 528 578 564 l 517 528 q 465 614 506 581 q 333 647 424 647 q 208 612 249 647 q 168 522 168 576 q 199 449 168 475 q 278 407 231 424 q 379 376 325 390 q 481 340 433 363 q 559 281 528 318 q 590 179 590 243 q 529 46 590 100 q 347 -8 468 -8 m 303 993 l 378 993 l 542 785 l 472 785 l 340 938 l 208 785 l 139 785 l 303 993 z "},"Ş":{"ha":847,"x_min":97,"x_max":750,"o":"m 333 -222 l 410 -222 q 478 -164 478 -222 q 410 -106 478 -106 l 381 -106 l 406 -7 q 183 77 260 1 q 97 278 107 153 l 164 278 q 241 111 175 172 q 438 50 307 50 q 625 103 567 50 q 683 250 683 157 q 641 358 683 319 q 535 422 599 397 q 397 466 471 447 q 260 515 324 485 q 153 594 196 544 q 111 729 111 643 q 131 829 111 783 q 190 908 151 875 q 286 961 229 942 q 417 981 343 981 q 651 906 571 981 q 743 708 732 832 l 676 708 q 603 865 665 808 q 417 922 540 922 q 236 869 294 922 q 178 729 178 817 q 202 640 178 675 q 267 583 226 606 q 358 544 307 560 q 464 514 410 529 q 569 481 518 499 q 661 433 621 463 q 726 360 701 404 q 750 250 750 317 q 678 69 750 140 q 464 -8 607 -1 l 451 -56 q 542 -161 542 -68 q 510 -246 542 -214 q 417 -278 479 -278 l 333 -278 l 333 -222 z "},"ş":{"ha":681,"x_min":90,"x_max":590,"o":"m 236 -225 l 313 -225 q 367 -210 350 -225 q 383 -164 383 -194 q 367 -118 383 -133 q 313 -103 350 -103 l 283 -103 l 310 -7 q 153 53 206 1 q 90 181 100 104 l 154 181 q 208 83 165 118 q 347 47 251 47 q 485 83 443 47 q 526 179 526 119 q 495 257 526 229 q 417 303 464 285 q 315 335 369 321 q 214 370 261 349 q 135 426 167 392 q 104 522 104 461 q 163 651 104 599 q 333 703 221 703 q 438 689 393 703 q 513 651 482 675 q 560 596 543 628 q 583 528 578 564 l 517 528 q 465 614 506 581 q 333 647 424 647 q 208 612 249 647 q 168 522 168 576 q 199 449 168 475 q 278 407 231 424 q 379 376 325 390 q 481 340 433 363 q 559 281 528 318 q 590 179 590 243 q 534 49 590 103 q 365 -8 478 -4 l 353 -56 q 421 -90 397 -62 q 444 -161 444 -117 q 413 -246 444 -214 q 319 -278 382 -278 l 236 -278 l 236 -225 z "},"Š":{"ha":847,"x_min":97,"x_max":750,"o":"m 438 -8 q 192 69 276 -8 q 97 278 108 147 l 164 278 q 241 111 175 172 q 438 50 307 50 q 625 103 567 50 q 683 250 683 157 q 641 358 683 319 q 535 422 599 397 q 397 466 471 447 q 260 515 324 485 q 153 594 196 544 q 111 729 111 643 q 131 829 111 783 q 190 908 151 875 q 286 961 229 942 q 417 981 343 981 q 651 906 571 981 q 743 708 732 832 l 676 708 q 603 865 665 808 q 417 922 540 922 q 236 869 294 922 q 178 729 178 817 q 202 640 178 675 q 267 583 226 606 q 358 544 307 560 q 464 514 410 529 q 569 481 518 499 q 661 433 621 463 q 726 360 701 404 q 750 250 750 317 q 731 145 750 193 q 672 63 711 97 q 574 10 632 29 q 438 -8 515 -8 m 208 1271 l 281 1271 l 417 1125 l 553 1271 l 625 1271 l 451 1063 l 382 1063 l 208 1271 z "},"š":{"ha":681,"x_min":90,"x_max":590,"o":"m 347 -8 q 162 45 224 -8 q 90 181 100 99 l 154 181 q 208 83 165 118 q 347 47 251 47 q 485 83 443 47 q 526 179 526 119 q 495 257 526 229 q 417 303 464 285 q 315 335 369 321 q 214 370 261 349 q 135 426 167 392 q 104 522 104 461 q 163 651 104 599 q 333 703 221 703 q 438 689 393 703 q 513 651 482 675 q 560 596 543 628 q 583 528 578 564 l 517 528 q 465 614 506 581 q 333 647 424 647 q 208 612 249 647 q 168 522 168 576 q 199 449 168 475 q 278 407 231 424 q 379 376 325 390 q 481 340 433 363 q 559 281 528 318 q 590 179 590 243 q 529 46 590 100 q 347 -8 468 -8 m 139 993 l 208 993 l 340 840 l 472 993 l 542 993 l 378 785 l 303 785 l 139 993 z "},"Ţ":{"ha":806,"x_min":42,"x_max":764,"o":"m 371 914 l 42 914 l 42 972 l 764 972 l 764 914 l 435 914 l 435 0 l 431 0 l 417 -56 q 507 -161 507 -68 q 476 -246 507 -214 q 382 -278 444 -278 l 299 -278 l 299 -222 l 375 -222 q 443 -164 443 -222 q 375 -106 443 -106 l 346 -106 l 372 0 l 371 0 l 371 914 z "},"ţ":{"ha":500,"x_min":49,"x_max":438,"o":"m 215 -225 l 292 -225 q 346 -210 329 -225 q 363 -164 363 -194 q 346 -118 363 -133 q 292 -103 329 -103 l 263 -103 l 292 4 q 224 33 247 13 q 189 79 200 54 q 176 128 178 104 q 174 165 174 151 l 174 639 l 49 639 l 49 694 l 174 694 l 174 889 l 235 889 l 235 694 l 424 694 l 424 639 l 235 639 l 235 172 q 261 83 235 110 q 346 56 288 56 l 438 56 l 438 0 l 346 0 l 332 -56 q 400 -90 376 -62 q 424 -161 424 -117 q 392 -246 424 -214 q 299 -278 361 -278 l 215 -278 l 215 -225 z "},"Ť":{"ha":806,"x_min":42,"x_max":764,"o":"m 371 914 l 42 914 l 42 972 l 764 972 l 764 914 l 435 914 l 435 0 l 371 0 l 371 914 m 194 1271 l 267 1271 l 403 1125 l 539 1271 l 611 1271 l 438 1063 l 368 1063 l 194 1271 z "},"ť":{"ha":500,"x_min":49,"x_max":438,"o":"m 340 0 q 244 20 278 0 q 195 67 211 40 q 176 122 179 94 q 174 165 174 150 l 174 639 l 49 639 l 49 694 l 174 694 l 174 889 l 235 889 l 235 694 l 424 694 l 424 639 l 235 639 l 235 172 q 261 83 235 110 q 346 56 288 56 l 438 56 l 438 0 l 340 0 l 340 0 m 318 972 l 388 972 l 368 778 l 318 778 l 318 972 z "},"Ŧ":{"ha":806,"x_min":42,"x_max":764,"o":"m 371 458 l 167 458 l 167 514 l 371 514 l 371 914 l 42 914 l 42 972 l 764 972 l 764 914 l 435 914 l 435 514 l 639 514 l 639 458 l 435 458 l 435 0 l 371 0 l 371 458 z "},"ŧ":{"ha":514,"x_min":56,"x_max":444,"o":"m 56 389 l 181 389 l 181 639 l 56 639 l 56 694 l 181 694 l 181 889 l 242 889 l 242 694 l 431 694 l 431 639 l 242 639 l 242 389 l 431 389 l 431 333 l 242 333 l 242 172 q 268 83 242 110 q 353 56 294 56 l 444 56 l 444 0 l 347 0 q 251 20 285 0 q 202 67 218 40 q 183 122 186 94 q 181 165 181 150 l 181 333 l 56 333 l 56 389 z "},"Ũ":{"ha":958,"x_min":132,"x_max":826,"o":"m 479 -8 q 225 88 318 -8 q 132 368 132 185 l 132 972 l 196 972 l 196 375 q 272 131 196 211 q 479 50 347 50 q 688 131 613 50 q 763 375 763 211 l 763 972 l 826 972 l 826 368 q 733 89 826 186 q 479 -8 639 -8 m 565 1083 q 503 1098 529 1083 q 456 1131 476 1113 q 415 1163 435 1149 q 371 1178 394 1178 q 301 1097 301 1178 l 246 1097 q 279 1201 246 1167 q 371 1236 313 1236 q 433 1222 407 1236 q 481 1189 460 1207 q 522 1156 501 1171 q 565 1142 542 1142 q 635 1222 635 1142 l 690 1222 q 657 1118 690 1153 q 565 1083 624 1083 z "},"ũ":{"ha":785,"x_min":125,"x_max":653,"o":"m 368 -8 q 191 61 257 -8 q 125 264 125 131 l 125 694 l 186 694 l 186 271 q 237 102 186 157 q 375 47 288 47 q 463 63 422 47 q 531 108 503 79 q 576 179 560 138 q 592 271 592 221 l 592 694 l 653 694 l 653 0 l 603 0 l 594 118 l 592 118 q 499 24 557 57 q 368 -8 442 -8 m 479 806 q 421 821 446 806 q 376 854 396 836 q 338 888 357 872 q 299 903 319 903 q 251 883 269 903 q 233 819 233 863 l 181 819 q 213 924 181 889 q 299 958 246 958 q 356 943 332 958 q 400 910 381 928 q 438 876 419 892 q 479 861 457 861 q 526 881 508 861 q 544 944 544 901 l 597 944 q 565 840 597 875 q 479 806 532 806 z "},"Ū":{"ha":958,"x_min":132,"x_max":826,"o":"m 479 -8 q 225 88 318 -8 q 132 368 132 185 l 132 972 l 196 972 l 196 375 q 272 131 196 211 q 479 50 347 50 q 688 131 613 50 q 763 375 763 211 l 763 972 l 826 972 l 826 368 q 733 89 826 186 q 479 -8 639 -8 m 285 1189 l 674 1189 l 674 1131 l 285 1131 l 285 1189 z "},"ū":{"ha":785,"x_min":125,"x_max":653,"o":"m 368 -8 q 191 61 257 -8 q 125 264 125 131 l 125 694 l 186 694 l 186 271 q 237 102 186 157 q 375 47 288 47 q 463 63 422 47 q 531 108 503 79 q 576 179 560 138 q 592 271 592 221 l 592 694 l 653 694 l 653 0 l 603 0 l 594 118 l 592 118 q 499 24 557 57 q 368 -8 442 -8 m 208 910 l 569 910 l 569 854 l 208 854 l 208 910 z "},"Ŭ":{"ha":958,"x_min":132,"x_max":826,"o":"m 479 -8 q 225 88 318 -8 q 132 368 132 185 l 132 972 l 196 972 l 196 375 q 272 131 196 211 q 479 50 347 50 q 688 131 613 50 q 763 375 763 211 l 763 972 l 826 972 l 826 368 q 733 89 826 186 q 479 -8 639 -8 m 479 1061 q 337 1113 389 1061 q 285 1250 285 1164 l 340 1250 q 376 1152 340 1188 q 479 1117 413 1117 q 582 1152 546 1117 q 618 1250 618 1188 l 674 1250 q 622 1113 674 1164 q 479 1061 569 1061 z "},"ŭ":{"ha":785,"x_min":125,"x_max":653,"o":"m 368 -8 q 191 61 257 -8 q 125 264 125 131 l 125 694 l 186 694 l 186 271 q 237 102 186 157 q 375 47 288 47 q 463 63 422 47 q 531 108 503 79 q 576 179 560 138 q 592 271 592 221 l 592 694 l 653 694 l 653 0 l 603 0 l 594 118 l 592 118 q 499 24 557 57 q 368 -8 442 -8 m 389 783 q 259 835 310 783 q 208 972 208 886 l 261 972 q 296 872 261 908 q 389 836 331 836 q 482 872 447 836 q 517 972 517 908 l 569 972 q 519 835 569 886 q 389 783 468 783 z "},"Ů":{"ha":958,"x_min":132,"x_max":826,"o":"m 479 -8 q 225 88 318 -8 q 132 368 132 185 l 132 972 l 196 972 l 196 375 q 272 131 196 211 q 479 50 347 50 q 688 131 613 50 q 763 375 763 211 l 763 972 l 826 972 l 826 368 q 733 89 826 186 q 479 -8 639 -8 m 479 1024 q 380 1063 419 1024 q 340 1160 340 1101 q 380 1257 340 1218 q 479 1296 419 1296 q 578 1257 539 1296 q 618 1160 618 1218 q 578 1063 618 1101 q 479 1024 539 1024 m 479 1082 q 538 1104 515 1082 q 560 1160 560 1126 q 538 1215 560 1193 q 479 1238 515 1238 q 421 1215 443 1238 q 399 1160 399 1193 q 421 1104 399 1126 q 479 1082 443 1082 z "},"ů":{"ha":785,"x_min":125,"x_max":653,"o":"m 368 -8 q 191 61 257 -8 q 125 264 125 131 l 125 694 l 186 694 l 186 271 q 237 102 186 157 q 375 47 288 47 q 463 63 422 47 q 531 108 503 79 q 576 179 560 138 q 592 271 592 221 l 592 694 l 653 694 l 653 0 l 603 0 l 594 118 l 592 118 q 499 24 557 57 q 368 -8 442 -8 m 389 746 q 290 785 329 746 q 250 882 250 824 q 290 979 250 940 q 389 1018 329 1018 q 488 979 449 1018 q 528 882 528 940 q 488 785 528 824 q 389 746 449 746 m 389 801 q 449 824 426 801 q 472 882 472 846 q 449 940 472 918 q 389 963 426 963 q 328 940 351 963 q 306 882 306 918 q 328 824 306 846 q 389 801 351 801 z "},"Ű":{"ha":958,"x_min":132,"x_max":826,"o":"m 479 -8 q 225 88 318 -8 q 132 368 132 185 l 132 972 l 196 972 l 196 375 q 272 131 196 211 q 479 50 347 50 q 688 131 613 50 q 763 375 763 211 l 763 972 l 826 972 l 826 368 q 733 89 826 186 q 479 -8 639 -8 m 490 1271 l 576 1271 l 401 1063 l 332 1063 l 490 1271 m 701 1271 l 790 1271 l 599 1063 l 526 1063 l 701 1271 z "},"ű":{"ha":785,"x_min":125,"x_max":688,"o":"m 368 -8 q 191 61 257 -8 q 125 264 125 131 l 125 694 l 186 694 l 186 271 q 237 102 186 157 q 375 47 288 47 q 463 63 422 47 q 531 108 503 79 q 576 179 560 138 q 592 271 592 221 l 592 694 l 653 694 l 653 0 l 603 0 l 594 118 l 592 118 q 499 24 557 57 q 368 -8 442 -8 m 390 993 l 474 993 l 310 785 l 243 785 l 390 993 m 601 993 l 688 993 l 507 785 l 438 785 l 601 993 z "},"Ų":{"ha":958,"x_min":132,"x_max":826,"o":"m 479 -8 q 225 88 318 -8 q 132 368 132 185 l 132 972 l 196 972 l 196 375 q 272 131 196 211 q 479 50 347 50 q 688 131 613 50 q 763 375 763 211 l 763 972 l 826 972 l 826 368 q 786 167 826 250 q 672 40 746 85 q 553 -72 590 -25 q 515 -167 515 -118 q 531 -207 515 -192 q 569 -222 546 -222 l 646 -222 l 646 -278 l 569 -278 q 481 -249 511 -278 q 451 -174 451 -221 q 472 -88 451 -128 q 539 -4 493 -49 q 479 -8 510 -8 z "},"ų":{"ha":785,"x_min":125,"x_max":653,"o":"m 368 -8 q 191 61 257 -8 q 125 264 125 131 l 125 694 l 186 694 l 186 271 q 237 102 186 157 q 375 47 288 47 q 463 63 422 47 q 531 108 503 79 q 576 179 560 138 q 592 271 592 221 l 592 694 l 653 694 l 653 0 q 588 -58 614 -33 q 547 -101 563 -82 q 526 -137 532 -121 q 519 -169 519 -153 q 576 -225 519 -225 l 653 -225 l 653 -278 l 569 -278 q 488 -250 517 -278 q 458 -174 458 -222 q 465 -131 458 -151 q 488 -88 471 -111 q 532 -38 504 -65 q 601 25 560 -11 l 594 118 l 592 118 q 499 24 557 57 q 368 -8 442 -8 z "},"Ŵ":{"ha":1347,"x_min":69,"x_max":1278,"o":"m 69 972 l 136 972 l 389 69 l 392 69 l 629 972 l 718 972 l 971 69 l 974 69 l 1214 972 l 1278 972 l 1017 0 l 928 0 l 675 903 l 672 903 l 433 0 l 344 0 l 69 972 m 639 1271 l 708 1271 l 882 1063 l 810 1063 l 674 1208 l 538 1063 l 465 1063 l 639 1271 z "},"ŵ":{"ha":1069,"x_min":63,"x_max":1007,"o":"m 63 694 l 126 694 l 313 69 l 315 69 l 496 694 l 576 694 l 769 69 l 772 69 l 946 694 l 1007 694 l 811 0 l 731 0 l 538 619 l 535 619 l 353 0 l 272 0 l 63 694 m 497 993 l 572 993 l 736 785 l 667 785 l 535 938 l 403 785 l 333 785 l 497 993 z "},"Ŷ":{"ha":903,"x_min":56,"x_max":847,"o":"m 433 368 l 56 972 l 131 972 l 465 433 l 775 972 l 847 972 l 497 368 l 497 0 l 433 0 l 433 368 m 418 1271 l 488 1271 l 661 1063 l 589 1063 l 453 1208 l 317 1063 l 244 1063 l 418 1271 z "},"ŷ":{"ha":722,"x_min":49,"x_max":674,"o":"m 342 0 l 49 694 l 115 694 l 372 76 l 375 76 l 610 694 l 674 694 l 299 -278 l 235 -278 l 342 0 m 325 993 l 400 993 l 564 785 l 494 785 l 363 938 l 231 785 l 161 785 l 325 993 z "},"Ÿ":{"ha":903,"x_min":56,"x_max":847,"o":"m 433 368 l 56 972 l 131 972 l 465 433 l 775 972 l 847 972 l 497 368 l 497 0 l 433 0 l 433 368 m 301 1110 q 265 1124 279 1110 q 251 1160 251 1138 q 265 1196 251 1182 q 301 1210 279 1210 q 338 1196 324 1210 q 351 1160 351 1182 q 338 1124 351 1138 q 301 1110 324 1110 m 604 1110 q 568 1124 582 1110 q 554 1160 554 1138 q 568 1196 554 1182 q 604 1210 582 1210 q 640 1196 626 1210 q 654 1160 654 1182 q 640 1124 654 1138 q 604 1110 626 1110 z "},"Ź":{"ha":813,"x_min":76,"x_max":743,"o":"m 76 58 l 668 911 l 668 914 l 90 914 l 90 972 l 743 972 l 743 914 l 151 61 l 151 58 l 743 58 l 743 0 l 76 0 l 76 58 m 542 1271 l 631 1271 l 439 1063 l 367 1063 l 542 1271 z "},"ź":{"ha":632,"x_min":63,"x_max":576,"o":"m 63 56 l 504 636 l 504 639 l 76 639 l 76 694 l 576 694 l 576 639 l 135 58 l 135 56 l 576 56 l 576 0 l 63 0 l 63 56 m 442 993 l 528 993 l 347 785 l 278 785 l 442 993 z "},"Ż":{"ha":813,"x_min":76,"x_max":743,"o":"m 76 58 l 668 911 l 668 914 l 90 914 l 90 972 l 743 972 l 743 914 l 151 61 l 151 58 l 743 58 l 743 0 l 76 0 l 76 58 m 417 1108 q 379 1122 393 1108 q 365 1160 365 1136 q 379 1197 365 1183 q 417 1211 393 1211 q 454 1197 440 1211 q 468 1160 468 1183 q 454 1122 468 1136 q 417 1108 440 1108 z "},"ż":{"ha":632,"x_min":63,"x_max":576,"o":"m 63 56 l 504 636 l 504 639 l 76 639 l 76 694 l 576 694 l 576 639 l 135 58 l 135 56 l 576 56 l 576 0 l 63 0 l 63 56 m 326 832 q 290 846 304 832 q 276 882 276 860 q 290 918 276 904 q 326 932 304 932 q 363 918 349 932 q 376 882 376 904 q 363 846 376 860 q 326 832 349 832 z "},"Ž":{"ha":813,"x_min":76,"x_max":743,"o":"m 76 58 l 668 911 l 668 914 l 90 914 l 90 972 l 743 972 l 743 914 l 151 61 l 151 58 l 743 58 l 743 0 l 76 0 l 76 58 m 208 1271 l 281 1271 l 417 1125 l 553 1271 l 625 1271 l 451 1063 l 382 1063 l 208 1271 z "},"ž":{"ha":632,"x_min":63,"x_max":576,"o":"m 63 56 l 504 636 l 504 639 l 76 639 l 76 694 l 576 694 l 576 639 l 135 58 l 135 56 l 576 56 l 576 0 l 63 0 l 63 56 m 125 993 l 194 993 l 326 840 l 458 993 l 528 993 l 364 785 l 289 785 l 125 993 z "},"ſ":{"ha":424,"x_min":56,"x_max":444,"o":"m 181 639 l 56 639 l 56 694 l 181 694 l 181 806 q 347 972 181 972 l 444 972 l 444 917 l 354 917 q 269 889 296 917 q 242 799 242 861 l 242 0 l 181 0 l 181 639 z "},"Ǝ":{"ha":778,"x_min":76,"x_max":639,"o":"m 639 0 l 76 0 l 76 58 l 575 58 l 575 471 l 160 471 l 160 529 l 575 529 l 575 914 l 76 914 l 76 972 l 639 972 l 639 0 z "},"Ə":{"ha":986,"x_min":104,"x_max":882,"o":"m 493 -8 q 338 22 410 -8 q 215 109 267 51 q 133 249 163 167 q 104 438 104 332 l 104 513 l 815 513 q 791 689 815 613 q 723 817 767 765 q 620 894 679 868 q 493 919 561 919 q 376 899 426 919 q 290 849 325 879 q 232 783 254 819 q 197 715 210 747 l 126 715 q 165 802 139 756 q 236 888 192 849 q 344 954 281 928 q 493 981 407 981 q 648 951 576 981 q 772 863 719 921 q 853 723 824 806 q 882 535 882 640 l 882 438 q 852 249 882 332 q 770 109 822 167 q 647 22 718 51 q 493 -8 576 -8 m 493 53 q 622 78 563 53 q 724 154 681 104 q 791 279 767 204 q 815 453 815 354 l 171 453 q 196 280 171 354 q 264 155 221 206 q 366 78 307 104 q 493 53 425 53 z "},"ƒ":{"ha":667,"x_min":7,"x_max":618,"o":"m 17 -153 l 64 -153 q 155 -120 122 -153 q 203 0 188 -87 l 313 639 l 156 639 l 165 694 l 322 694 l 335 764 q 361 860 344 821 q 405 925 378 900 q 469 961 432 950 q 560 972 507 972 l 618 972 l 608 917 l 550 917 q 449 885 483 917 q 399 764 414 853 l 386 694 l 569 694 l 560 639 l 376 639 l 267 0 q 240 -97 257 -57 q 198 -161 224 -136 q 137 -197 172 -186 q 54 -208 101 -208 l 7 -208 l 17 -153 z "},"Ǎ":{"ha":917,"x_min":56,"x_max":861,"o":"m 417 972 l 500 972 l 861 0 l 792 0 l 683 297 l 232 297 l 122 0 l 56 0 l 417 972 m 661 356 l 460 908 l 457 908 l 253 356 l 661 356 m 250 1271 l 322 1271 l 458 1125 l 594 1271 l 667 1271 l 493 1063 l 424 1063 l 250 1271 z "},"ǎ":{"ha":736,"x_min":83,"x_max":611,"o":"m 306 -8 q 139 44 194 -8 q 83 186 83 96 q 148 339 83 282 q 354 396 213 396 l 550 396 l 550 458 q 505 599 550 554 q 361 644 460 644 q 232 611 276 644 q 182 528 188 578 l 118 528 q 137 592 121 561 q 183 649 153 624 q 258 688 214 674 q 361 703 303 703 q 549 643 488 703 q 611 465 611 583 l 611 0 l 561 0 l 551 132 l 549 132 q 448 28 513 65 q 306 -8 383 -8 m 306 50 q 406 67 361 50 q 483 117 451 85 q 533 193 515 149 q 550 292 550 238 l 550 340 l 361 340 q 197 299 246 340 q 147 186 147 257 q 187 87 147 124 q 306 50 226 50 m 160 993 l 229 993 l 361 840 l 493 993 l 563 993 l 399 785 l 324 785 l 160 993 z "},"Ǐ":{"ha":375,"x_min":-19,"x_max":397,"o":"m 156 972 l 219 972 l 219 0 l 156 0 l 156 972 m -19 1271 l 53 1271 l 189 1125 l 325 1271 l 397 1271 l 224 1063 l 154 1063 l -19 1271 z "},"ǐ":{"ha":356,"x_min":-22,"x_max":381,"o":"m 147 694 l 208 694 l 208 0 l 147 0 l 147 694 m -22 993 l 47 993 l 179 840 l 311 993 l 381 993 l 217 785 l 142 785 l -22 993 z "},"ǝ":{"ha":750,"x_min":90,"x_max":660,"o":"m 375 -8 q 259 13 311 -8 q 169 75 207 35 q 111 175 132 115 q 90 313 90 235 l 90 361 l 596 361 q 580 487 596 433 q 535 575 564 540 q 465 627 506 610 q 375 644 424 644 q 294 634 329 644 q 235 606 260 624 q 192 564 210 588 q 165 514 175 540 l 101 514 q 133 585 111 551 q 190 646 156 619 q 270 688 224 672 q 375 703 317 703 q 491 681 439 703 q 581 619 543 660 q 639 519 618 579 q 660 382 660 458 l 660 313 q 639 175 660 235 q 581 75 618 115 q 491 13 543 35 q 375 -8 439 -8 m 375 50 q 535 115 474 50 q 596 306 596 181 l 154 306 q 217 115 157 179 q 375 50 278 50 z "},"Ǧ":{"ha":958,"x_min":104,"x_max":854,"o":"m 486 -8 q 333 22 403 -8 q 213 110 264 51 q 133 253 161 168 q 104 451 104 339 l 104 535 q 133 724 104 640 q 213 864 161 807 q 334 951 264 921 q 486 981 404 981 q 622 958 561 981 q 728 899 683 936 q 801 812 772 861 q 840 708 829 763 l 771 708 q 737 790 760 751 q 678 858 714 829 q 594 905 642 888 q 486 922 546 922 q 360 897 418 922 q 260 823 303 872 q 194 701 218 774 q 171 535 171 629 l 171 451 q 194 276 171 351 q 260 151 218 201 q 360 76 303 101 q 486 50 418 50 q 608 71 553 50 q 702 137 663 92 q 765 251 742 182 q 790 415 788 319 l 486 415 l 486 474 l 854 474 l 854 458 q 828 250 854 338 q 753 105 801 163 q 638 19 706 47 q 486 -8 569 -8 m 278 1271 l 350 1271 l 486 1125 l 622 1271 l 694 1271 l 521 1063 l 451 1063 l 278 1271 z "},"ǧ":{"ha":792,"x_min":90,"x_max":660,"o":"m 360 19 q 253 41 303 19 q 168 103 204 63 q 111 201 132 143 q 90 333 90 260 l 90 389 q 111 519 90 461 q 169 619 132 578 q 256 681 206 660 q 363 703 306 703 q 501 671 442 703 q 599 576 561 639 l 601 576 l 610 694 l 660 694 l 660 -7 q 590 -212 660 -137 q 393 -286 519 -286 q 210 -231 271 -286 q 139 -83 150 -176 l 203 -83 q 258 -192 214 -154 q 393 -231 303 -231 q 599 0 599 -231 l 599 139 l 596 139 q 360 19 519 19 m 376 75 q 538 140 476 75 q 599 333 599 206 l 599 389 q 537 581 599 515 q 376 647 475 647 q 215 582 276 647 q 154 389 154 517 l 154 333 q 216 141 154 207 q 376 75 278 75 m 174 993 l 243 993 l 375 840 l 507 993 l 576 993 l 413 785 l 338 785 l 174 993 z "},"Ǻ":{"ha":917,"x_min":56,"x_max":861,"o":"m 556 1375 l 653 1375 l 492 1236 l 417 1236 l 556 1375 m 400 926 q 342 975 364 942 q 319 1050 319 1008 q 359 1147 319 1108 q 458 1186 399 1186 q 558 1147 518 1186 q 597 1050 597 1108 q 575 975 597 1008 q 517 926 553 942 l 861 0 l 792 0 l 683 297 l 232 297 l 122 0 l 56 0 l 400 926 m 458 972 q 517 994 494 972 q 539 1050 539 1017 q 517 1106 539 1083 q 458 1128 494 1128 q 400 1106 422 1128 q 378 1050 378 1083 q 400 994 378 1017 q 458 972 422 972 m 661 356 l 460 908 l 457 908 l 253 356 l 661 356 z "},"ǻ":{"ha":736,"x_min":83,"x_max":611,"o":"m 476 1250 l 563 1250 l 382 1063 l 313 1063 l 476 1250 m 306 -8 q 139 44 194 -8 q 83 186 83 96 q 148 339 83 282 q 354 396 213 396 l 550 396 l 550 458 q 505 599 550 554 q 361 644 460 644 q 232 611 276 644 q 182 528 188 578 l 118 528 q 137 592 121 561 q 183 649 153 624 q 258 688 214 674 q 361 703 303 703 q 549 643 488 703 q 611 465 611 583 l 611 0 l 561 0 l 551 132 l 549 132 q 448 28 513 65 q 306 -8 383 -8 m 306 50 q 406 67 361 50 q 483 117 451 85 q 533 193 515 149 q 550 292 550 238 l 550 340 l 361 340 q 197 299 246 340 q 147 186 147 257 q 187 87 147 124 q 306 50 226 50 m 361 746 q 262 785 301 746 q 222 882 222 824 q 262 979 222 940 q 361 1018 301 1018 q 460 979 421 1018 q 500 882 500 940 q 460 785 500 824 q 361 746 421 746 m 361 801 q 422 824 399 801 q 444 882 444 846 q 422 940 444 918 q 361 963 399 963 q 301 940 324 963 q 278 882 278 918 q 301 824 278 846 q 361 801 324 801 z "},"Ǽ":{"ha":1292,"x_min":42,"x_max":1215,"o":"m 625 972 l 1215 972 l 1215 914 l 717 914 l 717 529 l 1132 529 l 1132 471 l 717 471 l 717 58 l 1215 58 l 1215 0 l 653 0 l 653 297 l 292 297 l 114 0 l 42 0 l 625 972 m 653 356 l 653 903 l 326 356 l 653 356 m 1058 1271 l 1147 1271 l 956 1063 l 883 1063 l 1058 1271 z "},"ǽ":{"ha":1188,"x_min":83,"x_max":1097,"o":"m 292 -8 q 138 44 192 -8 q 83 186 83 96 q 149 334 83 279 q 369 389 215 389 l 536 389 l 536 472 q 494 603 536 561 q 361 644 453 644 q 233 609 274 644 q 186 514 192 574 l 125 514 q 188 651 131 599 q 361 703 246 703 q 583 569 539 703 q 680 668 619 633 q 815 703 740 703 q 930 681 878 703 q 1019 619 982 660 q 1076 519 1056 579 q 1097 382 1097 458 l 1097 333 l 597 333 q 615 211 597 264 q 661 122 632 158 q 730 68 690 86 q 815 50 769 50 q 955 88 908 50 q 1022 194 1001 126 l 1086 194 q 1000 48 1065 104 q 815 -8 935 -8 q 660 40 728 -8 q 561 174 593 88 q 457 41 529 90 q 292 -8 385 -8 m 815 644 q 728 627 768 644 q 658 577 688 610 q 613 497 629 544 q 597 389 597 449 l 1033 389 q 970 580 1031 515 q 815 644 910 644 m 292 50 q 379 67 338 50 q 454 113 421 83 q 509 183 488 142 q 536 272 531 224 l 536 333 l 369 333 q 267 322 308 333 q 198 292 225 311 q 159 245 171 272 q 147 186 147 218 q 185 87 147 124 q 292 50 222 50 m 719 993 l 806 993 l 625 785 l 556 785 l 719 993 z "},"Ǿ":{"ha":986,"x_min":104,"x_max":882,"o":"m 493 -8 q 226 94 329 -8 l 147 -8 l 104 26 l 190 139 q 127 274 150 197 q 104 451 104 351 l 104 535 q 133 724 104 640 q 214 864 163 807 q 337 951 265 921 q 493 981 408 981 q 641 954 574 981 q 760 878 708 928 l 839 981 l 882 946 l 797 835 q 860 704 838 779 q 882 535 882 629 l 882 451 q 853 254 882 340 q 772 110 824 168 q 649 22 721 51 q 493 -8 578 -8 m 719 825 q 619 896 676 872 q 493 919 561 919 q 365 894 424 919 q 263 820 306 869 q 195 699 219 771 q 171 535 171 628 l 171 451 q 188 307 171 371 q 233 194 204 243 l 719 825 m 493 53 q 622 78 563 53 q 724 154 681 104 q 791 278 767 204 q 815 451 815 353 l 815 535 q 799 671 815 610 q 754 779 783 732 l 268 149 q 493 53 356 53 m 632 1271 l 721 1271 l 529 1063 l 457 1063 l 632 1271 z "},"ǿ":{"ha":764,"x_min":90,"x_max":674,"o":"m 382 -8 q 186 61 263 -8 l 131 -8 l 90 26 l 150 101 q 90 319 90 185 l 90 375 q 111 515 90 454 q 171 618 132 576 q 263 681 210 660 q 382 703 317 703 q 578 633 501 703 l 633 703 l 674 668 l 614 593 q 674 375 674 510 l 674 319 q 653 179 674 240 q 593 76 632 118 q 501 13 554 35 q 382 -8 447 -8 m 539 585 q 382 647 476 647 q 217 578 281 647 q 154 375 154 510 l 154 319 q 164 226 154 268 q 192 153 174 185 l 539 585 m 382 47 q 547 116 483 47 q 610 319 610 185 l 610 375 q 600 468 610 426 q 572 542 590 510 l 225 110 q 382 47 288 47 m 511 993 l 597 993 l 417 785 l 347 785 l 511 993 z "},"Ș":{"ha":847,"x_min":97,"x_max":750,"o":"m 438 -8 q 192 69 276 -8 q 97 278 108 147 l 164 278 q 241 111 175 172 q 438 50 307 50 q 625 103 567 50 q 683 250 683 157 q 641 358 683 319 q 535 422 599 397 q 397 466 471 447 q 260 515 324 485 q 153 594 196 544 q 111 729 111 643 q 131 829 111 783 q 190 908 151 875 q 286 961 229 942 q 417 981 343 981 q 651 906 571 981 q 743 708 732 832 l 676 708 q 603 865 665 808 q 417 922 540 922 q 236 869 294 922 q 178 729 178 817 q 202 640 178 675 q 267 583 226 606 q 358 544 307 560 q 464 514 410 529 q 569 481 518 499 q 661 433 621 463 q 726 360 701 404 q 750 250 750 317 q 731 145 750 193 q 672 63 711 97 q 574 10 632 29 q 438 -8 515 -8 m 410 -69 l 490 -69 l 371 -278 l 310 -278 l 410 -69 z "},"ș":{"ha":681,"x_min":90,"x_max":590,"o":"m 347 -8 q 162 45 224 -8 q 90 181 100 99 l 154 181 q 208 83 165 118 q 347 47 251 47 q 485 83 443 47 q 526 179 526 119 q 495 257 526 229 q 417 303 464 285 q 315 335 369 321 q 214 370 261 349 q 135 426 167 392 q 104 522 104 461 q 163 651 104 599 q 333 703 221 703 q 438 689 393 703 q 513 651 482 675 q 560 596 543 628 q 583 528 578 564 l 517 528 q 465 614 506 581 q 333 647 424 647 q 208 612 249 647 q 168 522 168 576 q 199 449 168 475 q 278 407 231 424 q 379 376 325 390 q 481 340 433 363 q 559 281 528 318 q 590 179 590 243 q 529 46 590 100 q 347 -8 468 -8 m 317 -69 l 392 -69 l 269 -278 l 211 -278 l 317 -69 z "},"Ț":{"ha":806,"x_min":42,"x_max":764,"o":"m 371 914 l 42 914 l 42 972 l 764 972 l 764 914 l 435 914 l 435 0 l 371 0 l 371 914 m 375 -69 l 456 -69 l 336 -278 l 275 -278 l 375 -69 z "},"ț":{"ha":500,"x_min":49,"x_max":438,"o":"m 340 0 q 244 20 278 0 q 195 67 211 40 q 176 122 179 94 q 174 165 174 150 l 174 639 l 49 639 l 49 694 l 174 694 l 174 889 l 235 889 l 235 694 l 424 694 l 424 639 l 235 639 l 235 172 q 261 83 235 110 q 346 56 288 56 l 438 56 l 438 0 l 340 0 l 340 0 m 296 -69 l 371 -69 l 249 -278 l 190 -278 l 296 -69 z "},"ȷ":{"ha":356,"x_min":0,"x_max":208,"o":"m 0 -222 l 36 -222 q 100 -206 78 -222 q 133 -167 122 -190 q 145 -119 143 -144 q 147 -76 147 -94 l 147 694 l 208 694 l 208 -83 q 206 -137 208 -104 q 186 -202 203 -171 q 135 -256 169 -233 q 36 -278 100 -278 l 0 -278 l 0 -222 z "},"ə":{"ha":750,"x_min":90,"x_max":660,"o":"m 375 -8 q 259 13 311 -8 q 169 75 207 35 q 111 175 132 115 q 90 313 90 235 l 90 361 l 596 361 q 580 487 596 433 q 535 575 564 540 q 465 627 506 610 q 375 644 424 644 q 294 634 329 644 q 235 606 260 624 q 192 564 210 588 q 165 514 175 540 l 101 514 q 133 585 111 551 q 190 646 156 619 q 270 688 224 672 q 375 703 317 703 q 491 681 439 703 q 581 619 543 660 q 639 519 618 579 q 660 382 660 458 l 660 313 q 639 175 660 235 q 581 75 618 115 q 491 13 543 35 q 375 -8 439 -8 m 375 50 q 535 115 474 50 q 596 306 596 181 l 154 306 q 217 115 157 179 q 375 50 278 50 z "},"ɼ":{"ha":521,"x_min":132,"x_max":486,"o":"m 132 694 l 182 694 l 190 576 l 193 576 q 283 670 225 638 q 415 703 342 703 l 486 703 l 486 647 l 424 647 q 254 588 315 647 q 193 424 193 528 l 193 -278 l 132 -278 l 132 694 z "},"ʼ":{"ha":264,"x_min":49,"x_max":215,"o":"m 151 972 l 215 972 l 107 653 l 49 653 l 151 972 z "},"ˆ":{"ha":500,"x_min":49,"x_max":451,"o":"m 213 993 l 288 993 l 451 785 l 382 785 l 250 938 l 118 785 l 49 785 l 213 993 z "},"ˇ":{"ha":500,"x_min":49,"x_max":451,"o":"m 49 993 l 118 993 l 250 840 l 382 993 l 451 993 l 288 785 l 213 785 l 49 993 z "},"˘":{"ha":417,"x_min":28,"x_max":389,"o":"m 208 783 q 78 835 129 783 q 28 972 28 886 l 81 972 q 115 872 81 908 q 208 836 150 836 q 301 872 267 836 q 336 972 336 908 l 389 972 q 338 835 389 886 q 208 783 288 783 z "},"˙":{"ha":222,"x_min":61,"x_max":161,"o":"m 111 832 q 75 846 89 832 q 61 882 61 860 q 75 918 61 904 q 111 932 89 932 q 147 918 133 932 q 161 882 161 904 q 147 846 161 860 q 111 832 133 832 z "},"˚":{"ha":333,"x_min":28,"x_max":306,"o":"m 167 746 q 67 785 107 746 q 28 882 28 824 q 67 979 28 940 q 167 1018 107 1018 q 266 979 226 1018 q 306 882 306 940 q 266 785 306 824 q 167 746 226 746 m 167 801 q 227 824 204 801 q 250 882 250 846 q 227 940 250 918 q 167 963 204 963 q 106 940 129 963 q 83 882 83 918 q 106 824 83 846 q 167 801 129 801 z "},"˛":{"ha":250,"x_min":28,"x_max":222,"o":"m 139 -278 q 57 -250 86 -278 q 28 -174 28 -222 q 35 -129 28 -150 q 60 -84 42 -108 q 108 -31 78 -60 q 185 38 139 -1 l 222 0 q 158 -58 183 -33 q 117 -101 132 -82 q 95 -137 101 -121 q 89 -169 89 -153 q 146 -225 89 -225 l 222 -225 l 222 -278 l 139 -278 z "},"˜":{"ha":472,"x_min":28,"x_max":444,"o":"m 326 806 q 268 821 293 806 q 224 854 243 836 q 185 888 204 872 q 146 903 167 903 q 99 883 117 903 q 81 819 81 863 l 28 819 q 60 924 28 889 q 146 958 93 958 q 203 943 179 958 q 247 910 228 928 q 285 876 267 892 q 326 861 304 861 q 374 881 356 861 q 392 944 392 901 l 444 944 q 412 840 444 875 q 326 806 379 806 z "},"˝":{"ha":542,"x_min":49,"x_max":493,"o":"m 196 993 l 279 993 l 115 785 l 49 785 l 196 993 m 407 993 l 493 993 l 313 785 l 243 785 l 407 993 z "},"́":{"ha":0,"x_min":-415,"x_max":-165,"o":"m -251 993 l -165 993 l -346 785 l -415 785 l -251 993 z "},"̦":{"ha":0,"x_min":49,"x_max":229,"o":"m 154 -69 l 229 -69 l 107 -278 l 49 -278 l 154 -69 z "},"Δ":{"ha":903,"x_min":49,"x_max":854,"o":"m 410 972 l 493 972 l 854 0 l 49 0 l 410 972 m 764 58 l 450 908 l 136 58 l 764 58 z "},"∆":{"ha":903,"x_min":49,"x_max":854,"o":"m 410 972 l 493 972 l 854 0 l 49 0 l 410 972 m 764 58 l 450 908 l 136 58 l 764 58 z "},"Ξ":{"ha":708,"x_min":76,"x_max":632,"o":"m 76 972 l 632 972 l 632 914 l 76 914 l 76 972 m 188 529 l 521 529 l 521 471 l 188 471 l 188 529 m 76 58 l 632 58 l 632 0 l 76 0 l 76 58 z "},"Ω":{"ha":986,"x_min":104,"x_max":882,"o":"m 104 58 l 285 58 q 153 205 203 110 q 104 438 104 300 l 104 535 q 134 722 104 639 q 216 862 164 804 q 340 950 268 919 q 493 981 411 981 q 647 950 576 981 q 770 862 718 919 q 852 722 822 804 q 882 535 882 639 l 882 438 q 831 205 882 300 q 697 58 781 110 l 882 58 l 882 0 l 569 0 l 569 58 q 666 101 621 69 q 744 181 711 132 q 797 294 778 229 q 815 438 815 358 l 815 535 q 790 697 815 625 q 722 817 765 768 q 619 893 678 867 q 493 919 560 919 q 367 894 425 919 q 265 819 308 868 q 196 698 221 769 q 171 535 171 626 l 171 438 q 190 294 171 358 q 243 181 210 229 q 321 101 276 132 q 417 58 365 69 l 417 0 l 104 0 l 104 58 z "},"Ω":{"ha":986,"x_min":104,"x_max":882,"o":"m 104 58 l 285 58 q 153 205 203 110 q 104 438 104 300 l 104 535 q 134 722 104 639 q 216 862 164 804 q 340 950 268 919 q 493 981 411 981 q 647 950 576 981 q 770 862 718 919 q 852 722 822 804 q 882 535 882 639 l 882 438 q 831 205 882 300 q 697 58 781 110 l 882 58 l 882 0 l 569 0 l 569 58 q 666 101 621 69 q 744 181 711 132 q 797 294 778 229 q 815 438 815 358 l 815 535 q 790 697 815 625 q 722 817 765 768 q 619 893 678 867 q 493 919 560 919 q 367 894 425 919 q 265 819 308 868 q 196 698 221 769 q 171 535 171 626 l 171 438 q 190 294 171 358 q 243 181 210 229 q 321 101 276 132 q 417 58 365 69 l 417 0 l 104 0 l 104 58 z "},"π":{"ha":861,"x_min":56,"x_max":819,"o":"m 181 636 l 56 636 l 56 694 l 806 694 l 806 636 l 681 636 l 681 172 q 706 84 681 111 q 785 57 732 57 l 819 57 l 819 0 l 779 0 q 619 165 619 0 l 619 636 l 242 636 l 242 0 l 181 0 l 181 636 z "},"Ѐ":{"ha":778,"x_min":139,"x_max":701,"o":"m 139 972 l 701 972 l 701 914 l 203 914 l 203 529 l 618 529 l 618 471 l 203 471 l 203 58 l 701 58 l 701 0 l 139 0 l 139 972 m 213 1271 l 304 1271 l 476 1063 l 401 1063 l 213 1271 z "},"Ё":{"ha":778,"x_min":139,"x_max":701,"o":"m 139 972 l 701 972 l 701 914 l 203 914 l 203 529 l 618 529 l 618 471 l 203 471 l 203 58 l 701 58 l 701 0 l 139 0 l 139 972 m 269 1110 q 233 1124 247 1110 q 219 1160 219 1138 q 233 1196 219 1182 q 269 1210 247 1210 q 306 1196 292 1210 q 319 1160 319 1182 q 306 1124 319 1138 q 269 1110 292 1110 m 572 1110 q 536 1124 550 1110 q 522 1160 522 1138 q 536 1196 522 1182 q 572 1210 550 1210 q 608 1196 594 1210 q 622 1160 622 1182 q 608 1124 622 1138 q 572 1110 594 1110 z "},"Ђ":{"ha":1021,"x_min":42,"x_max":917,"o":"m 278 914 l 42 914 l 42 972 l 764 972 l 764 914 l 342 914 l 342 569 q 569 599 468 599 q 831 511 746 599 q 917 231 917 424 l 917 161 q 835 -119 917 -31 q 604 -208 753 -208 l 549 -208 l 549 -150 l 604 -150 q 712 -133 665 -150 q 790 -79 758 -117 q 837 17 821 -42 q 853 161 853 76 l 853 231 q 836 373 853 314 q 784 469 819 432 q 694 524 749 507 q 563 540 639 540 q 342 510 464 540 l 342 0 l 278 0 l 278 914 z "},"Ѓ":{"ha":715,"x_min":139,"x_max":674,"o":"m 139 972 l 674 972 l 674 914 l 203 914 l 203 0 l 139 0 l 139 972 m 532 1271 l 621 1271 l 429 1063 l 357 1063 l 532 1271 z "},"Є":{"ha":931,"x_min":104,"x_max":840,"o":"m 486 -8 q 333 22 403 -8 q 213 110 264 51 q 133 253 161 168 q 104 451 104 339 l 104 535 q 133 724 104 640 q 213 864 161 807 q 334 951 264 921 q 486 981 404 981 q 622 959 561 981 q 728 900 683 938 q 801 813 774 863 q 840 708 829 764 l 776 708 q 742 790 765 751 q 683 858 719 829 q 597 905 646 888 q 486 922 549 922 q 360 897 418 922 q 260 822 303 872 q 194 697 218 772 q 171 522 171 622 l 604 522 l 604 464 l 171 464 q 194 281 171 358 q 260 151 218 203 q 360 75 303 100 q 486 50 418 50 q 597 67 549 50 q 683 115 646 85 q 742 188 719 146 q 776 278 765 229 l 840 278 q 801 165 829 217 q 728 74 774 113 q 622 14 683 36 q 486 -8 561 -8 z "},"Ѕ":{"ha":847,"x_min":97,"x_max":750,"o":"m 438 -8 q 192 69 276 -8 q 97 278 108 147 l 164 278 q 241 111 175 172 q 438 50 307 50 q 625 103 567 50 q 683 250 683 157 q 641 358 683 319 q 535 422 599 397 q 397 466 471 447 q 260 515 324 485 q 153 594 196 544 q 111 729 111 643 q 131 829 111 783 q 190 908 151 875 q 286 961 229 942 q 417 981 343 981 q 651 906 571 981 q 743 708 732 832 l 676 708 q 603 865 665 808 q 417 922 540 922 q 236 869 294 922 q 178 729 178 817 q 202 640 178 675 q 267 583 226 606 q 358 544 307 560 q 464 514 410 529 q 569 481 518 499 q 661 433 621 463 q 726 360 701 404 q 750 250 750 317 q 731 145 750 193 q 672 63 711 97 q 574 10 632 29 q 438 -8 515 -8 z "},"І":{"ha":375,"x_min":156,"x_max":219,"o":"m 156 972 l 219 972 l 219 0 l 156 0 l 156 972 z "},"Ї":{"ha":375,"x_min":-12,"x_max":390,"o":"m 156 972 l 219 972 l 219 0 l 156 0 l 156 972 m 38 1110 q 1 1124 15 1110 q -12 1160 -12 1138 q 1 1196 -12 1182 q 38 1210 15 1210 q 74 1196 60 1210 q 88 1160 88 1182 q 74 1124 88 1138 q 38 1110 60 1110 m 340 1110 q 304 1124 318 1110 q 290 1160 290 1138 q 304 1196 290 1182 q 340 1210 318 1210 q 376 1196 363 1210 q 390 1160 390 1182 q 376 1124 390 1138 q 340 1110 363 1110 z "},"Ј":{"ha":743,"x_min":56,"x_max":611,"o":"m 333 -8 q 140 66 213 -8 q 56 278 67 140 l 119 278 q 333 50 140 50 q 422 66 386 50 q 483 107 458 82 q 519 165 507 132 q 538 230 532 197 q 546 294 544 263 q 547 347 547 325 l 547 972 l 611 972 l 611 340 q 610 288 611 321 q 600 216 608 254 q 575 138 592 178 q 528 65 558 97 q 449 13 497 33 q 333 -8 401 -8 z "},"Љ":{"ha":1382,"x_min":42,"x_max":1313,"o":"m 42 50 l 56 50 q 155 91 119 50 q 207 204 190 132 q 226 375 224 276 q 229 590 229 474 l 229 972 l 785 972 l 785 557 l 1007 557 q 1234 482 1156 557 q 1313 278 1313 407 q 1233 76 1313 151 q 1007 0 1154 0 l 721 0 l 721 914 l 293 914 l 293 590 q 289 359 293 468 q 263 169 285 250 q 192 40 240 88 q 56 -8 143 -8 l 42 -8 l 42 50 m 1000 58 q 1185 116 1124 58 q 1246 278 1246 174 q 1184 440 1246 382 q 1000 499 1122 499 l 785 499 l 785 58 l 1000 58 z "},"Њ":{"ha":1403,"x_min":139,"x_max":1333,"o":"m 139 972 l 203 972 l 203 557 l 728 557 l 728 972 l 792 972 l 792 557 l 1028 557 q 1255 482 1176 557 q 1333 278 1333 407 q 1254 76 1333 151 q 1028 0 1175 0 l 728 0 l 728 499 l 203 499 l 203 0 l 139 0 l 139 972 m 1021 58 q 1206 116 1144 58 q 1267 278 1267 174 q 1205 440 1267 382 q 1021 499 1143 499 l 792 499 l 792 58 l 1021 58 z "},"Ћ":{"ha":1028,"x_min":42,"x_max":924,"o":"m 289 914 l 42 914 l 42 972 l 764 972 l 764 914 l 353 914 l 353 558 q 485 588 419 578 q 608 599 550 599 q 741 583 688 599 q 830 540 794 567 q 884 481 865 514 q 912 413 903 447 q 922 344 921 378 q 924 285 924 311 l 924 0 l 860 0 l 860 278 q 856 367 860 321 q 828 451 851 413 q 753 515 804 490 q 608 540 701 540 q 484 530 546 540 q 353 497 422 519 l 353 0 l 289 0 l 289 914 z "},"Ќ":{"ha":882,"x_min":139,"x_max":819,"o":"m 139 972 l 203 972 l 203 529 l 383 529 l 714 972 l 792 972 l 439 501 l 819 0 l 739 0 l 383 471 l 203 471 l 203 0 l 139 0 l 139 972 m 556 1271 l 644 1271 l 453 1063 l 381 1063 l 556 1271 z "},"Ѝ":{"ha":986,"x_min":139,"x_max":847,"o":"m 139 972 l 203 972 l 203 69 l 206 69 l 753 972 l 847 972 l 847 0 l 783 0 l 783 903 l 781 903 l 233 0 l 139 0 l 139 972 m 285 1271 l 376 1271 l 549 1063 l 474 1063 l 285 1271 z "},"Ў":{"ha":847,"x_min":56,"x_max":792,"o":"m 419 278 l 56 972 l 128 972 l 451 354 l 454 354 l 722 972 l 792 972 l 368 0 l 299 0 l 419 278 m 425 1061 q 281 1110 331 1061 q 231 1250 231 1160 l 292 1250 q 425 1114 292 1114 q 558 1250 558 1114 l 619 1250 q 569 1110 619 1160 q 425 1061 519 1061 z "},"Џ":{"ha":972,"x_min":139,"x_max":833,"o":"m 139 972 l 203 972 l 203 58 l 769 58 l 769 972 l 833 972 l 833 0 l 518 0 l 518 -208 l 454 -208 l 454 0 l 139 0 l 139 972 z "},"А":{"ha":917,"x_min":56,"x_max":861,"o":"m 417 972 l 500 972 l 861 0 l 792 0 l 683 297 l 232 297 l 122 0 l 56 0 l 417 972 m 661 356 l 460 908 l 457 908 l 253 356 l 661 356 z "},"Б":{"ha":847,"x_min":139,"x_max":764,"o":"m 139 972 l 694 972 l 694 914 l 203 914 l 203 561 l 451 561 q 685 486 606 561 q 764 281 764 411 q 684 76 764 153 q 451 0 604 0 l 139 0 l 139 972 m 203 503 l 203 58 l 444 58 q 635 117 574 58 q 697 281 697 175 q 635 444 697 385 q 444 503 572 503 l 203 503 z "},"В":{"ha":861,"x_min":139,"x_max":764,"o":"m 139 972 l 431 972 q 662 905 588 972 q 736 721 736 838 q 699 588 736 643 q 590 506 661 533 l 590 503 q 719 418 675 479 q 764 265 764 357 q 690 69 764 139 q 458 0 615 0 l 139 0 l 139 972 m 203 914 l 203 529 l 424 529 q 611 581 553 529 q 669 721 669 633 q 611 862 669 810 q 424 914 553 914 l 203 914 m 203 471 l 203 58 l 451 58 q 639 112 581 58 q 697 265 697 165 q 639 417 697 364 q 451 471 581 471 l 203 471 z "},"Г":{"ha":715,"x_min":139,"x_max":674,"o":"m 139 972 l 674 972 l 674 914 l 203 914 l 203 0 l 139 0 l 139 972 z "},"Д":{"ha":972,"x_min":42,"x_max":924,"o":"m 42 58 l 131 58 q 181 159 161 107 q 214 279 201 211 q 231 438 226 347 q 236 653 236 528 l 236 972 l 819 972 l 819 58 l 924 58 l 924 -208 l 860 -208 l 860 0 l 106 0 l 106 -208 l 42 -208 l 42 58 m 756 58 l 756 914 l 300 914 l 300 653 q 295 442 300 531 q 280 284 290 353 q 251 162 269 215 q 206 58 232 108 l 756 58 z "},"Е":{"ha":778,"x_min":139,"x_max":701,"o":"m 139 972 l 701 972 l 701 914 l 203 914 l 203 529 l 618 529 l 618 471 l 203 471 l 203 58 l 701 58 l 701 0 l 139 0 l 139 972 z "},"Ж":{"ha":1278,"x_min":63,"x_max":1215,"o":"m 372 501 l 83 972 l 156 972 l 426 529 l 607 529 l 607 972 l 671 972 l 671 529 l 851 529 l 1122 972 l 1194 972 l 906 501 l 1215 0 l 1140 0 l 851 471 l 671 471 l 671 0 l 607 0 l 607 471 l 426 471 l 138 0 l 63 0 l 372 501 z "},"З":{"ha":826,"x_min":90,"x_max":729,"o":"m 417 -8 q 185 68 269 -8 q 90 278 101 144 l 157 278 q 233 110 168 169 q 417 50 299 50 q 601 108 539 50 q 663 264 663 167 q 601 413 663 356 q 417 471 540 471 l 299 471 l 299 529 l 417 529 q 583 585 525 529 q 642 724 642 640 q 585 869 642 815 q 417 922 529 922 q 249 867 308 922 q 178 708 190 811 l 111 708 q 200 906 122 832 q 417 981 278 981 q 633 910 558 981 q 708 724 708 839 q 667 590 708 649 q 550 504 625 532 l 550 501 q 683 414 638 475 q 729 264 729 353 q 708 154 729 204 q 648 68 688 104 q 550 12 608 32 q 417 -8 492 -8 z "},"И":{"ha":986,"x_min":139,"x_max":847,"o":"m 139 972 l 203 972 l 203 69 l 206 69 l 753 972 l 847 972 l 847 0 l 783 0 l 783 903 l 781 903 l 233 0 l 139 0 l 139 972 z "},"Й":{"ha":986,"x_min":139,"x_max":847,"o":"m 139 972 l 203 972 l 203 69 l 206 69 l 753 972 l 847 972 l 847 0 l 783 0 l 783 903 l 781 903 l 233 0 l 139 0 l 139 972 m 493 1061 q 349 1110 399 1061 q 299 1250 299 1160 l 360 1250 q 493 1114 360 1114 q 626 1250 626 1114 l 688 1250 q 638 1110 688 1160 q 493 1061 588 1061 z "},"К":{"ha":882,"x_min":139,"x_max":819,"o":"m 139 972 l 203 972 l 203 529 l 383 529 l 714 972 l 792 972 l 439 501 l 819 0 l 739 0 l 383 471 l 203 471 l 203 0 l 139 0 l 139 972 z "},"Л":{"ha":951,"x_min":42,"x_max":813,"o":"m 42 50 l 56 50 q 155 91 119 50 q 207 204 190 132 q 226 375 224 276 q 229 590 229 474 l 229 972 l 813 972 l 813 0 l 749 0 l 749 914 l 293 914 l 293 590 q 289 359 293 468 q 263 169 285 250 q 192 40 240 88 q 56 -8 143 -8 l 42 -8 l 42 50 z "},"М":{"ha":1125,"x_min":139,"x_max":986,"o":"m 139 972 l 231 972 l 563 367 l 565 367 l 897 972 l 986 972 l 986 0 l 922 0 l 922 889 l 919 889 l 599 299 l 529 299 l 206 889 l 203 889 l 203 0 l 139 0 l 139 972 z "},"Н":{"ha":986,"x_min":139,"x_max":847,"o":"m 139 972 l 203 972 l 203 529 l 783 529 l 783 972 l 847 972 l 847 0 l 783 0 l 783 471 l 203 471 l 203 0 l 139 0 l 139 972 z "},"О":{"ha":986,"x_min":104,"x_max":882,"o":"m 493 -8 q 336 22 407 -8 q 213 110 265 51 q 133 253 161 168 q 104 451 104 339 l 104 535 q 133 724 104 640 q 214 864 163 807 q 337 951 265 921 q 493 981 408 981 q 649 951 578 981 q 773 864 721 921 q 853 724 825 807 q 882 535 882 642 l 882 451 q 853 254 882 340 q 772 110 824 168 q 649 22 721 51 q 493 -8 578 -8 m 493 53 q 622 78 563 53 q 724 154 681 104 q 791 278 767 204 q 815 451 815 353 l 815 535 q 791 699 815 628 q 724 820 767 771 q 622 894 681 869 q 493 919 563 919 q 365 894 424 919 q 263 820 306 869 q 195 699 219 771 q 171 535 171 628 l 171 451 q 195 278 171 353 q 263 154 219 204 q 365 78 306 104 q 493 53 424 53 z "},"П":{"ha":972,"x_min":139,"x_max":833,"o":"m 139 972 l 833 972 l 833 0 l 769 0 l 769 914 l 203 914 l 203 0 l 139 0 l 139 972 z "},"Р":{"ha":833,"x_min":139,"x_max":764,"o":"m 139 972 l 438 972 q 683 895 601 972 q 764 678 764 818 q 682 461 764 539 q 438 383 600 383 l 203 383 l 203 0 l 139 0 l 139 972 m 203 914 l 203 442 l 431 442 q 634 501 571 442 q 697 678 697 560 q 633 853 697 793 q 431 914 569 914 l 203 914 z "},"С":{"ha":931,"x_min":104,"x_max":840,"o":"m 486 -8 q 333 22 403 -8 q 213 110 264 51 q 133 253 161 168 q 104 451 104 339 l 104 535 q 133 724 104 640 q 213 864 161 807 q 334 951 264 921 q 486 981 404 981 q 622 959 561 981 q 728 900 683 938 q 801 813 774 863 q 840 708 829 764 l 776 708 q 742 790 765 751 q 683 858 719 829 q 597 905 646 888 q 486 922 549 922 q 360 897 418 922 q 260 823 303 872 q 194 701 218 774 q 171 535 171 629 l 171 451 q 194 276 171 351 q 260 151 218 201 q 360 76 303 101 q 486 50 418 50 q 597 67 549 50 q 683 115 646 85 q 742 188 719 146 q 776 278 765 229 l 840 278 q 801 165 829 217 q 728 74 774 113 q 622 14 683 36 q 486 -8 561 -8 z "},"Т":{"ha":806,"x_min":42,"x_max":764,"o":"m 371 914 l 42 914 l 42 972 l 764 972 l 764 914 l 435 914 l 435 0 l 371 0 l 371 914 z "},"У":{"ha":847,"x_min":56,"x_max":792,"o":"m 419 278 l 56 972 l 128 972 l 451 354 l 454 354 l 722 972 l 792 972 l 368 0 l 299 0 l 419 278 z "},"Ф":{"ha":1167,"x_min":90,"x_max":1076,"o":"m 551 74 q 349 101 435 74 q 205 178 263 128 q 119 300 147 229 q 90 458 90 371 l 90 514 q 119 672 90 601 q 205 793 147 743 q 349 871 263 843 q 551 899 436 899 l 551 981 l 615 981 l 615 899 q 818 872 732 899 q 962 794 904 844 q 1048 672 1019 743 q 1076 514 1076 601 l 1076 458 q 1048 300 1076 371 q 962 179 1019 229 q 817 101 904 129 q 615 74 731 74 l 615 -8 l 551 -8 l 551 74 m 1010 514 q 986 647 1010 588 q 913 749 963 707 q 790 815 864 792 q 615 838 715 838 l 615 135 q 791 158 717 135 q 914 222 865 181 q 986 324 963 264 q 1010 458 1010 383 l 1010 514 m 157 458 q 181 325 157 385 q 253 223 204 265 q 377 158 303 181 q 551 135 451 135 l 551 838 q 253 750 349 838 q 157 514 157 663 l 157 458 z "},"Х":{"ha":903,"x_min":63,"x_max":840,"o":"m 408 511 l 90 972 l 168 972 l 453 557 l 735 972 l 813 972 l 494 508 l 840 0 l 760 0 l 450 457 l 143 0 l 63 0 l 408 511 z "},"Ц":{"ha":1007,"x_min":139,"x_max":958,"o":"m 139 972 l 203 972 l 203 58 l 769 58 l 769 972 l 833 972 l 833 58 l 958 58 l 958 -208 l 894 -208 l 894 0 l 139 0 l 139 972 z "},"Ч":{"ha":875,"x_min":97,"x_max":736,"o":"m 417 374 q 283 390 338 374 q 192 432 228 406 q 138 492 157 458 q 109 560 118 525 q 99 628 100 594 q 97 688 97 661 l 97 972 l 161 972 l 161 694 q 165 605 161 651 q 194 520 169 558 q 269 457 218 482 q 417 432 321 432 q 541 442 479 432 q 672 475 603 453 l 672 972 l 736 972 l 736 0 l 672 0 l 672 414 q 540 384 606 394 q 417 374 475 374 z "},"Ш":{"ha":1306,"x_min":139,"x_max":1167,"o":"m 139 972 l 203 972 l 203 58 l 621 58 l 621 972 l 685 972 l 685 58 l 1103 58 l 1103 972 l 1167 972 l 1167 0 l 139 0 l 139 972 z "},"Щ":{"ha":1340,"x_min":139,"x_max":1292,"o":"m 139 972 l 203 972 l 203 58 l 621 58 l 621 972 l 685 972 l 685 58 l 1103 58 l 1103 972 l 1167 972 l 1167 58 l 1292 58 l 1292 -208 l 1228 -208 l 1228 0 l 139 0 l 139 972 z "},"Ъ":{"ha":993,"x_min":42,"x_max":924,"o":"m 299 914 l 42 914 l 42 972 l 363 972 l 363 589 l 597 589 q 842 512 761 589 q 924 294 924 435 q 842 78 924 156 q 597 0 761 0 l 299 0 l 299 914 m 590 58 q 793 118 729 58 q 857 294 857 178 q 793 470 857 410 q 590 531 729 531 l 363 531 l 363 58 l 590 58 z "},"Ы":{"ha":1153,"x_min":139,"x_max":1014,"o":"m 950 972 l 1014 972 l 1014 0 l 950 0 l 950 972 m 139 972 l 203 972 l 203 589 l 438 589 q 683 511 601 589 q 764 294 764 433 q 683 77 764 154 q 438 0 601 0 l 139 0 l 139 972 m 431 58 q 633 119 569 58 q 697 294 697 179 q 634 472 697 413 q 431 531 571 531 l 203 531 l 203 58 l 431 58 z "},"Ь":{"ha":833,"x_min":139,"x_max":764,"o":"m 139 972 l 203 972 l 203 589 l 438 589 q 683 512 601 589 q 764 294 764 435 q 683 78 764 156 q 438 0 601 0 l 139 0 l 139 972 m 431 58 q 633 118 569 58 q 697 294 697 178 q 633 470 697 410 q 431 531 569 531 l 203 531 l 203 58 l 431 58 z "},"Э":{"ha":931,"x_min":90,"x_max":826,"o":"m 444 -8 q 308 14 369 -8 q 202 74 247 36 q 128 165 157 113 q 90 278 100 217 l 154 278 q 188 188 164 229 q 248 115 211 146 q 333 67 285 85 q 444 50 382 50 q 570 76 513 50 q 670 153 628 101 q 736 282 713 204 q 760 464 760 360 l 326 464 l 326 522 l 760 522 q 736 697 760 622 q 670 822 713 772 q 570 897 628 872 q 444 922 513 922 q 333 905 382 922 q 248 858 285 888 q 188 790 211 829 q 154 708 164 751 l 90 708 q 128 812 100 763 q 202 899 157 861 q 308 958 247 936 q 444 981 369 981 q 597 951 526 981 q 717 864 667 921 q 797 724 768 807 q 826 535 826 640 l 826 451 q 798 253 826 339 q 718 110 769 168 q 597 22 667 51 q 444 -8 528 -8 z "},"Ю":{"ha":1271,"x_min":139,"x_max":1167,"o":"m 139 972 l 203 972 l 203 529 l 431 529 q 458 724 431 640 q 535 865 486 808 q 651 951 583 922 q 799 981 719 981 q 947 952 879 981 q 1063 867 1014 924 q 1139 728 1111 811 q 1167 535 1167 644 l 1167 451 q 1139 251 1167 338 q 1063 108 1111 165 q 946 21 1014 50 q 799 -8 878 -8 q 651 21 718 -8 q 534 109 583 50 q 458 258 485 168 q 431 471 431 349 l 203 471 l 203 0 l 139 0 l 139 972 m 799 50 q 918 74 863 50 q 1014 149 974 99 q 1077 274 1054 199 q 1100 451 1100 349 l 1100 535 q 1077 704 1100 632 q 1013 825 1054 776 q 917 898 972 874 q 799 922 863 922 q 678 898 733 922 q 583 825 624 874 q 520 704 543 776 q 497 535 497 632 l 497 465 q 520 280 497 358 q 584 150 543 201 q 680 74 625 99 q 799 50 735 50 z "},"Я":{"ha":861,"x_min":69,"x_max":722,"o":"m 308 426 q 150 522 203 451 q 97 693 97 592 q 178 897 97 822 q 424 972 260 972 l 722 972 l 722 0 l 658 0 l 658 414 l 424 414 q 399 414 411 414 q 375 415 386 414 l 144 0 l 69 0 l 308 426 m 658 472 l 658 914 l 431 914 q 228 856 292 914 q 164 693 164 797 q 227 530 164 588 q 431 472 290 472 l 658 472 z "},"а":{"ha":736,"x_min":83,"x_max":611,"o":"m 306 -8 q 139 44 194 -8 q 83 186 83 96 q 148 339 83 282 q 354 396 213 396 l 550 396 l 550 458 q 505 599 550 554 q 361 644 460 644 q 232 611 276 644 q 182 528 188 578 l 118 528 q 137 592 121 561 q 183 649 153 624 q 258 688 214 674 q 361 703 303 703 q 549 643 488 703 q 611 465 611 583 l 611 0 l 561 0 l 551 132 l 549 132 q 448 28 513 65 q 306 -8 383 -8 m 306 50 q 406 67 361 50 q 483 117 451 85 q 533 193 515 149 q 550 292 550 238 l 550 340 l 361 340 q 197 299 246 340 q 147 186 147 257 q 187 87 147 124 q 306 50 226 50 z "},"б":{"ha":771,"x_min":97,"x_max":681,"o":"m 389 -8 q 270 14 324 -8 q 178 81 217 36 q 119 194 140 126 q 97 354 97 263 l 97 438 q 105 593 97 522 q 131 720 113 664 q 181 818 150 776 q 258 888 211 860 q 340 921 299 911 q 425 937 381 931 q 520 951 469 943 q 632 981 571 960 l 632 924 q 532 897 579 904 q 442 883 485 889 q 361 868 400 876 q 288 839 322 860 q 197 737 225 803 q 161 556 169 671 l 164 556 q 258 655 199 621 q 396 689 318 689 q 510 667 458 689 q 600 604 563 646 q 659 503 638 563 q 681 368 681 443 l 681 313 q 659 178 681 238 q 599 77 638 118 q 506 14 560 36 q 389 -8 453 -8 m 389 47 q 553 115 490 47 q 617 313 617 182 l 617 368 q 599 481 617 432 q 552 565 582 531 q 481 616 522 599 q 389 633 439 633 q 225 565 289 633 q 161 368 161 497 l 161 313 q 178 201 161 250 q 226 117 196 151 q 299 65 257 83 q 389 47 340 47 z "},"в":{"ha":722,"x_min":132,"x_max":632,"o":"m 132 694 l 389 694 q 550 644 496 694 q 604 511 604 594 q 580 422 604 461 q 511 361 556 383 l 511 358 q 601 295 569 338 q 632 192 632 253 q 578 51 632 101 q 417 0 524 0 l 132 0 l 132 694 m 540 511 q 502 604 540 569 q 382 639 464 639 l 193 639 l 193 382 l 382 382 q 502 417 464 382 q 540 511 540 451 m 568 192 q 530 291 568 256 q 410 326 492 326 l 193 326 l 193 56 l 410 56 q 530 91 492 56 q 568 192 568 126 z "},"г":{"ha":590,"x_min":132,"x_max":556,"o":"m 132 694 l 556 694 l 556 639 l 193 639 l 193 0 l 132 0 l 132 694 z "},"д":{"ha":778,"x_min":35,"x_max":736,"o":"m 35 56 l 117 56 q 154 133 139 93 q 178 223 169 174 q 191 336 188 272 q 194 486 194 400 l 194 694 l 639 694 l 639 56 l 736 56 l 736 -181 l 675 -181 l 675 0 l 96 0 l 96 -181 l 35 -181 l 35 56 m 578 56 l 578 639 l 256 639 l 256 486 q 252 346 256 407 q 240 235 249 285 q 219 142 232 185 q 186 58 206 100 l 186 56 l 578 56 z "},"е":{"ha":750,"x_min":90,"x_max":660,"o":"m 382 -8 q 263 13 317 -8 q 170 76 208 35 q 111 179 132 118 q 90 319 90 240 l 90 375 q 111 515 90 454 q 170 618 132 576 q 260 681 208 660 q 375 703 313 703 q 490 681 438 703 q 581 617 543 660 q 639 513 618 575 q 660 368 660 450 l 660 333 l 154 333 q 210 121 154 194 q 375 47 267 47 q 512 81 458 47 q 589 181 565 115 l 653 181 q 556 41 626 90 q 382 -8 486 -8 m 375 647 q 217 582 278 647 q 154 389 157 517 l 596 389 q 533 583 593 519 q 375 647 474 647 z "},"ж":{"ha":986,"x_min":49,"x_max":938,"o":"m 257 364 l 63 694 l 132 694 l 310 389 l 463 389 l 463 694 l 524 694 l 524 389 l 676 389 l 854 694 l 924 694 l 729 364 l 938 0 l 865 0 l 676 333 l 524 333 l 524 0 l 463 0 l 463 333 l 310 333 l 121 0 l 49 0 l 257 364 z "},"з":{"ha":674,"x_min":69,"x_max":583,"o":"m 333 -8 q 144 48 208 -8 q 69 194 79 104 l 133 194 q 191 88 144 128 q 333 47 238 47 q 474 87 429 47 q 519 188 519 126 q 474 288 519 249 q 333 326 429 326 l 257 326 l 257 382 l 333 382 q 458 419 417 382 q 499 514 499 456 q 458 610 499 572 q 333 647 417 647 q 208 610 250 647 q 154 514 165 572 l 90 514 q 161 649 101 596 q 333 703 221 703 q 504 649 446 703 q 563 514 563 596 q 535 424 563 464 q 458 360 508 383 l 458 357 q 553 289 522 333 q 583 188 583 244 q 521 47 583 103 q 333 -8 458 -8 z "},"и":{"ha":806,"x_min":132,"x_max":674,"o":"m 132 694 l 193 694 l 193 69 l 196 69 l 585 694 l 674 694 l 674 0 l 613 0 l 613 625 l 610 625 l 221 0 l 132 0 l 132 694 z "},"й":{"ha":806,"x_min":132,"x_max":674,"o":"m 132 694 l 193 694 l 193 69 l 196 69 l 585 694 l 674 694 l 674 0 l 613 0 l 613 625 l 610 625 l 221 0 l 132 0 l 132 694 m 403 783 q 271 833 319 783 q 222 972 222 882 l 281 972 q 313 867 281 901 q 403 833 344 833 q 493 867 461 833 q 525 972 525 901 l 583 972 q 535 833 583 882 q 403 783 486 783 z "},"к":{"ha":708,"x_min":132,"x_max":660,"o":"m 132 694 l 193 694 l 193 389 l 347 389 l 560 694 l 632 694 l 401 363 l 660 0 l 585 0 l 347 333 l 193 333 l 193 0 l 132 0 l 132 694 z "},"л":{"ha":757,"x_min":35,"x_max":625,"o":"m 35 47 l 56 47 q 126 79 101 47 q 164 172 151 111 q 178 321 176 233 q 181 521 181 408 l 181 694 l 625 694 l 625 0 l 564 0 l 564 639 l 242 639 l 242 521 q 238 297 242 396 q 217 131 235 199 q 162 28 200 64 q 56 -8 124 -8 l 35 -8 l 35 47 z "},"м":{"ha":944,"x_min":132,"x_max":813,"o":"m 132 694 l 218 694 l 472 240 l 475 240 l 729 694 l 813 694 l 813 0 l 751 0 l 751 611 l 749 611 l 503 174 l 442 174 l 196 611 l 193 611 l 193 0 l 132 0 l 132 694 z "},"н":{"ha":806,"x_min":132,"x_max":674,"o":"m 132 694 l 193 694 l 193 382 l 613 382 l 613 694 l 674 694 l 674 0 l 613 0 l 613 326 l 193 326 l 193 0 l 132 0 l 132 694 z "},"о":{"ha":764,"x_min":90,"x_max":674,"o":"m 382 -8 q 263 13 317 -8 q 170 76 208 35 q 111 179 132 118 q 90 319 90 240 l 90 375 q 111 515 90 454 q 171 618 132 576 q 263 681 210 660 q 382 703 317 703 q 501 681 447 703 q 594 618 556 660 q 653 515 632 576 q 674 375 674 454 l 674 319 q 653 179 674 240 q 593 76 632 118 q 501 13 554 35 q 382 -8 447 -8 m 382 47 q 547 116 483 47 q 610 319 610 185 l 610 375 q 546 578 610 510 q 382 647 482 647 q 217 578 281 647 q 154 375 154 510 l 154 319 q 218 116 154 185 q 382 47 282 47 z "},"п":{"ha":778,"x_min":132,"x_max":646,"o":"m 132 694 l 646 694 l 646 0 l 585 0 l 585 636 l 193 636 l 193 0 l 132 0 l 132 694 z "},"р":{"ha":792,"x_min":132,"x_max":701,"o":"m 132 694 l 182 694 l 190 576 l 193 576 q 290 671 231 639 q 429 703 350 703 q 538 681 488 703 q 624 618 588 660 q 681 515 660 576 q 701 375 701 454 l 701 319 q 681 181 701 242 q 623 78 660 119 q 536 14 586 36 q 429 -8 486 -8 q 196 111 272 -8 l 193 111 l 193 -278 l 132 -278 l 132 694 m 415 47 q 576 114 515 47 q 638 319 638 181 l 638 375 q 576 579 638 511 q 415 647 514 647 q 254 581 315 647 q 193 375 193 514 l 193 319 q 255 115 193 183 q 415 47 317 47 z "},"с":{"ha":701,"x_min":90,"x_max":632,"o":"m 375 -8 q 258 13 311 -8 q 168 76 206 35 q 110 181 131 118 q 90 326 90 243 l 90 382 q 111 518 90 458 q 169 619 132 578 q 260 681 207 660 q 375 703 313 703 q 474 688 431 703 q 551 646 518 672 q 603 585 583 619 q 632 514 624 551 l 568 514 q 506 608 553 568 q 375 647 458 647 q 288 630 328 647 q 217 578 247 613 q 171 495 188 544 q 154 382 154 446 l 154 326 q 171 205 154 257 q 217 118 188 153 q 288 65 247 83 q 375 47 328 47 q 506 88 458 47 q 568 194 553 129 l 632 194 q 603 115 624 151 q 551 51 583 78 q 474 8 518 24 q 375 -8 431 -8 z "},"т":{"ha":611,"x_min":35,"x_max":576,"o":"m 275 639 l 35 639 l 35 694 l 576 694 l 576 639 l 336 639 l 336 0 l 275 0 l 275 639 z "},"у":{"ha":722,"x_min":49,"x_max":674,"o":"m 342 0 l 49 694 l 115 694 l 372 76 l 375 76 l 610 694 l 674 694 l 299 -278 l 235 -278 l 342 0 z "},"ф":{"ha":972,"x_min":90,"x_max":882,"o":"m 456 -8 l 403 -8 q 276 15 333 -8 q 177 81 218 39 q 113 184 136 124 q 90 319 90 244 l 90 375 q 113 510 90 450 q 177 613 136 571 q 276 679 218 656 q 403 703 333 703 l 456 703 l 456 972 l 517 972 l 517 703 l 569 703 q 697 679 639 703 q 795 613 754 656 q 859 510 836 571 q 882 375 882 450 l 882 319 q 859 184 882 244 q 795 81 836 124 q 697 15 754 39 q 569 -8 639 -8 l 517 -8 l 517 -278 l 456 -278 l 456 -8 m 818 375 q 750 576 818 504 q 569 647 682 647 l 517 647 l 517 47 l 569 47 q 750 119 682 47 q 818 319 818 190 l 818 375 m 154 319 q 222 119 154 190 q 403 47 290 47 l 456 47 l 456 647 l 403 647 q 222 576 290 647 q 154 375 154 504 l 154 319 z "},"х":{"ha":694,"x_min":49,"x_max":646,"o":"m 311 361 l 71 694 l 143 694 l 347 410 l 554 694 l 624 694 l 383 363 l 646 0 l 571 0 l 347 313 l 121 0 l 49 0 l 311 361 z "},"ц":{"ha":792,"x_min":132,"x_max":750,"o":"m 689 0 l 132 0 l 132 694 l 193 694 l 193 56 l 578 56 l 578 694 l 639 694 l 639 56 l 750 56 l 750 -181 l 689 -181 l 689 0 z "},"ч":{"ha":722,"x_min":90,"x_max":590,"o":"m 340 250 q 149 306 207 250 q 90 483 90 363 l 90 694 l 151 694 l 151 486 q 194 347 151 388 q 340 306 236 306 q 452 315 403 306 q 529 331 501 324 l 529 694 l 590 694 l 590 0 l 529 0 l 529 275 q 452 259 501 268 q 340 250 403 250 z "},"ш":{"ha":1056,"x_min":132,"x_max":924,"o":"m 132 694 l 193 694 l 193 56 l 497 56 l 497 694 l 558 694 l 558 56 l 863 56 l 863 694 l 924 694 l 924 0 l 132 0 l 132 694 z "},"щ":{"ha":1076,"x_min":132,"x_max":1035,"o":"m 974 0 l 132 0 l 132 694 l 193 694 l 193 56 l 497 56 l 497 694 l 558 694 l 558 56 l 863 56 l 863 694 l 924 694 l 924 56 l 1035 56 l 1035 -181 l 974 -181 l 974 0 z "},"ъ":{"ha":792,"x_min":35,"x_max":729,"o":"m 243 639 l 35 639 l 35 694 l 304 694 l 304 431 l 479 431 q 667 373 606 431 q 729 215 729 315 q 667 58 729 117 q 479 0 604 0 l 243 0 l 243 639 m 304 375 l 304 56 l 472 56 q 620 97 575 56 q 665 215 665 138 q 619 333 665 292 q 472 375 574 375 l 304 375 z "},"ы":{"ha":986,"x_min":132,"x_max":854,"o":"m 793 694 l 854 694 l 854 0 l 793 0 l 793 694 m 132 694 l 193 694 l 193 431 l 368 431 q 556 373 494 431 q 618 215 618 315 q 556 58 618 117 q 368 0 493 0 l 132 0 l 132 694 m 193 375 l 193 56 l 361 56 q 509 97 464 56 q 554 215 554 138 q 508 333 554 292 q 361 375 463 375 l 193 375 z "},"ь":{"ha":681,"x_min":132,"x_max":618,"o":"m 132 694 l 193 694 l 193 431 l 368 431 q 556 373 494 431 q 618 215 618 315 q 556 58 618 117 q 368 0 493 0 l 132 0 l 132 694 m 193 375 l 193 56 l 361 56 q 509 97 464 56 q 554 215 554 138 q 508 333 554 292 q 361 375 463 375 l 193 375 z "},"э":{"ha":708,"x_min":76,"x_max":618,"o":"m 333 -8 q 234 8 278 -8 q 158 51 190 24 q 105 115 125 78 q 76 194 85 151 l 140 194 q 203 88 156 129 q 333 47 250 47 q 496 122 438 47 q 554 326 554 196 l 257 326 l 257 382 l 554 382 q 494 575 554 503 q 333 647 435 647 q 203 608 250 647 q 140 514 156 568 l 76 514 q 105 585 85 551 q 158 646 125 619 q 234 688 190 672 q 333 703 278 703 q 449 681 396 703 q 539 619 501 660 q 597 518 576 578 q 618 382 618 458 l 618 326 q 597 183 618 244 q 538 78 576 121 q 448 13 500 35 q 333 -8 396 -8 z "},"ю":{"ha":1028,"x_min":132,"x_max":938,"o":"m 132 694 l 193 694 l 193 382 l 374 382 q 395 518 374 458 q 454 619 417 578 q 544 681 492 660 q 660 703 597 703 q 770 681 719 703 q 858 617 821 658 q 917 514 896 575 q 938 375 938 453 l 938 319 q 917 181 938 242 q 858 78 896 119 q 770 14 821 36 q 660 -8 719 -8 q 544 14 597 -8 q 454 78 492 36 q 395 183 417 121 q 374 326 374 246 l 193 326 l 193 0 l 132 0 l 132 694 m 660 47 q 744 65 706 47 q 812 116 783 82 q 857 201 840 150 q 874 319 874 253 l 874 375 q 857 493 874 442 q 812 578 840 544 q 744 630 783 613 q 660 647 706 647 q 500 581 563 647 q 438 382 438 514 l 438 326 q 500 117 438 186 q 660 47 563 47 z "},"я":{"ha":701,"x_min":69,"x_max":569,"o":"m 236 288 q 136 353 175 307 q 97 482 97 399 q 160 638 97 581 q 361 694 224 694 l 569 694 l 569 0 l 508 0 l 508 271 l 361 271 q 296 275 326 271 l 139 0 l 69 0 l 236 288 m 161 482 q 208 367 161 408 q 368 326 256 326 l 508 326 l 508 639 l 368 639 q 208 598 256 639 q 161 482 161 557 z "},"ѐ":{"ha":750,"x_min":90,"x_max":660,"o":"m 382 -8 q 263 13 317 -8 q 170 76 208 35 q 111 179 132 118 q 90 319 90 240 l 90 375 q 111 515 90 454 q 170 618 132 576 q 260 681 208 660 q 375 703 313 703 q 490 681 438 703 q 581 617 543 660 q 639 513 618 575 q 660 368 660 450 l 660 333 l 154 333 q 210 121 154 194 q 375 47 267 47 q 512 81 458 47 q 589 181 565 115 l 653 181 q 556 41 626 90 q 382 -8 486 -8 m 375 647 q 217 582 278 647 q 154 389 157 517 l 596 389 q 533 583 593 519 q 375 647 474 647 m 174 993 l 263 993 l 424 785 l 351 785 l 174 993 z "},"ё":{"ha":750,"x_min":90,"x_max":660,"o":"m 382 -8 q 263 13 317 -8 q 170 76 208 35 q 111 179 132 118 q 90 319 90 240 l 90 375 q 111 515 90 454 q 170 618 132 576 q 260 681 208 660 q 375 703 313 703 q 490 681 438 703 q 581 617 543 660 q 639 513 618 575 q 660 368 660 450 l 660 333 l 154 333 q 210 121 154 194 q 375 47 267 47 q 512 81 458 47 q 589 181 565 115 l 653 181 q 556 41 626 90 q 382 -8 486 -8 m 375 647 q 217 582 278 647 q 154 389 157 517 l 596 389 q 533 583 593 519 q 375 647 474 647 m 236 833 q 201 847 215 833 q 188 882 188 861 q 201 917 188 903 q 236 931 215 931 q 271 917 257 931 q 285 882 285 903 q 271 847 285 861 q 236 833 257 833 m 514 833 q 479 847 493 833 q 465 882 465 861 q 479 917 465 903 q 514 931 493 931 q 549 917 535 931 q 563 882 563 903 q 549 847 563 861 q 514 833 535 833 z "},"ђ":{"ha":799,"x_min":21,"x_max":674,"o":"m 132 767 l 21 767 l 21 817 l 132 817 l 132 972 l 193 972 l 193 817 l 424 817 l 424 767 l 193 767 l 193 563 l 196 563 q 287 656 229 622 q 415 689 344 689 q 606 619 538 689 q 674 410 674 549 l 674 29 q 610 -204 674 -132 q 438 -276 547 -276 l 396 -276 l 396 -221 l 424 -221 q 507 -208 471 -221 q 566 -166 543 -196 q 601 -87 589 -136 q 613 36 613 -37 l 613 410 q 560 578 613 524 q 410 633 508 633 q 322 617 361 633 q 253 572 282 601 q 209 501 225 543 q 193 410 193 460 l 193 0 l 132 0 l 132 767 z "},"ѓ":{"ha":590,"x_min":132,"x_max":556,"o":"m 132 694 l 556 694 l 556 639 l 193 639 l 193 0 l 132 0 l 132 694 m 460 993 l 546 993 l 365 785 l 296 785 l 460 993 z "},"є":{"ha":708,"x_min":90,"x_max":632,"o":"m 375 -8 q 258 13 311 -8 q 168 76 206 35 q 110 181 131 118 q 90 326 90 243 l 90 382 q 111 518 90 458 q 169 619 132 578 q 260 681 207 660 q 375 703 313 703 q 474 688 431 703 q 551 646 518 672 q 603 585 583 619 q 632 514 624 551 l 568 514 q 506 608 553 568 q 375 647 458 647 q 288 630 328 647 q 217 579 247 613 q 171 497 188 546 q 154 382 154 447 l 451 382 l 451 326 l 154 326 q 171 204 154 257 q 217 117 188 151 q 288 65 247 82 q 375 47 328 47 q 506 88 458 47 q 568 194 553 129 l 632 194 q 603 115 624 151 q 551 51 583 78 q 474 8 518 24 q 375 -8 431 -8 z "},"ѕ":{"ha":681,"x_min":90,"x_max":590,"o":"m 347 -8 q 162 45 224 -8 q 90 181 100 99 l 154 181 q 208 83 165 118 q 347 47 251 47 q 485 83 443 47 q 526 179 526 119 q 495 257 526 229 q 417 303 464 285 q 315 335 369 321 q 214 370 261 349 q 135 426 167 392 q 104 522 104 461 q 163 651 104 599 q 333 703 221 703 q 438 689 393 703 q 513 651 482 675 q 560 596 543 628 q 583 528 578 564 l 517 528 q 465 614 506 581 q 333 647 424 647 q 208 612 249 647 q 168 522 168 576 q 199 449 168 475 q 278 407 231 424 q 379 376 325 390 q 481 340 433 363 q 559 281 528 318 q 590 179 590 243 q 529 46 590 100 q 347 -8 468 -8 z "},"і":{"ha":356,"x_min":128,"x_max":228,"o":"m 147 694 l 208 694 l 208 0 l 147 0 l 147 694 m 178 832 q 142 846 156 832 q 128 882 128 860 q 142 918 128 904 q 178 932 156 932 q 214 918 200 932 q 228 882 228 904 q 214 846 228 860 q 178 832 200 832 z "},"ї":{"ha":356,"x_min":-8,"x_max":367,"o":"m 147 694 l 208 694 l 208 0 l 147 0 l 147 694 m 40 833 q 6 847 19 833 q -8 882 -8 861 q 6 917 -8 903 q 40 931 19 931 q 75 917 61 931 q 89 882 89 903 q 75 847 89 861 q 40 833 61 833 m 318 833 q 283 847 297 833 q 269 882 269 861 q 283 917 269 903 q 318 931 297 931 q 353 917 339 931 q 367 882 367 903 q 353 847 367 861 q 318 833 339 833 z "},"ј":{"ha":356,"x_min":0,"x_max":228,"o":"m 0 -222 l 36 -222 q 100 -206 78 -222 q 133 -167 122 -190 q 145 -119 143 -144 q 147 -76 147 -94 l 147 694 l 208 694 l 208 -83 q 206 -137 208 -104 q 186 -202 203 -171 q 135 -256 169 -233 q 36 -278 100 -278 l 0 -278 l 0 -222 m 178 832 q 142 846 156 832 q 128 882 128 860 q 142 918 128 904 q 178 932 156 932 q 214 918 200 932 q 228 882 228 904 q 214 846 228 860 q 178 832 200 832 z "},"љ":{"ha":1069,"x_min":35,"x_max":1007,"o":"m 35 47 l 56 47 q 126 79 101 47 q 164 172 151 111 q 178 321 176 233 q 181 521 181 408 l 181 694 l 611 694 l 611 410 l 778 410 q 953 353 899 410 q 1007 206 1007 296 q 951 58 1007 115 q 778 0 896 0 l 550 0 l 550 639 l 242 639 l 242 521 q 238 297 242 396 q 217 131 235 199 q 162 28 200 64 q 56 -8 124 -8 l 35 -8 l 35 47 m 771 56 q 906 95 868 56 q 943 206 943 135 q 905 314 943 274 q 771 354 867 354 l 611 354 l 611 56 l 771 56 z "},"њ":{"ha":1104,"x_min":132,"x_max":1042,"o":"m 132 694 l 193 694 l 193 410 l 585 410 l 585 694 l 646 694 l 646 410 l 813 410 q 987 353 932 410 q 1042 206 1042 296 q 986 58 1042 115 q 813 0 931 0 l 585 0 l 585 354 l 193 354 l 193 0 l 132 0 l 132 694 m 806 56 q 940 95 903 56 q 978 206 978 135 q 940 314 978 274 q 806 354 901 354 l 646 354 l 646 56 l 806 56 z "},"ћ":{"ha":799,"x_min":21,"x_max":674,"o":"m 132 767 l 21 767 l 21 817 l 132 817 l 132 972 l 193 972 l 193 817 l 424 817 l 424 767 l 193 767 l 193 563 l 196 563 q 287 656 229 622 q 415 689 344 689 q 606 619 538 689 q 674 410 674 549 l 674 0 l 613 0 l 613 410 q 560 578 613 524 q 410 633 508 633 q 322 617 361 633 q 253 572 282 601 q 209 501 225 543 q 193 410 193 460 l 193 0 l 132 0 l 132 767 z "},"ќ":{"ha":708,"x_min":132,"x_max":660,"o":"m 132 694 l 193 694 l 193 389 l 347 389 l 560 694 l 632 694 l 401 363 l 660 0 l 585 0 l 347 333 l 193 333 l 193 0 l 132 0 l 132 694 m 463 993 l 549 993 l 368 785 l 299 785 l 463 993 z "},"ѝ":{"ha":785,"x_min":125,"x_max":653,"o":"m 368 -8 q 191 61 257 -8 q 125 264 125 131 l 125 694 l 186 694 l 186 271 q 237 102 186 157 q 375 47 288 47 q 463 63 422 47 q 531 108 503 79 q 576 179 560 138 q 592 271 592 221 l 592 694 l 653 694 l 653 0 l 603 0 l 594 118 l 592 118 q 499 24 557 57 q 368 -8 442 -8 m 188 993 l 276 993 l 438 785 l 365 785 l 188 993 z "},"ў":{"ha":722,"x_min":49,"x_max":674,"o":"m 342 0 l 49 694 l 115 694 l 372 76 l 375 76 l 610 694 l 674 694 l 299 -278 l 235 -278 l 342 0 m 363 783 q 231 833 279 783 q 182 972 182 882 l 240 972 q 272 867 240 901 q 363 833 304 833 q 453 867 421 833 q 485 972 485 901 l 543 972 q 494 833 543 882 q 363 783 446 783 z "},"џ":{"ha":778,"x_min":132,"x_max":646,"o":"m 358 0 l 132 0 l 132 694 l 193 694 l 193 56 l 585 56 l 585 694 l 646 694 l 646 0 l 419 0 l 419 -181 l 358 -181 l 358 0 z "},"Ѣ":{"ha":882,"x_min":28,"x_max":813,"o":"m 28 806 l 188 806 l 188 972 l 251 972 l 251 806 l 514 806 l 514 750 l 251 750 l 251 589 l 486 589 q 731 512 650 589 q 813 294 813 435 q 731 78 813 156 q 486 0 650 0 l 188 0 l 188 750 l 28 750 l 28 806 m 479 58 q 682 118 618 58 q 746 294 746 178 q 682 470 746 410 q 479 531 618 531 l 251 531 l 251 58 l 479 58 z "},"ѣ":{"ha":750,"x_min":28,"x_max":688,"o":"m 188 639 l 28 639 l 28 694 l 188 694 l 188 972 l 249 972 l 249 694 l 486 694 l 486 639 l 249 639 l 249 431 l 424 431 q 624 373 560 431 q 688 215 688 315 q 624 58 688 115 q 424 0 560 0 l 188 0 l 188 639 m 249 375 l 249 56 l 424 56 q 577 97 531 56 q 624 215 624 139 q 577 333 624 292 q 424 375 531 375 l 249 375 z "},"Ѳ":{"ha":986,"x_min":104,"x_max":882,"o":"m 493 -8 q 339 22 410 -8 q 216 110 268 53 q 134 251 164 168 q 104 438 104 333 l 104 535 q 134 722 104 639 q 216 862 164 804 q 340 950 268 919 q 493 981 411 981 q 647 950 576 981 q 770 862 718 919 q 852 722 822 804 q 882 535 882 639 l 882 438 q 852 251 882 333 q 770 110 822 168 q 647 22 718 53 q 493 -8 575 -8 m 815 535 q 790 697 815 625 q 722 817 765 768 q 619 893 678 867 q 493 919 560 919 q 367 894 425 919 q 265 819 308 868 q 196 698 221 769 q 171 535 171 626 l 171 522 q 195 534 179 526 q 232 549 211 542 q 277 562 253 557 q 326 567 301 567 q 425 551 383 567 q 503 516 467 535 q 576 482 539 497 q 661 467 613 467 q 710 472 686 467 q 756 485 735 478 q 792 501 776 493 q 815 514 807 510 l 815 535 m 493 53 q 619 78 561 53 q 722 153 678 104 q 790 274 765 203 q 815 438 815 346 l 815 450 q 756 423 799 440 q 661 406 713 406 q 563 421 604 406 q 486 455 522 436 q 413 490 450 474 q 326 506 375 506 q 277 500 301 506 q 232 487 253 494 q 195 471 211 479 q 171 458 179 463 l 171 438 q 196 276 171 347 q 265 155 221 204 q 367 79 308 106 q 493 53 426 53 z "},"ѳ":{"ha":764,"x_min":90,"x_max":674,"o":"m 382 -8 q 263 13 317 -8 q 170 76 208 35 q 111 176 132 117 q 90 313 90 236 l 90 382 q 111 518 90 458 q 171 619 132 578 q 263 681 210 660 q 382 703 317 703 q 501 681 447 703 q 594 619 556 660 q 653 518 632 578 q 674 382 674 458 l 674 313 q 653 176 674 236 q 593 76 632 117 q 501 13 554 35 q 382 -8 447 -8 m 610 382 q 546 576 610 508 q 382 644 482 644 q 217 577 281 644 q 154 382 154 510 q 194 400 167 389 q 263 411 222 411 q 333 400 303 411 q 389 376 363 389 q 442 353 415 364 q 501 342 468 342 q 569 354 539 342 q 610 374 599 367 l 610 382 m 382 50 q 547 117 483 50 q 610 313 610 185 q 569 294 597 306 q 501 283 542 283 q 431 294 461 283 q 375 318 401 306 q 322 342 349 331 q 263 353 296 353 q 195 340 225 353 q 154 321 165 328 l 154 313 q 218 118 154 186 q 382 50 282 50 z "},"Ѵ":{"ha":986,"x_min":56,"x_max":986,"o":"m 56 972 l 128 972 l 478 75 l 708 800 q 746 891 726 856 q 790 947 765 926 q 848 974 815 967 q 924 981 881 981 l 986 981 l 986 921 l 924 921 q 869 915 892 921 q 828 897 846 910 q 798 860 811 883 q 774 800 785 836 l 521 0 l 438 0 l 56 972 z "},"ѵ":{"ha":771,"x_min":49,"x_max":757,"o":"m 49 694 l 115 694 l 360 78 l 500 522 q 537 613 518 578 q 580 669 556 649 q 633 696 604 689 q 701 703 663 703 l 757 703 l 757 646 l 701 646 q 653 640 674 646 q 617 622 633 635 q 587 584 600 608 q 561 522 574 560 l 396 0 l 326 0 l 49 694 z "},"Ґ":{"ha":715,"x_min":139,"x_max":674,"o":"m 139 972 l 610 972 l 610 1139 l 674 1139 l 674 914 l 203 914 l 203 0 l 139 0 l 139 972 z "},"ґ":{"ha":590,"x_min":132,"x_max":556,"o":"m 132 694 l 494 694 l 494 833 l 556 833 l 556 639 l 193 639 l 193 0 l 132 0 l 132 694 z "},"Ғ":{"ha":743,"x_min":42,"x_max":701,"o":"m 167 444 l 42 444 l 42 500 l 167 500 l 167 972 l 701 972 l 701 914 l 231 914 l 231 500 l 514 500 l 514 444 l 231 444 l 231 0 l 167 0 l 167 444 z "},"ғ":{"ha":604,"x_min":35,"x_max":569,"o":"m 146 307 l 35 307 l 35 360 l 146 360 l 146 694 l 569 694 l 569 639 l 207 639 l 207 360 l 396 360 l 396 307 l 207 307 l 207 0 l 146 0 l 146 307 z "},"Ҕ":{"ha":875,"x_min":139,"x_max":778,"o":"m 139 972 l 674 972 l 674 914 l 203 914 l 203 500 q 431 529 329 529 q 692 442 607 529 q 778 161 778 354 l 778 92 q 696 -189 778 -100 q 465 -278 614 -278 l 410 -278 l 410 -219 l 465 -219 q 573 -203 526 -219 q 651 -149 619 -186 q 698 -52 682 -111 q 714 92 714 7 l 714 161 q 697 303 714 244 q 645 400 681 363 q 555 454 610 438 q 424 471 500 471 q 203 440 325 471 l 203 0 l 139 0 l 139 972 z "},"ҕ":{"ha":694,"x_min":132,"x_max":618,"o":"m 132 694 l 556 694 l 556 639 l 193 639 l 193 367 q 281 383 238 378 q 361 389 324 389 q 551 315 485 389 q 618 76 618 242 l 618 35 q 555 -205 618 -132 q 382 -278 492 -278 l 340 -278 l 340 -222 l 368 -222 q 451 -210 415 -222 q 510 -167 488 -197 q 545 -88 533 -137 q 557 35 557 -39 l 557 76 q 544 198 557 149 q 507 277 532 247 q 444 320 482 307 q 354 333 406 333 q 193 311 276 333 l 193 0 l 132 0 l 132 694 z "},"Җ":{"ha":1313,"x_min":63,"x_max":1285,"o":"m 372 501 l 83 972 l 156 972 l 426 529 l 607 529 l 607 972 l 671 972 l 671 529 l 851 529 l 1122 972 l 1194 972 l 906 501 l 1179 58 l 1285 58 l 1285 -208 l 1221 -208 l 1221 0 l 1140 0 l 851 471 l 671 471 l 671 0 l 607 0 l 607 471 l 426 471 l 138 0 l 63 0 l 372 501 z "},"җ":{"ha":1049,"x_min":49,"x_max":1021,"o":"m 257 364 l 63 694 l 132 694 l 310 389 l 463 389 l 463 694 l 524 694 l 524 389 l 676 389 l 854 694 l 924 694 l 729 364 l 906 56 l 1021 56 l 1021 -181 l 960 -181 l 960 0 l 865 0 l 676 333 l 524 333 l 524 0 l 463 0 l 463 333 l 310 333 l 121 0 l 49 0 l 257 364 z "},"Ҙ":{"ha":826,"x_min":90,"x_max":729,"o":"m 385 -7 q 176 76 251 1 q 90 278 100 151 l 157 278 q 233 110 168 169 q 417 50 299 50 q 601 108 539 50 q 663 264 663 167 q 601 413 663 356 q 417 471 540 471 l 299 471 l 299 529 l 417 529 q 583 585 525 529 q 642 724 642 640 q 585 869 642 815 q 417 922 529 922 q 249 867 308 922 q 178 708 190 811 l 111 708 q 200 906 122 832 q 417 981 278 981 q 633 910 558 981 q 708 724 708 839 q 667 590 708 649 q 550 504 625 532 l 550 501 q 683 414 638 475 q 729 264 729 353 q 657 76 729 150 q 449 -7 585 1 l 449 -208 l 385 -208 l 385 -7 z "},"ҙ":{"ha":674,"x_min":69,"x_max":583,"o":"m 303 -7 q 136 55 193 0 q 69 194 79 110 l 133 194 q 191 88 144 128 q 333 47 238 47 q 474 87 429 47 q 519 188 519 126 q 474 288 519 249 q 333 326 429 326 l 257 326 l 257 382 l 333 382 q 458 419 417 382 q 499 514 499 456 q 458 610 499 572 q 333 647 417 647 q 208 610 250 647 q 154 514 165 572 l 90 514 q 161 649 101 596 q 333 703 221 703 q 504 649 446 703 q 563 514 563 596 q 535 424 563 464 q 458 360 508 383 l 458 357 q 553 289 522 333 q 583 188 583 244 q 528 54 583 108 q 364 -7 474 0 l 364 -181 l 303 -181 l 303 -7 z "},"Қ":{"ha":910,"x_min":139,"x_max":882,"o":"m 139 972 l 203 972 l 203 529 l 383 529 l 714 972 l 792 972 l 439 501 l 775 58 l 882 58 l 882 -208 l 818 -208 l 818 0 l 739 0 l 383 471 l 203 471 l 203 0 l 139 0 l 139 972 z "},"қ":{"ha":757,"x_min":132,"x_max":729,"o":"m 132 694 l 193 694 l 193 389 l 347 389 l 560 694 l 632 694 l 401 363 l 619 56 l 729 56 l 729 -181 l 668 -181 l 668 0 l 585 0 l 347 333 l 193 333 l 193 0 l 132 0 l 132 694 z "},"Ҝ":{"ha":993,"x_min":139,"x_max":931,"o":"m 139 972 l 203 972 l 203 529 l 346 529 l 346 736 l 404 736 l 404 529 l 494 529 l 825 972 l 903 972 l 550 501 l 931 0 l 850 0 l 494 471 l 404 471 l 404 264 l 346 264 l 346 471 l 203 471 l 203 0 l 139 0 l 139 972 z "},"ҝ":{"ha":819,"x_min":132,"x_max":771,"o":"m 132 694 l 193 694 l 193 389 l 319 389 l 319 569 l 375 569 l 375 389 l 458 389 l 671 694 l 743 694 l 513 363 l 771 0 l 696 0 l 458 333 l 375 333 l 375 153 l 319 153 l 319 333 l 193 333 l 193 0 l 132 0 l 132 694 z "},"Ҡ":{"ha":1042,"x_min":42,"x_max":979,"o":"m 299 914 l 42 914 l 42 972 l 363 972 l 363 529 l 543 529 l 874 972 l 951 972 l 599 501 l 979 0 l 899 0 l 543 471 l 363 471 l 363 0 l 299 0 l 299 914 z "},"ҡ":{"ha":819,"x_min":35,"x_max":771,"o":"m 243 639 l 35 639 l 35 694 l 304 694 l 304 389 l 458 389 l 671 694 l 743 694 l 513 363 l 771 0 l 696 0 l 458 333 l 304 333 l 304 0 l 243 0 l 243 639 z "},"Ң":{"ha":1021,"x_min":139,"x_max":972,"o":"m 139 972 l 203 972 l 203 529 l 783 529 l 783 972 l 847 972 l 847 58 l 972 58 l 972 -208 l 908 -208 l 908 0 l 783 0 l 783 471 l 203 471 l 203 0 l 139 0 l 139 972 z "},"ң":{"ha":826,"x_min":132,"x_max":785,"o":"m 132 694 l 193 694 l 193 382 l 613 382 l 613 694 l 674 694 l 674 56 l 785 56 l 785 -181 l 724 -181 l 724 0 l 613 0 l 613 326 l 193 326 l 193 0 l 132 0 l 132 694 z "},"Ҥ":{"ha":1347,"x_min":139,"x_max":1306,"o":"m 139 972 l 203 972 l 203 529 l 783 529 l 783 972 l 1306 972 l 1306 914 l 847 914 l 847 0 l 783 0 l 783 471 l 203 471 l 203 0 l 139 0 l 139 972 z "},"ҥ":{"ha":1063,"x_min":132,"x_max":1035,"o":"m 132 694 l 193 694 l 193 382 l 613 382 l 613 694 l 1035 694 l 1035 639 l 674 639 l 674 0 l 613 0 l 613 326 l 193 326 l 193 0 l 132 0 l 132 694 z "},"Ҫ":{"ha":931,"x_min":104,"x_max":840,"o":"m 454 -7 q 313 31 378 -1 q 202 122 249 64 q 130 262 156 179 q 104 451 104 344 l 104 535 q 133 724 104 640 q 213 864 161 807 q 334 951 264 921 q 486 981 404 981 q 622 959 561 981 q 728 900 683 938 q 801 813 774 863 q 840 708 829 764 l 776 708 q 742 790 765 751 q 683 858 719 829 q 597 905 646 888 q 486 922 549 922 q 360 897 418 922 q 260 823 303 872 q 194 701 218 774 q 171 535 171 629 l 171 451 q 194 276 171 351 q 260 151 218 201 q 360 76 303 101 q 486 50 418 50 q 597 67 549 50 q 683 115 646 85 q 742 188 719 146 q 776 278 765 229 l 840 278 q 805 171 831 221 q 738 83 779 121 q 642 21 697 44 q 518 -7 586 -3 l 518 -208 l 454 -208 l 454 -7 z "},"ҫ":{"ha":701,"x_min":90,"x_max":632,"o":"m 321 -4 q 153 95 215 13 q 90 326 90 178 l 90 382 q 111 518 90 458 q 169 619 132 578 q 260 681 207 660 q 375 703 313 703 q 474 688 431 703 q 551 646 518 672 q 603 585 583 619 q 632 514 624 551 l 568 514 q 506 608 553 568 q 375 647 458 647 q 288 630 328 647 q 217 578 247 613 q 171 495 188 544 q 154 382 154 446 l 154 326 q 171 205 154 257 q 217 118 188 153 q 288 65 247 83 q 375 47 328 47 q 506 88 458 47 q 568 194 553 129 l 632 194 q 553 52 617 110 q 382 -8 490 -6 l 382 -181 l 321 -181 l 321 -4 z "},"Ү":{"ha":903,"x_min":56,"x_max":847,"o":"m 433 368 l 56 972 l 131 972 l 465 433 l 775 972 l 847 972 l 497 368 l 497 0 l 433 0 l 433 368 z "},"ү":{"ha":708,"x_min":49,"x_max":660,"o":"m 49 694 l 115 694 l 363 79 l 596 694 l 660 694 l 392 0 l 392 -278 l 332 -278 l 332 0 l 49 694 z "},"Ұ":{"ha":903,"x_min":56,"x_max":847,"o":"m 208 368 l 433 368 l 56 972 l 131 972 l 465 433 l 775 972 l 847 972 l 497 368 l 694 368 l 694 313 l 497 313 l 497 0 l 433 0 l 433 313 l 208 313 l 208 368 z "},"ұ":{"ha":708,"x_min":49,"x_max":660,"o":"m 153 0 l 332 0 l 49 694 l 115 694 l 363 79 l 596 694 l 660 694 l 392 0 l 569 0 l 569 -53 l 392 -53 l 392 -278 l 332 -278 l 332 -53 l 153 -53 l 153 0 z "},"Ҳ":{"ha":938,"x_min":63,"x_max":910,"o":"m 408 511 l 90 972 l 168 972 l 453 557 l 735 972 l 813 972 l 494 508 l 800 58 l 910 58 l 910 -208 l 846 -208 l 846 0 l 760 0 l 450 457 l 143 0 l 63 0 l 408 511 z "},"ҳ":{"ha":743,"x_min":49,"x_max":715,"o":"m 311 361 l 71 694 l 143 694 l 347 410 l 554 694 l 624 694 l 383 363 l 606 56 l 715 56 l 715 -181 l 654 -181 l 654 0 l 571 0 l 347 313 l 121 0 l 49 0 l 311 361 z "},"Ҷ":{"ha":910,"x_min":97,"x_max":861,"o":"m 417 374 q 283 390 338 374 q 192 432 228 406 q 138 492 157 458 q 109 560 118 525 q 99 628 100 594 q 97 688 97 661 l 97 972 l 161 972 l 161 694 q 165 605 161 651 q 194 520 169 558 q 269 457 218 482 q 417 432 321 432 q 541 442 479 432 q 672 475 603 453 l 672 972 l 736 972 l 736 58 l 861 58 l 861 -208 l 797 -208 l 797 0 l 672 0 l 672 414 q 540 384 606 394 q 417 374 475 374 z "},"ҷ":{"ha":743,"x_min":90,"x_max":701,"o":"m 340 250 q 149 306 207 250 q 90 483 90 363 l 90 694 l 151 694 l 151 486 q 194 347 151 388 q 340 306 236 306 q 452 315 403 306 q 529 331 501 324 l 529 694 l 590 694 l 590 56 l 701 56 l 701 -181 l 640 -181 l 640 0 l 529 0 l 529 275 q 452 259 501 268 q 340 250 403 250 z "},"Ҹ":{"ha":875,"x_min":97,"x_max":736,"o":"m 388 374 q 266 394 315 376 q 184 438 217 411 q 134 497 151 464 q 108 564 117 531 q 99 630 100 597 q 97 688 97 663 l 97 972 l 161 972 l 161 694 q 165 608 161 653 q 190 526 168 564 q 257 463 211 489 q 388 433 303 438 l 388 639 l 446 639 l 446 432 q 672 475 553 436 l 672 972 l 736 972 l 736 0 l 672 0 l 672 414 q 446 374 556 378 l 446 167 l 388 167 l 388 374 z "}}}
